<svg width="288" height="212" viewBox="0 0 288 212" fill="none" xmlns="http://www.w3.org/2000/svg">
<path d="M143.742 211.263C223.128 211.263 287.483 174.108 287.483 128.274C287.483 82.4406 223.128 45.2852 143.742 45.2852C64.3553 45.2852 0 82.4406 0 128.274C0 174.108 64.3553 211.263 143.742 211.263Z" fill="#D8DBE2"/>
<path d="M199.981 182.335C217.649 182.335 231.971 174.066 231.971 163.865C231.971 153.665 217.649 145.395 199.981 145.395C182.313 145.395 167.99 153.665 167.99 163.865C167.99 174.066 182.313 182.335 199.981 182.335Z" fill="#9C9C9C"/>
<path d="M122.67 184.014C140.506 184.014 154.965 175.666 154.965 165.368C154.965 155.07 140.506 146.722 122.67 146.722C104.834 146.722 90.375 155.07 90.375 165.368C90.375 175.666 104.834 184.014 122.67 184.014Z" fill="#9C9C9C"/>
<path d="M240.298 166.271L248.972 161.262C249.742 160.818 249.742 160.098 248.972 159.654L220.395 143.155C219.625 142.711 218.378 142.711 217.609 143.155L208.934 148.163C208.165 148.607 208.165 149.328 208.934 149.772L237.511 166.271C238.281 166.715 239.528 166.715 240.298 166.271Z" fill="#9C9C9C"/>
<path d="M75.4999 168.432L25.9458 139.836L128.769 80.4708L178.323 109.068L75.4999 168.432Z" fill="#9C9C9C"/>
<path d="M245.94 133.163V156.804C245.94 157.988 245.103 159.443 244.079 160.045L241.846 161.335C241.137 161.745 240.119 161.873 239.218 161.719C238.823 161.655 238.45 161.538 238.136 161.362C238.114 161.356 238.098 161.346 238.082 161.335L237.944 161.255L211.704 146.105C209.786 144.998 208.606 142.953 208.606 140.738L208.604 118.509C208.604 118.003 208.962 117.385 209.404 117.129L213.786 114.602C214.223 114.346 214.938 114.346 215.374 114.602L245.14 131.787C245.364 131.91 245.561 132.134 245.705 132.379C245.849 132.63 245.94 132.912 245.94 133.163Z" fill="#58A4B0"/>
<path opacity="0.2" d="M245.94 133.163V156.804C245.94 157.988 245.103 159.443 244.08 160.045L241.846 161.335C241.137 161.745 240.119 161.873 239.218 161.719C238.823 161.655 238.45 161.538 238.136 161.362V161.351C239.159 161.831 239.964 161.298 239.964 160.088V137.087C239.964 136.703 239.831 136.276 239.612 135.898L245.705 132.38C245.849 132.63 245.94 132.913 245.94 133.163Z" fill="black"/>
<path opacity="0.3" d="M239.964 137.086C239.964 136.321 239.422 135.382 238.759 135L210.626 118.757C209.514 118.115 208.605 118.64 208.605 119.924L208.603 140.736C208.603 142.95 209.783 144.996 211.701 146.103L237.942 161.255C239.054 161.897 239.964 161.371 239.964 160.088V137.086Z" fill="black"/>
<path opacity="0.6" d="M208.604 126.215C208.604 127.68 209.643 129.48 210.913 130.213L237.657 145.654C238.927 146.387 239.966 145.787 239.966 144.321V136.416C239.966 135.962 240.208 135.543 240.6 135.316L244.701 132.959L213.786 114.602L209.24 117.212C208.847 117.439 208.604 117.859 208.604 118.312V126.215Z" fill="#58A4B0"/>
<path d="M213.785 114.602L209.239 117.213C209.03 117.333 208.868 117.51 208.758 117.716L240.142 135.771C240.252 135.587 240.407 135.428 240.599 135.317L244.7 132.959L213.785 114.602Z" fill="#58A4B0"/>
<path d="M222.195 134.951L226.357 137.355C226.995 137.722 227.515 138.618 227.52 139.353L227.527 140.302C227.532 141.039 227.02 141.337 226.382 140.969L222.194 138.551C221.557 138.183 221.04 137.288 221.04 136.552V135.617C221.041 134.882 221.558 134.583 222.195 134.951Z" fill="#37474F"/>
<path d="M223.968 118.715V122.008L222.068 123.106V118.086C222.068 117.826 222.248 117.723 222.473 117.852L223.968 118.715Z" fill="#263238"/>
<path d="M233.936 122.207V128.327L232.525 129.144L231.575 128.594V123.574C231.575 123.316 231.393 123 231.171 122.872L223.969 118.716L222.474 117.852C222.249 117.724 222.069 117.826 222.069 118.086V123.106L221.117 122.556V116.438C221.117 116.412 221.119 116.384 221.123 116.358C221.154 116.117 221.322 115.851 221.523 115.736L222.125 115.387C222.348 115.258 222.71 115.258 222.935 115.387L233.532 121.505C233.756 121.636 233.936 121.949 233.936 122.207Z" fill="#455A64"/>
<path d="M232.525 123.024V129.144L231.575 128.594V123.574C231.575 123.316 231.393 123 231.171 122.872L223.969 118.716L222.474 117.852C222.249 117.724 222.069 117.826 222.069 118.086V123.106L221.117 122.556V116.438C221.117 116.412 221.119 116.384 221.123 116.358C221.159 116.159 221.325 116.089 221.523 116.204L232.12 122.321C232.343 122.452 232.525 122.766 232.525 123.024Z" fill="#37474F"/>
<path d="M45.439 117.483C45.439 117.683 45.4625 117.865 45.4978 118.03C45.5858 118.377 45.7567 118.636 45.9915 118.794L46.0089 118.806C46.3911 119.053 46.9318 119.029 47.5258 118.688C48.6779 118.024 49.6126 116.408 49.6126 115.073C49.6126 114.426 49.3834 113.98 49.0248 113.75L49.0309 113.744L48.9311 113.685H48.925C48.6723 113.573 48.3725 113.555 48.0374 113.65C47.8726 113.697 47.7023 113.773 47.5258 113.873C46.3737 114.538 45.439 116.154 45.439 117.483Z" fill="#455A64"/>
<path d="M46.0087 112.997C46.3382 112.81 46.6554 112.716 46.9378 112.716C47.1552 112.716 47.3553 112.774 47.5256 112.88L47.5783 112.91L48.9249 113.686C48.6721 113.575 48.3723 113.557 48.0372 113.651C47.8725 113.698 47.7021 113.774 47.5256 113.874C46.3735 114.539 45.4383 116.156 45.4383 117.484C45.4383 117.684 45.4618 117.866 45.4971 118.031C45.5851 118.378 45.756 118.637 45.9908 118.795L44.609 117.996L44.5855 117.984L44.4678 117.913C44.456 117.907 44.4443 117.902 44.4325 117.89C44.1153 117.655 43.9209 117.208 43.9209 116.608C43.9214 115.279 44.8561 113.662 46.0087 112.997Z" fill="#263238"/>
<path d="M68.0176 105.342C68.0176 105.542 68.0411 105.724 68.0764 105.889C68.1644 106.236 68.3353 106.495 68.5701 106.654L68.5875 106.665C68.9697 106.912 69.5104 106.889 70.1044 106.548C71.2565 105.884 72.1912 104.267 72.1912 102.932C72.1912 102.285 71.962 101.839 71.6034 101.609L71.609 101.603L71.5092 101.544H71.5031C71.2504 101.433 70.9506 101.415 70.6155 101.509C70.4507 101.556 70.2804 101.632 70.1039 101.732C68.9523 102.397 68.0176 104.014 68.0176 105.342Z" fill="#455A64"/>
<path d="M68.5888 100.857C68.9177 100.668 69.2355 100.575 69.5179 100.575C69.7353 100.575 69.9353 100.633 70.1057 100.739L70.1584 100.769L71.5049 101.545C71.2522 101.433 70.9524 101.415 70.6173 101.509C70.4525 101.556 70.2822 101.633 70.1057 101.733C68.9536 102.397 68.0189 104.014 68.0189 105.343C68.0189 105.543 68.0424 105.725 68.0777 105.89C68.1657 106.237 68.3366 106.495 68.5714 106.654L67.1896 105.854L67.166 105.843L67.0484 105.772C67.0366 105.766 67.0248 105.76 67.0131 105.748C66.6954 105.513 66.5015 105.066 66.5015 104.467C66.502 103.138 67.4367 101.521 68.5888 100.857Z" fill="#263238"/>
<path d="M63.9895 122.224C63.9895 122.424 63.966 122.606 63.9307 122.771C63.8422 123.118 63.6718 123.376 63.437 123.535L63.4196 123.547C63.0375 123.794 62.4967 123.77 61.9027 123.429C60.7506 122.765 59.8159 121.148 59.8159 119.813C59.8159 119.166 60.0451 118.72 60.4037 118.491L60.3981 118.484L60.4979 118.426H60.5035C60.7562 118.314 61.056 118.296 61.3911 118.39C61.5559 118.437 61.7262 118.514 61.9027 118.613C63.0549 119.278 63.9895 120.895 63.9895 122.224Z" fill="#455A64"/>
<path d="M63.421 117.738C63.0916 117.55 62.7744 117.456 62.492 117.456C62.2745 117.456 62.0745 117.514 61.9041 117.62L61.8509 117.65L60.5044 118.426C60.7571 118.315 61.0569 118.297 61.392 118.391C61.5568 118.438 61.7271 118.514 61.9036 118.614C63.0557 119.278 63.9904 120.895 63.9904 122.224C63.9904 122.424 63.9669 122.606 63.9316 122.771C63.8431 123.117 63.6727 123.376 63.4379 123.535L64.8192 122.735L64.8428 122.724L64.9604 122.653C64.9722 122.647 64.984 122.641 64.9957 122.629C65.3134 122.394 65.5073 121.947 65.5073 121.348C65.5078 120.019 64.5731 118.402 63.421 117.738Z" fill="#263238"/>
<path d="M78.6438 115.045C78.6438 115.245 78.6203 115.427 78.585 115.592C78.497 115.939 78.3261 116.197 78.0913 116.356L78.0739 116.368C77.6918 116.615 77.151 116.591 76.557 116.25C75.4049 115.586 74.4702 113.969 74.4702 112.635C74.4702 111.988 74.6994 111.541 75.058 111.312L75.0519 111.306L75.1517 111.247H75.1578C75.4105 111.135 75.7103 111.117 76.0454 111.211C76.2102 111.259 76.3805 111.335 76.557 111.435C77.7092 112.1 78.6438 113.716 78.6438 115.045Z" fill="#455A64"/>
<path d="M78.0743 110.559C77.7449 110.371 77.4277 110.277 77.1453 110.277C76.9278 110.277 76.7278 110.336 76.5574 110.441L76.5047 110.471L75.1582 111.247C75.4109 111.135 75.7107 111.117 76.0458 111.211C76.2106 111.258 76.3809 111.335 76.5574 111.435C77.7096 112.099 78.6442 113.716 78.6442 115.045C78.6442 115.245 78.6207 115.427 78.5854 115.592C78.4974 115.939 78.3265 116.197 78.0917 116.356L79.4735 115.556L79.4971 115.545L79.6148 115.474C79.6265 115.468 79.6383 115.462 79.6501 115.451C79.9672 115.215 80.1617 114.769 80.1617 114.169C80.1611 112.84 79.2264 111.223 78.0743 110.559Z" fill="#263238"/>
<path d="M50.3138 106.24C50.3138 106.44 50.2903 106.622 50.255 106.787C50.1664 107.134 49.9961 107.392 49.7613 107.551L49.7439 107.563C49.3617 107.81 48.8209 107.787 48.227 107.445C47.0748 106.781 46.1396 105.164 46.1396 103.83C46.1396 103.183 46.3688 102.736 46.7275 102.507L46.7218 102.501L46.8216 102.442H46.8277C47.0805 102.331 47.3803 102.313 47.7154 102.407C47.8801 102.454 48.0505 102.53 48.227 102.631C49.3791 103.294 50.3138 104.911 50.3138 106.24Z" fill="#455A64"/>
<path d="M49.7437 101.754C49.4148 101.566 49.0971 101.472 48.8152 101.472C48.5977 101.472 48.3977 101.531 48.2274 101.637L48.1747 101.666L46.8281 102.443C47.0809 102.331 47.3807 102.313 47.7158 102.407C47.8805 102.454 48.0508 102.531 48.2274 102.631C49.3795 103.295 50.3142 104.912 50.3142 106.241C50.3142 106.441 50.2906 106.623 50.2553 106.788C50.1668 107.134 49.9965 107.393 49.7616 107.552L51.1435 106.752L51.167 106.741L51.2847 106.67C51.2964 106.664 51.3082 106.658 51.32 106.646C51.6377 106.411 51.8316 105.964 51.8316 105.365C51.8306 104.035 50.8959 102.419 49.7437 101.754Z" fill="#263238"/>
<path d="M62.7739 101.829L70.2254 99.6922V101.283L62.7739 105.582V101.829Z" fill="#EBEBEB"/>
<path d="M62.7742 101.829L62.0396 101.378L69.513 99.3361L70.2257 99.6922L62.7742 101.829Z" fill="#F5F5F5"/>
<path d="M59.5508 106.578L48.9868 102.62V101.009L59.5508 101.953V106.578Z" fill="#EBEBEB"/>
<path d="M48.9868 101.009L49.7629 100.804L60.1786 101.477L59.5508 101.953L48.9868 101.009Z" fill="#F5F5F5"/>
<path d="M59.2671 106.069C59.2671 107.265 62.9414 107.265 62.9414 106.069V95.6225H59.2671V106.069Z" fill="#FAFAFA"/>
<path d="M62.0213 103.351L64.0422 116.469H62.6608L60.771 103.351C61.2442 103.485 61.6458 103.449 62.0213 103.351Z" fill="#F5F5F5"/>
<path d="M60.771 103.351V106.953L62.6608 118.689V116.469L60.771 103.351Z" fill="#EBEBEB"/>
<path d="M64.042 116.469H62.6606V118.689H64.042V116.469Z" fill="#E0E0E0"/>
<path d="M60.1424 106.846L46.52 113.987V111.788L60.1424 103.361V106.846Z" fill="#EBEBEB"/>
<path d="M60.1416 103.361C59.8157 103.314 59.5154 103.204 59.2673 102.964L45.6689 111.214L46.5192 111.788L60.1416 103.361Z" fill="#F5F5F5"/>
<path d="M46.5192 113.987V111.788L45.6689 111.214V113.345L46.5192 113.987Z" fill="#E0E0E0"/>
<path d="M77.3147 111.465L62.7617 106.482V103.213L77.3147 109.266V111.465Z" fill="#EBEBEB"/>
<path d="M62.7617 103.213C62.8799 103.181 62.9311 102.97 62.9408 102.648L77.7455 109.089L77.3152 109.266L62.7617 103.213Z" fill="#F5F5F5"/>
<path d="M77.7457 109.089V111.217L77.3149 111.465V109.266L77.7457 109.089Z" fill="#E0E0E0"/>
<path opacity="0.1" d="M64.042 116.469H62.6606V118.689H64.042V116.469Z" fill="black"/>
<path opacity="0.1" d="M46.5192 113.987V111.788L45.6689 111.214V113.345L46.5192 113.987Z" fill="black"/>
<path opacity="0.1" d="M77.7457 109.089V111.217L77.3149 111.465V109.266L77.7457 109.089Z" fill="black"/>
<path d="M64.2163 77.4228H57.9932V98.9683C57.9932 100.757 64.2158 100.757 64.2158 98.9683L64.2163 77.4228Z" fill="#F0F0F0"/>
<path d="M39.04 74.4387L62.8826 61.9843C62.8826 61.9843 64.5581 53.8284 58.9085 44.9409C58.9085 44.9409 60.5891 29.0972 57.7692 23.8282C55.7059 19.8101 53.2318 20.3596 53.2318 20.3596L26.1528 32.5848L39.04 74.4387Z" fill="#58A4B0"/>
<path opacity="0.2" d="M39.04 74.4387L62.8826 61.9843C62.8826 61.9843 64.5581 53.8284 58.9085 44.9409C58.9085 44.9409 60.5891 29.0972 57.7692 23.8282C55.7059 19.8101 53.2318 20.3596 53.2318 20.3596L26.1528 32.5848L39.04 74.4387Z" fill="black"/>
<path d="M53.2338 20.359L26.1548 32.5842L27.045 35.4747L56.6594 22.1046C54.9133 19.9886 53.2338 20.359 53.2338 20.359Z" fill="#58A4B0"/>
<path opacity="0.4" d="M53.334 45.7012C53.3903 46.1212 53.7541 46.2783 54.1459 46.0521C54.5378 45.826 54.81 45.3021 54.7532 44.8821C54.6969 44.4621 54.3332 44.305 53.9413 44.5311C53.5499 44.7578 53.2778 45.2817 53.334 45.7012Z" fill="white"/>
<path opacity="0.4" d="M49.2061 48.0858C49.2624 48.5058 49.6261 48.6629 50.018 48.4367C50.4099 48.2106 50.6821 47.6867 50.6253 47.2667C50.569 46.8467 50.2053 46.6896 49.8134 46.9163C49.422 47.1419 49.1498 47.6657 49.2061 48.0858Z" fill="white"/>
<path opacity="0.4" d="M45.0762 50.4698C45.1325 50.8899 45.4962 51.0469 45.8881 50.8208C46.28 50.5947 46.5522 50.0708 46.4954 49.6508C46.4391 49.2308 46.0754 49.0737 45.6835 49.2998C45.2921 49.5259 45.0199 50.0498 45.0762 50.4698Z" fill="white"/>
<path opacity="0.4" d="M40.9483 52.8538C41.0046 53.2738 41.3683 53.4309 41.7602 53.2048C42.1521 52.9786 42.4243 52.4548 42.3675 52.0347C42.3112 51.6147 41.9475 51.4577 41.5556 51.6838C41.1637 51.9099 40.892 52.4338 40.9483 52.8538Z" fill="white"/>
<path d="M90.1295 72.1431V73.4574C90.1295 74.9047 89.091 76.6232 87.8094 77.2954L61.2272 91.2472C59.9457 91.92 57.8911 91.8785 56.6377 91.1546L41.3071 82.3034C40.0536 81.58 39.0376 79.8201 39.0376 78.3728V77.0585C39.0376 75.6112 40.0777 73.8948 41.3603 73.2251L66.5187 60.0831C67.8013 59.4129 69.8906 59.395 71.1845 60.0427L87.7859 68.3496C89.0808 68.9978 90.1295 70.6958 90.1295 72.1431Z" fill="#58A4B0"/>
<path opacity="0.2" d="M90.1295 72.1431V73.4574C90.1295 74.9047 89.091 76.6232 87.8094 77.2954L61.2272 91.2472C59.9457 91.92 57.8911 91.8785 56.6377 91.1546L41.3071 82.3034C40.0536 81.58 39.0376 79.8201 39.0376 78.3728V77.0585C39.0376 75.6112 40.0777 73.8948 41.3603 73.2251L66.5187 60.0831C67.8013 59.4129 69.8906 59.395 71.1845 60.0427L87.7859 68.3496C89.0808 68.9978 90.1295 70.6958 90.1295 72.1431Z" fill="black"/>
<path opacity="0.2" d="M59.5199 91.7041C58.5034 91.788 57.4167 91.6028 56.6376 91.1556L41.3065 82.306C40.0556 81.579 39.0391 79.8216 39.0391 78.3753V77.058C39.0391 75.737 39.9021 74.1966 41.0307 73.4277C40.0837 74.1055 40.1748 75.0945 41.307 75.7478L56.6381 84.601C57.2812 84.9714 58.1335 85.1602 58.9828 85.1668L59.5199 91.7041Z" fill="black"/>
<path d="M61.2261 84.6926L87.8083 70.7402C89.0899 70.0675 89.0791 68.9977 87.7853 68.3501L71.1839 60.0432C69.8895 59.3955 67.8007 59.4139 66.5181 60.0836L41.3597 73.2256C40.0771 73.8958 40.053 75.0254 41.3065 75.7493L56.6371 84.6005C57.89 85.3234 59.9445 85.3648 61.2261 84.6926Z" fill="#58A4B0"/>
<path d="M61.2261 84.6926L87.8083 70.7402C89.0899 70.0675 89.0791 68.9977 87.7853 68.3501L71.1839 60.0432C69.8895 59.3955 67.8007 59.4139 66.5181 60.0836L41.3597 73.2256C40.0771 73.8958 40.053 75.0254 41.3065 75.7493L56.6371 84.6005C57.89 85.3234 59.9445 85.3648 61.2261 84.6926Z" fill="#58A4B0"/>
<path d="M53.23 20.3591C53.23 20.3591 57.1488 17.7049 61.281 20.091C65.4132 22.4766 64.0478 30.5016 63.6062 35.6728C63.1647 40.8441 63.0194 49.8569 66.64 53.1347C70.2606 56.4126 82.118 52.0558 87.2918 52.0558L82.7293 68.8787C77.6988 66.1386 69.6508 63.3258 62.8808 61.9844C62.8808 61.9844 63.1018 51.4961 58.2928 45.5058C58.2928 45.5058 60.0665 41.3101 58.9067 32.905C57.8334 25.1257 56.3814 22.1789 53.23 20.3591Z" fill="#58A4B0"/>
<path opacity="0.35" d="M53.23 20.3591C53.23 20.3591 57.1488 17.7049 61.281 20.091C65.4132 22.4766 64.0478 30.5016 63.6062 35.6728C63.1647 40.8441 63.0194 49.8569 66.64 53.1347C70.2606 56.4126 82.118 52.0558 87.2918 52.0558L82.7293 68.8787C77.6988 66.1386 69.6508 63.3258 62.8808 61.9844C62.8808 61.9844 63.1018 51.4961 58.2928 45.5058C58.2928 45.5058 60.0665 41.3101 58.9067 32.905C57.8334 25.1257 56.3814 22.1789 53.23 20.3591Z" fill="black"/>
<path d="M82.7292 68.8786C82.4954 67.375 81.5413 58.7172 83.1559 54.9488C84.5603 51.671 88.2463 51.4791 89.4051 52.8835C90.504 54.2152 89.5284 55.9899 87.6851 58.3954C86.1288 60.426 85.5686 62.3235 85.5686 67.24L82.7292 68.8786Z" fill="#58A4B0"/>
<path opacity="0.2" d="M82.7292 68.8786C82.4954 67.375 81.5413 58.7172 83.1559 54.9488C84.5603 51.671 88.2463 51.4791 89.4051 52.8835C90.504 54.2152 89.5284 55.9899 87.6851 58.3954C86.1288 60.426 85.5686 62.3235 85.5686 67.24L82.7292 68.8786Z" fill="black"/>
<g opacity="0.5">
<path d="M87.2897 53.4534C87.8187 53.4534 88.1968 53.6191 88.3237 53.7726C88.7319 54.2678 88.1917 55.4312 86.572 57.5451C84.856 59.7834 84.2519 61.971 84.1761 66.2127C84.1736 66.3467 84.1019 66.4705 83.9889 66.5355L83.8635 66.5953C83.5049 62.7149 83.4676 57.7626 84.4376 55.4992C85.0837 53.9905 86.3351 53.4534 87.2897 53.4534ZM87.2897 53.1039C86.223 53.1039 84.8294 53.6969 84.1163 55.3621C83.0337 57.8884 83.2067 63.2873 83.5157 66.6281C83.5336 66.822 83.6963 66.9524 83.8717 66.9524C83.9321 66.9524 83.994 66.9371 84.0518 66.9038L84.1639 66.8394C84.3849 66.712 84.5215 66.4751 84.5261 66.2203C84.6018 61.9884 85.1901 59.9241 86.8503 57.759C88.6572 55.401 89.1463 54.2213 88.5943 53.5516C88.3697 53.2794 87.8581 53.1039 87.2897 53.1039Z" fill="white"/>
</g>
<path d="M38.0511 81.8083L56.461 91.0529L56.0691 84.2717L58.9074 82.633C58.7033 77.3748 57.2621 71.981 53.5408 70.7854C48.8867 69.314 42.8463 68.8377 39.2257 65.5604C35.6051 62.2826 35.7504 53.2697 36.1919 48.0985C36.6334 42.9272 37.9989 34.9028 33.8667 32.5167C29.7345 30.1311 25.8156 32.7848 25.8156 32.7848C24.0491 33.9297 21.997 34.759 22.171 36.1506C22.2723 36.9589 22.7097 37.4194 23.427 37.5667L33.6999 76.4483C34.3148 78.7755 35.8993 80.7278 38.0511 81.8083Z" fill="#58A4B0"/>
<path opacity="0.5" d="M38.0511 81.8083L56.461 91.0529L56.0691 84.2717L58.9074 82.633C58.7033 77.3748 57.2621 71.981 53.5408 70.7854C48.8867 69.314 42.8463 68.8377 39.2257 65.5604C35.6051 62.2826 35.7504 53.2697 36.1919 48.0985C36.6334 42.9272 37.9989 34.9028 33.8667 32.5167C29.7345 30.1311 25.8156 32.7848 25.8156 32.7848C24.0491 33.9297 21.997 34.759 22.171 36.1506C22.2723 36.9589 22.7097 37.4194 23.427 37.5667L33.6999 76.4483C34.3148 78.7755 35.8993 80.7278 38.0511 81.8083Z" fill="black"/>
<path d="M31.1603 37.3114C32.8133 39.2893 33.6656 42.4315 33.3612 50.1531C33.0568 57.8747 33.1786 64.1003 36.2001 67.8836C39.7828 72.3703 52.0658 75.9454 52.0658 75.9454L56.8636 73.7506C56.0496 72.311 54.962 71.2412 53.5408 70.7849C48.8867 69.3135 42.8463 68.8372 39.2257 65.5599C35.6051 62.2821 35.7504 53.2692 36.1919 48.098C36.6334 42.9267 37.9989 34.9023 33.8667 32.5162C29.7345 30.1306 25.8156 32.7843 25.8156 32.7843C24.0491 33.9292 21.997 34.7585 22.171 36.1501C22.2723 36.9584 22.7097 37.4189 23.427 37.5662C25.7281 36.8101 29.5068 35.3336 31.1603 37.3114Z" fill="#58A4B0"/>
<path opacity="0.35" d="M31.1603 37.3114C32.8133 39.2893 33.6656 42.4315 33.3612 50.1531C33.0568 57.8747 33.1786 64.1003 36.2001 67.8836C39.7828 72.3703 52.0658 75.9454 52.0658 75.9454L56.8636 73.7506C56.0496 72.311 54.962 71.2412 53.5408 70.7849C48.8867 69.3135 42.8463 68.8372 39.2257 65.5599C35.6051 62.2821 35.7504 53.2692 36.1919 48.098C36.6334 42.9267 37.9989 34.9023 33.8667 32.5162C29.7345 30.1306 25.8156 32.7843 25.8156 32.7843C24.0491 33.9292 21.997 34.7585 22.171 36.1501C22.2723 36.9584 22.7097 37.4189 23.427 37.5662C25.7281 36.8101 29.5068 35.3336 31.1603 37.3114Z" fill="black"/>
<path d="M56.0684 84.2717L58.9067 82.633C58.9067 79.4867 58.0959 72.6471 54.1131 70.9941C50.9514 69.6819 49.4253 71.6106 49.4595 72.8006C49.4984 74.141 50.4648 75.024 52.0646 75.9459C54.1831 77.1661 56.0684 79.3552 56.0684 84.2717Z" fill="#58A4B0"/>
<path opacity="0.2" d="M56.0684 84.2717L58.9067 82.633C58.9067 79.4867 58.0959 72.6471 54.1131 70.9941C50.9514 69.6819 49.4253 71.6106 49.4595 72.8006C49.4984 74.141 50.4648 75.024 52.0646 75.9459C54.1831 77.1661 56.0684 79.3552 56.0684 84.2717Z" fill="black"/>
<g opacity="0.5">
<path d="M52.141 71.9514C52.5615 71.9514 53.045 72.0634 53.5786 72.285C56.2123 73.3777 57.3266 77.9013 57.4913 81.77C57.4928 81.811 57.4744 81.8468 57.4417 81.8657L57.3163 81.9383C56.8564 78.593 55.3656 76.2345 52.7641 74.7355C51.0288 73.7354 50.8702 73.1915 50.8579 72.7618C50.8579 72.7597 50.8712 72.5561 51.0896 72.3305C51.2569 72.1576 51.5762 71.9514 52.141 71.9514ZM52.141 71.602C51.4539 71.602 51.0533 71.8655 50.8384 72.087C50.5693 72.3643 50.5044 72.6549 50.508 72.77C50.5269 73.4217 50.8881 74.0572 52.5891 75.0379C55.163 76.521 56.6078 78.8867 57.0058 82.2694C57.0165 82.3594 57.0933 82.408 57.1603 82.408C57.1864 82.408 57.212 82.4008 57.2365 82.387L57.6161 82.1681C57.7614 82.0842 57.8474 81.9261 57.8402 81.7552C57.6709 77.779 56.4978 73.1179 53.7126 71.9622C53.136 71.7232 52.6076 71.602 52.141 71.602Z" fill="white"/>
</g>
<path d="M75.6375 114.911L33.0479 90.3218L129.435 34.6731L172.024 59.2621L75.6375 114.911Z" fill="#58A4B0"/>
<path opacity="0.8" d="M75.6365 114.911L33.0469 90.3218L129.434 34.673L172.023 59.262L75.6365 114.911Z" fill="white"/>
<path d="M33.0479 90.3219L33.0484 139.5L35.2897 140.794V135.617L73.3962 157.618V162.795L75.638 164.089L75.6375 114.911L33.0479 90.3219Z" fill="#58A4B0"/>
<path opacity="0.6" d="M33.0469 90.3219L33.0474 139.5L35.2887 140.794V135.617L73.3952 157.618V162.795L75.6371 164.089L75.6365 114.911L33.0469 90.3219Z" fill="white"/>
<path d="M35.2881 140.794L37.5299 139.5V136.911L35.2881 135.617V140.794Z" fill="#58A4B0"/>
<path d="M35.2886 140.794L37.5304 139.5V136.911L35.2886 135.617V140.794Z" fill="#58A4B0"/>
<path d="M75.6367 164.089L77.8781 162.795V157.618L169.781 104.557V109.734L172.023 108.44L172.023 59.2621L75.6362 114.911L75.6367 164.089Z" fill="#58A4B0"/>
<path opacity="0.7" d="M75.6367 164.089L77.8781 162.795V157.618L169.781 104.557V109.734L172.023 108.44L172.023 59.2621L75.6362 114.911L75.6367 164.089Z" fill="white"/>
<path d="M169.781 109.734L167.54 108.44L167.539 105.851L169.781 104.557V109.734Z" fill="#58A4B0"/>
<g opacity="0.2">
<path d="M108.724 62.8515L115.841 66.9519C116.105 67.1044 116.533 67.1044 116.797 66.9519L144.981 50.6805C145.245 50.5281 145.245 50.281 144.981 50.1285L137.865 46.027C137.601 45.8745 137.173 45.8745 136.909 46.027L108.724 62.2995C108.46 62.4519 108.46 62.699 108.724 62.8515Z" fill="black"/>
</g>
<g opacity="0.2">
<path d="M81.0649 71.6708L98.8389 81.9329C99.1152 82.0926 99.5634 82.0926 99.8396 81.9329L112.92 74.3807C113.196 74.2211 113.196 73.9627 112.92 73.8031L95.1462 63.5409C94.8699 63.3813 94.4218 63.3813 94.1455 63.5409L81.0655 71.0926C80.7882 71.2528 80.7882 71.5111 81.0649 71.6708Z" fill="black"/>
</g>
<path d="M81.0636 70.7448L98.8376 81.007C99.1139 81.1666 99.5621 81.1666 99.8383 81.007L112.919 73.4548C113.195 73.2951 113.195 73.0368 112.919 72.8772L95.1449 62.6155C94.8687 62.4559 94.4205 62.4559 94.1442 62.6155L81.0636 70.1672C80.7874 70.3268 80.7874 70.5857 81.0636 70.7448Z" fill="#EBEBEB"/>
<path d="M94.1443 62.6155L81.7231 69.7866L98.8377 79.6676C99.114 79.8273 99.5621 79.8273 99.8384 79.6676L112.26 72.4965L95.145 62.6155C94.8687 62.4559 94.4205 62.4559 94.1443 62.6155Z" fill="#E0E0E0"/>
<path d="M81.064 68.9378L98.838 79.1999C99.1142 79.3596 99.5624 79.3596 99.8386 79.1999L112.919 71.6482C113.195 71.4886 113.195 71.2297 112.919 71.0706L95.1452 60.8084C94.869 60.6488 94.4208 60.6488 94.1445 60.8084L81.0645 68.3607C80.7872 68.5198 80.7872 68.7786 81.064 68.9378Z" fill="#FAFAFA"/>
<g opacity="0.2">
<path d="M50.6425 90.1386C52.5677 91.2503 52.5677 93.0522 50.6425 94.1639C48.7174 95.2756 45.5956 95.2756 43.6704 94.1639C41.7453 93.0522 41.7453 91.2503 43.6704 90.1386C45.5961 89.0274 48.7174 89.0274 50.6425 90.1386Z" fill="black"/>
</g>
<path d="M50.0806 92.3667C51.6354 90.7803 52.5486 86.819 51.0322 85.5604H43.3162C41.7999 86.8184 42.7126 90.7777 44.2663 92.3652C44.2796 92.38 44.2949 92.3944 44.3087 92.4087C44.3267 92.4261 44.344 92.444 44.3625 92.4609C44.4065 92.5033 44.453 92.5448 44.5032 92.5857C44.5154 92.5959 44.5282 92.6052 44.5405 92.6149C44.5789 92.6445 44.6162 92.6747 44.6577 92.7034C44.7242 92.7505 44.7907 92.7939 44.8587 92.8318C46.1377 93.57 48.2112 93.57 49.4902 92.8318C49.5588 92.7939 49.6258 92.7499 49.6928 92.7024C49.7317 92.6758 49.7665 92.6476 49.8018 92.62C49.8171 92.6077 49.8325 92.5965 49.8478 92.5842C49.8959 92.5448 49.9409 92.5044 49.9834 92.4634C50.0044 92.444 50.0248 92.4235 50.0453 92.4031C50.0566 92.3908 50.0694 92.379 50.0806 92.3667Z" fill="#EBEBEB"/>
<path d="M43.9868 85.0535C42.2264 86.07 42.2264 87.7179 43.9868 88.7344C45.7472 89.751 48.602 89.751 50.3624 88.7344C52.1228 87.7179 52.1228 86.07 50.3624 85.0535C48.602 84.0369 45.7477 84.0369 43.9868 85.0535Z" fill="#FAFAFA"/>
<path d="M45.2346 85.7743C44.1633 86.3928 44.1633 87.3956 45.2346 88.0136C46.3059 88.6321 48.0423 88.6321 49.1136 88.0136C50.1849 87.3951 50.1849 86.3923 49.1136 85.7743C48.0428 85.1558 46.3059 85.1558 45.2346 85.7743Z" fill="#EBEBEB"/>
<path d="M49.1157 86.8374C48.0444 86.2189 46.308 86.2189 45.2368 86.8374C44.939 87.0093 44.7277 87.2109 44.5952 87.4258C44.7277 87.6401 44.939 87.8422 45.2368 88.0141C46.308 88.6326 48.0444 88.6326 49.1157 88.0141C49.4135 87.8422 49.6253 87.6406 49.7573 87.4258C49.6253 87.2109 49.4135 87.0088 49.1157 86.8374Z" fill="#E0E0E0"/>
<path d="M47.8758 87.6687C47.8758 87.6687 49.5534 86.7458 50.263 84.6651C50.9731 82.5845 50.5541 80.0705 49.9181 79.0319C49.0556 77.6225 46.9585 77.7831 47.5817 80.1339C48.2048 82.4847 48.5824 85.0366 47.6067 86.7412L47.8758 87.6687Z" fill="#58A4B0"/>
<g opacity="0.2">
<path d="M47.8758 87.6687C47.8758 87.6687 49.5534 86.7458 50.263 84.6651C50.9731 82.5845 50.5541 80.0705 49.9181 79.0319C49.0556 77.6225 46.9585 77.7831 47.5817 80.1339C48.2048 82.4847 48.5824 85.0366 47.6067 86.7412L47.8758 87.6687Z" fill="black"/>
</g>
<path d="M47.9485 87.2425C47.926 87.2425 47.903 87.2343 47.8851 87.218C47.8462 87.1827 47.8426 87.1228 47.8779 87.0839C49.4833 85.2954 49.7186 83.3145 49.6337 81.9679C49.5263 80.2643 48.8924 79.0344 48.6581 78.8318C48.6182 78.7975 48.6141 78.7377 48.6484 78.6978C48.6826 78.6579 48.743 78.6538 48.7824 78.6881C49.0991 78.9618 49.7176 80.2883 49.8235 81.9556C49.911 83.3385 49.6685 85.3731 48.0196 87.2108C48.0002 87.2323 47.9746 87.2425 47.9485 87.2425Z" fill="white"/>
<path d="M46.0768 87.6688C45.9704 87.4396 45.9238 87.3076 45.6946 87.1664C45.4797 87.0345 45.2383 86.9536 45.0024 86.8682C44.5875 86.7178 44.0549 86.4973 44.0012 85.9974C43.9823 85.8199 44.016 85.6403 44.0652 85.4684C44.1337 85.2285 44.2309 84.9707 44.1373 84.7394C44.0467 84.5159 43.8088 84.3972 43.6068 84.2652C43.398 84.1286 43.1765 83.9541 43.0486 83.7362C42.934 83.5423 42.866 83.3161 42.8854 83.0916C42.9258 82.626 43.3714 82.3206 43.3842 81.8576C43.4026 81.1838 41.8274 80.2696 42.668 79.6337C43.7444 78.8197 45.4281 79.7626 45.912 80.4548C46.3965 81.1465 46.3934 81.457 47.2744 82.0443C48.005 82.5314 48.8681 82.6311 48.8681 83.5878C48.8681 84.5445 47.6377 84.5905 48.6066 85.6772C49.1888 86.33 48.228 86.8938 47.8766 87.6688C47.1665 88.1421 46.4073 87.9205 46.0768 87.6688Z" fill="#58A4B0"/>
<path d="M47.0492 87.9466C47.0482 87.9466 47.0466 87.9466 47.0456 87.9466C46.9929 87.9446 46.9525 87.9006 46.954 87.8479C47.1663 82.2781 44.3316 80.3207 43.7647 80.1662C43.7141 80.1524 43.6844 80.1002 43.6982 80.0496C43.712 79.9994 43.7652 79.9703 43.8149 79.983C44.7741 80.2445 47.3444 82.5963 47.1443 87.855C47.1423 87.9067 47.0998 87.9466 47.0492 87.9466Z" fill="white"/>
<path d="M46.4972 83.7944C46.4747 83.7944 46.4522 83.7868 46.4343 83.7704C45.6126 83.0439 44.0052 83.0644 43.9883 83.0644C43.9361 83.0649 43.8926 83.0235 43.8916 82.9713C43.8906 82.9186 43.9325 82.8756 43.9847 82.8746C44.0538 82.8741 45.6838 82.8541 46.5601 83.6282C46.5995 83.6629 46.6031 83.7228 46.5683 83.7622C46.5494 83.7837 46.5233 83.7944 46.4972 83.7944Z" fill="white"/>
<g opacity="0.2">
<path d="M96.5564 96.4738C96.5912 96.5316 96.5682 96.6012 96.4868 96.6477L79.711 106.335C79.6532 106.37 79.578 106.382 79.5022 106.382C79.427 106.388 79.3457 106.37 79.2935 106.335L55.8699 92.8138C55.8295 92.7908 55.8065 92.7616 55.7947 92.733C55.7773 92.6926 55.7829 92.6521 55.8177 92.6173C55.8234 92.6117 55.8295 92.6 55.8407 92.5943C55.8464 92.5826 55.8581 92.5769 55.8699 92.5713L72.6458 82.8893C72.7619 82.8197 72.9527 82.8197 73.0627 82.8893L96.4863 96.4109C96.492 96.4165 96.5037 96.4226 96.5093 96.4283L96.515 96.4339C96.538 96.4457 96.5554 96.4569 96.5672 96.4804C96.5677 96.4794 96.562 96.4738 96.5564 96.4738Z" fill="black"/>
</g>
<path d="M56.6602 91.6248V92.0289C56.6602 92.1563 56.7497 92.3113 56.8602 92.3748L79.3307 105.348C79.4412 105.412 79.6202 105.412 79.7302 105.348L95.8272 96.0547C95.9377 95.9907 96.0272 95.8362 96.0272 95.7083V95.3037C96.0272 95.1763 95.9377 95.0213 95.8272 94.9573L73.3567 81.9842C73.2462 81.9207 73.0672 81.9207 72.9572 81.9842L56.8602 91.2779C56.7497 91.3423 56.6602 91.4974 56.6602 91.6248Z" fill="#58A4B0"/>
<path opacity="0.4" d="M95.8529 94.9767C95.9353 95.0402 95.9266 95.1323 95.8263 95.1896L79.7293 104.483C79.6746 104.516 79.603 104.531 79.5298 104.531L79.5293 105.398C79.6019 105.397 79.6731 105.381 79.7288 105.349L95.8258 96.0557C95.9363 95.9918 96.0258 95.8367 96.0258 95.7094L96.0263 95.3047C96.0258 95.1886 95.9506 95.0479 95.8529 94.9767Z" fill="white"/>
<path opacity="0.15" d="M56.8275 91.3015C56.8234 91.3035 56.8204 91.3066 56.8173 91.3096C56.8117 91.3137 56.8061 91.3178 56.8009 91.3235C56.7989 91.3255 56.7963 91.3275 56.7943 91.3291C56.7851 91.3378 56.7769 91.3465 56.7677 91.3562L56.7656 91.3603C56.7129 91.4217 56.6751 91.501 56.6633 91.5762C56.6602 91.5926 56.6592 91.6089 56.6587 91.6248L56.6582 92.0295C56.6592 92.1568 56.7477 92.3114 56.8582 92.3753L79.3292 105.349C79.3845 105.381 79.4571 105.397 79.5293 105.398L79.5298 104.531C79.4571 104.532 79.3845 104.516 79.3292 104.484L56.8582 91.5097C56.8188 91.4872 56.7933 91.4595 56.7825 91.4309C56.7687 91.394 56.7764 91.3547 56.8066 91.3209C56.8127 91.3142 56.8199 91.3076 56.8275 91.3015Z" fill="black"/>
<path d="M62.7446 85.8759C62.7431 86.2386 63.2495 86.6187 63.3887 86.941C63.401 86.9692 63.4107 86.9958 63.4184 87.0224C63.3488 87.2511 63.1375 87.4097 63.093 87.5626C63.0817 87.5995 63.0771 87.6337 63.0766 87.667C63.0761 87.7248 63.0766 87.9366 63.0766 87.9719C63.0766 88.0394 63.0935 88.1044 63.1058 88.1842C63.0961 88.2497 63.0802 88.3229 63.0531 88.4073C62.9999 88.5771 62.9789 88.6994 62.9794 88.7894C62.9794 88.8421 62.9799 89.0386 62.9799 89.0857C62.9789 89.2606 63.0562 89.3159 63.1314 89.3594L64.0328 89.8802L70.7777 85.9849V85.6851L69.8768 85.1648C69.8026 85.1218 69.7111 85.0783 69.4225 85.0773C69.4041 85.0773 69.3836 85.0773 69.3632 85.0768C69.2122 85.0793 69.0137 85.0926 68.7467 85.1203C68.2397 85.1729 67.9573 85.1571 67.7306 85.1433C67.638 85.1376 67.5557 85.1325 67.4697 85.133C67.4104 85.133 67.35 85.1351 67.2835 85.1417C66.8957 85.1801 66.49 85.4231 65.7108 85.3167C65.7037 85.3157 65.694 85.3147 65.6868 85.3131C65.1333 85.2333 64.4794 84.9432 63.8537 84.9412C63.8328 84.9407 63.8128 84.9412 63.7913 84.9417C63.5468 84.9489 63.3058 85.0026 63.0776 85.1341C62.8351 85.2742 62.7456 85.4226 62.7446 85.5746C62.7436 85.6278 62.7446 85.8283 62.7446 85.8759ZM63.7683 86.0846C63.801 86.0253 63.8543 85.9716 63.931 85.927C63.9811 85.8984 64.0374 85.8743 64.0988 85.8564C64.4472 85.7551 64.9562 85.8247 65.3333 86.0427C65.517 86.1486 65.6392 86.2734 65.6965 86.3962C65.6638 86.455 65.6111 86.5087 65.5344 86.5527C65.3133 86.6806 64.9593 86.7001 64.6176 86.6233C64.4462 86.585 64.2784 86.5226 64.1305 86.4371C63.9469 86.3317 63.8251 86.2074 63.7683 86.0846Z" fill="#263238"/>
<path d="M69.4224 85.0778C69.404 85.0778 69.3835 85.0778 69.3631 85.0773C69.2121 85.0799 69.0136 85.0932 68.7466 85.1208C68.2396 85.1735 67.9572 85.1576 67.7305 85.1438C67.638 85.1382 67.5551 85.1331 67.4696 85.1336C67.4103 85.1336 67.3499 85.1356 67.2834 85.1423C66.8956 85.1807 66.4899 85.4237 65.7108 85.3173C65.7036 85.3162 65.6939 85.3152 65.6867 85.3137C65.1332 85.2339 64.4793 84.9438 63.8536 84.9417C63.8327 84.9412 63.8127 84.9417 63.7912 84.9422C63.5467 84.9494 63.3057 85.0031 63.0775 85.1346C62.2539 85.6109 63.1911 86.1839 63.3891 86.6413C63.5881 87.0997 63.1589 87.3365 63.0929 87.5627C63.0233 87.7888 63.2095 87.9111 63.053 88.4073C62.898 88.9031 63.0167 88.9941 63.1313 89.0601L64.0327 89.5804L70.7776 85.6851L69.8767 85.1648C69.8025 85.1218 69.711 85.0788 69.4224 85.0778ZM64.3663 88.8693C64.2788 88.9199 64.113 88.9061 63.9954 88.8386C63.8787 88.7711 63.8531 88.6744 63.9411 88.6237C64.0301 88.5726 64.1954 88.5869 64.3126 88.6549C64.4292 88.7225 64.4553 88.8186 64.3663 88.8693ZM65.5343 86.5533C65.3132 86.6812 64.9592 86.7006 64.6175 86.6239C64.4461 86.5855 64.2783 86.5231 64.1304 86.4377C63.6874 86.1819 63.5989 85.8196 63.9309 85.6273C63.981 85.5986 64.0373 85.5746 64.0987 85.5567C64.4471 85.4554 64.9561 85.5255 65.3332 85.7429C65.7762 85.9992 65.8663 86.3614 65.5343 86.5533ZM69.5708 85.8642C69.4818 85.9153 69.316 85.9015 69.1993 85.834C69.0817 85.7659 69.0581 85.6703 69.1472 85.6196C69.2347 85.569 69.4004 85.5828 69.5181 85.6503C69.6347 85.7178 69.6583 85.8135 69.5708 85.8642Z" fill="#37474F"/>
<path d="M78.9039 103.071L92.9109 94.984C92.9769 94.9456 93.0307 94.853 93.0307 94.7763V94.6202C93.0307 94.544 92.9769 94.4509 92.9109 94.4125L74.4043 83.7278C74.3383 83.6894 74.2309 83.6894 74.1644 83.7278L60.1573 91.8146C60.0913 91.853 60.0376 91.9461 60.0376 92.0223V92.1789C60.0376 92.2556 60.0913 92.3482 60.1573 92.3866L78.6634 103.071C78.7304 103.11 78.8379 103.11 78.9039 103.071Z" fill="#F5F5F5"/>
<path d="M83.8555 97.0305L88.6926 94.2371L88.8671 94.3379L84.0299 97.1312L83.8555 97.0305Z" fill="#E0E0E0"/>
<path d="M78.0503 100.381L82.888 97.5886L83.0624 97.6893L78.2247 100.482L78.0503 100.381Z" fill="#E0E0E0"/>
<path d="M92.9402 94.4351C92.975 94.4725 92.9658 94.52 92.9111 94.5518L78.9034 102.639C78.8702 102.658 78.8267 102.668 78.7832 102.667L78.7827 103.1C78.8262 103.101 78.8702 103.091 78.9029 103.071L92.9105 94.9846C92.977 94.9472 93.0308 94.8536 93.0303 94.7774L93.0308 94.6208C93.0308 94.5553 92.9924 94.4791 92.9402 94.4351Z" fill="#FAFAFA"/>
<path d="M60.1328 91.834C60.121 91.8433 60.1102 91.854 60.1 91.8663C60.0954 91.8724 60.0908 91.8791 60.0862 91.8847C60.0724 91.9046 60.0611 91.9266 60.0519 91.9492C60.0463 91.964 60.0422 91.9788 60.0402 91.9937C60.0386 92.0034 60.0381 92.0136 60.0381 92.0233L60.0376 92.1789C60.0381 92.2556 60.0913 92.3482 60.1573 92.3866L78.6634 103.071C78.6972 103.091 78.7402 103.101 78.7831 103.1L78.7836 102.667C78.7402 102.667 78.6967 102.657 78.6639 102.639L60.1578 91.9543C60.1015 91.9215 60.0929 91.8714 60.1328 91.834Z" fill="#E0E0E0"/>
<path d="M79.8824 98.1969C79.8374 98.2475 79.8998 98.3156 79.9336 98.3631C79.9366 98.4455 79.9105 98.5309 79.8804 98.6051C79.8599 98.6563 79.8379 98.7289 79.7709 98.7678C79.7023 98.8077 79.6102 98.7525 79.5627 98.7238C79.5448 98.7131 79.5033 98.7177 79.4972 98.7325C79.4854 98.7611 79.4962 98.7898 79.4921 98.8179C79.4598 98.8092 79.4332 98.7842 79.4148 98.7704C79.3887 98.7509 79.3616 98.731 79.3217 98.7207C79.3002 98.7151 79.2695 98.7182 79.2624 98.733C79.2434 98.7704 79.2639 98.8164 79.2731 98.8537C79.2838 98.8988 79.3084 98.954 79.2879 98.9985C79.2644 99.0492 79.1815 98.9735 79.1651 98.955C79.1278 98.9146 79.1053 98.8706 79.0761 98.8282C79.0644 98.8113 79.0045 98.8169 79.0071 98.8364C79.0152 98.8962 79.0076 98.9581 79.0019 99.018C78.9938 99.105 78.9805 99.1924 78.9472 99.2779C78.9349 99.3091 78.8986 99.417 78.8203 99.4145C78.7768 99.4129 78.7487 99.3858 78.7308 99.3592C78.7364 99.3326 78.7415 99.306 78.7456 99.2804C78.7656 99.153 78.8132 99.0118 78.7456 98.8865C78.7313 98.8599 78.7108 98.8358 78.6796 98.8144C78.6653 98.8041 78.6336 98.8087 78.6203 98.8164C78.5497 98.8568 78.5497 98.9233 78.5538 98.977C78.5579 99.0308 78.5758 99.084 78.5855 99.1377C78.5957 99.1945 78.6044 99.2518 78.6269 99.3075C78.6341 99.3254 78.6428 99.3449 78.6546 99.3638C78.6362 99.4421 78.608 99.5198 78.5497 99.592C78.4903 99.6657 78.3138 99.8033 78.168 99.7102C78.0611 99.6416 78.0238 99.5337 77.9941 99.4462C77.9849 99.4186 77.9788 99.3904 77.9711 99.3623C78.0447 99.2886 78.1051 99.2103 78.1506 99.131C78.1911 99.0604 78.2039 98.9816 78.2187 98.9085C78.2366 98.8169 78.2566 98.7166 78.2228 98.6256C78.2136 98.6 78.1972 98.5693 78.1547 98.5555C78.1092 98.5412 78.057 98.5555 78.0217 98.5734C77.9312 98.6205 77.9153 98.7044 77.9025 98.7704C77.8856 98.8584 77.8723 98.9463 77.8682 99.0349C77.8626 99.1525 77.878 99.2712 77.9092 99.3879C77.8345 99.4585 77.748 99.525 77.6483 99.5848C77.6411 99.5889 77.6575 99.5986 77.6646 99.5945C77.7593 99.5408 77.8427 99.48 77.9158 99.415C77.9163 99.416 77.9163 99.4165 77.9163 99.4175C77.945 99.5168 77.9808 99.6288 78.0847 99.7127C78.124 99.7445 78.1798 99.771 78.2494 99.7751C78.3379 99.7803 78.4213 99.7501 78.4827 99.7158C78.6182 99.6406 78.6796 99.5316 78.7129 99.4221C78.7216 99.4272 78.7308 99.4319 78.7415 99.4354C78.8505 99.4748 78.938 99.4186 78.9769 99.3633C79.0362 99.2784 79.0541 99.1827 79.0674 99.0922C79.0746 99.0446 79.0807 98.996 79.0828 98.9474C79.0951 98.9627 79.1079 98.9776 79.1237 98.9919C79.1636 99.0282 79.2485 99.0722 79.3243 99.0364C79.3862 99.0072 79.3642 98.9387 79.3565 98.8993C79.3504 98.8681 79.3411 98.8369 79.335 98.8057C79.333 98.7944 79.3299 98.7832 79.3289 98.7709C79.3887 98.8067 79.4225 98.8599 79.5284 98.8532C79.5432 98.8522 79.557 98.8466 79.5606 98.8379C79.5698 98.8174 79.5668 98.7964 79.5652 98.776C79.622 98.8026 79.6895 98.8231 79.7607 98.8103C79.8681 98.7908 79.9049 98.7131 79.9325 98.6578C79.9643 98.5939 79.9863 98.5284 79.997 98.4619C80.0328 98.5192 80.0676 98.577 80.1014 98.6348C80.2103 98.8215 80.2881 99.0139 80.3551 99.2068C80.393 99.3147 80.4283 99.4232 80.4682 99.5306C80.4759 99.5511 80.5449 99.5475 80.5393 99.527C80.4677 99.2861 80.3899 99.0446 80.2763 98.8087C80.2185 98.6885 80.1469 98.5713 80.0738 98.4542C80.0512 98.4184 80.0282 98.3831 80.0047 98.3473C80.0021 98.2936 79.9888 98.2403 79.953 98.1907C79.9418 98.1754 79.8937 98.1846 79.8824 98.1969ZM77.9353 99.1597C77.9281 99.0748 77.9296 98.9898 77.9383 98.9049C77.945 98.8379 77.9496 98.7688 77.9711 98.7028C77.9859 98.6573 78.0187 98.58 78.1118 98.5683C78.1599 98.5621 78.1773 98.5939 78.1865 98.6148C78.2238 98.6972 78.2069 98.7903 78.1931 98.8742C78.1798 98.9545 78.166 99.0384 78.1271 99.1162C78.0898 99.1909 78.0289 99.2656 77.9639 99.3341C77.9506 99.2758 77.9399 99.218 77.9353 99.1597ZM78.6643 99.1684C78.6551 99.1188 78.6423 99.0691 78.6336 99.0195C78.6254 98.974 78.6111 98.908 78.6484 98.8614C78.6899 98.9054 78.6981 98.9617 78.7011 99.0098C78.7052 99.0742 78.6955 99.1387 78.6842 99.2032C78.6822 99.2139 78.6807 99.2247 78.6786 99.2359C78.6735 99.2134 78.6684 99.1909 78.6643 99.1684Z" fill="#37474F"/>
<path d="M81.4564 97.2494C81.439 97.2361 81.392 97.2443 81.392 97.2606C81.3915 97.2811 81.4078 97.298 81.4293 97.3138C81.4314 97.3154 81.4339 97.3174 81.436 97.3189C81.4472 97.3471 81.4482 97.3778 81.4477 97.4044C81.4472 97.4571 81.4355 97.5098 81.4232 97.562C81.4175 97.5855 81.414 97.6095 81.4058 97.6331C81.4017 97.6448 81.3961 97.6551 81.3894 97.6663C81.3884 97.6679 81.3843 97.6725 81.3812 97.674C81.3613 97.673 81.3342 97.6566 81.3193 97.6505C81.2897 97.6377 81.26 97.6254 81.2267 97.6157C81.2073 97.6101 81.1658 97.6126 81.1679 97.63C81.174 97.6796 81.193 97.7344 81.1704 97.7835C81.1664 97.7922 81.1612 97.805 81.1449 97.807C81.1275 97.8091 81.0973 97.7819 81.0876 97.7748C81.061 97.7553 81.0369 97.7349 80.9975 97.7236C80.9781 97.718 80.9484 97.7252 80.9469 97.7379C80.9438 97.7676 80.9576 97.7983 80.9638 97.828C80.9679 97.8464 80.9924 97.917 80.9576 97.9293C80.931 97.939 80.8947 97.9017 80.8655 97.8582C80.8666 97.8173 80.8614 97.7681 80.8052 97.7405C80.7878 97.7318 80.7489 97.7369 80.7479 97.7518C80.7458 97.786 80.7678 97.8239 80.7929 97.8572C80.7929 97.8592 80.7929 97.8618 80.7929 97.8643C80.7919 97.9119 80.7806 97.959 80.7663 98.0055C80.7448 98.0756 80.7238 98.1672 80.6374 98.2214C80.579 98.2582 80.512 98.2327 80.4532 98.1907C80.4823 98.0961 80.4757 97.9973 80.4476 97.9032C80.402 97.7507 80.2956 97.5942 80.094 97.4878C80.0823 97.4816 80.0603 97.4796 80.048 97.4868C79.9979 97.5134 80.005 97.5614 80.0112 97.5967C80.0204 97.6484 80.0434 97.6991 80.068 97.7492C80.1227 97.8602 80.1764 97.9728 80.2603 98.0782C80.2879 98.113 80.3376 98.1713 80.402 98.2153C80.3887 98.2572 80.3698 98.2987 80.3427 98.3381C80.3381 98.3447 80.3606 98.3534 80.3672 98.3462C80.3974 98.3109 80.4199 98.2741 80.4363 98.2368C80.4962 98.2695 80.5662 98.2869 80.643 98.2639C80.7678 98.226 80.8016 98.1176 80.8267 98.0454C80.8405 98.0065 80.8502 97.9666 80.8568 97.9272C80.8845 97.9492 80.9208 97.9666 80.9689 97.9615C81.0773 97.9492 81.0425 97.851 81.0236 97.784C81.0436 97.7998 81.0625 97.8167 81.0886 97.8275C81.1275 97.8433 81.1822 97.8428 81.2134 97.8203C81.2467 97.7963 81.2482 97.7594 81.2487 97.7303C81.2492 97.7093 81.2467 97.6883 81.2441 97.6673C81.284 97.6853 81.3255 97.7042 81.3705 97.7073C81.4661 97.7134 81.4769 97.6377 81.4856 97.6003C81.4994 97.54 81.5148 97.4796 81.5183 97.4187C81.5188 97.409 81.5188 97.3988 81.5188 97.3885L81.5199 97.3895C81.5756 97.4417 81.6227 97.4965 81.6667 97.5517C81.7296 97.6305 81.7895 97.7113 81.8299 97.7952C81.7424 97.8157 81.6662 97.8515 81.6109 97.9022C81.5347 97.9718 81.439 98.1483 81.6488 98.1754C81.8406 98.1999 81.9378 98.0736 81.9476 97.9851C81.9537 97.9283 81.9404 97.872 81.9169 97.8167C81.9731 97.8085 82.034 97.8065 82.099 97.8132C82.1404 97.8172 82.1583 97.786 82.1118 97.7809C82.0391 97.7733 81.9675 97.7743 81.9005 97.783C81.8775 97.7374 81.8488 97.6929 81.8181 97.65C81.7741 97.5886 81.726 97.5272 81.6734 97.4683C81.6391 97.43 81.6017 97.3926 81.5603 97.3563C81.546 97.3435 81.5245 97.3297 81.505 97.3149C81.4963 97.2903 81.4815 97.2683 81.4564 97.2494ZM80.3125 98.0516C80.2409 97.9605 80.1928 97.8643 80.1421 97.7692C80.1176 97.7226 80.094 97.676 80.0792 97.628C80.07 97.5993 80.0516 97.5497 80.0766 97.5185C80.2537 97.6193 80.3514 97.7625 80.3954 97.9017C80.4215 97.9851 80.4307 98.0741 80.4148 98.161C80.3667 98.1191 80.3278 98.0715 80.3125 98.0516ZM81.811 98.1022C81.769 98.1339 81.6795 98.161 81.6263 98.1222C81.5695 98.0812 81.6048 98.0111 81.6329 97.9677C81.6754 97.9017 81.7511 97.8546 81.8468 97.829C81.8816 97.9139 81.9082 98.0291 81.811 98.1022Z" fill="#37474F"/>
<path d="M84.2392 95.8776C84.2085 95.8955 84.2028 95.9288 84.1967 95.9523C84.1808 96.0116 84.1634 96.0746 84.1624 96.1365C84.1358 96.1129 84.1031 96.0925 84.058 96.0797C84.0427 96.0756 84.0192 96.0751 84.0069 96.0832C83.9793 96.1017 83.9629 96.1247 83.9532 96.1498C83.9097 96.1012 83.8483 96.0664 83.7644 96.0843C83.6636 96.1058 83.6293 96.1856 83.6119 96.2393C83.6032 96.2659 83.5986 96.2925 83.5945 96.3196C83.5638 96.249 83.5342 96.1784 83.5111 96.1063C83.4718 95.984 83.4324 95.8602 83.3341 95.7487C83.2784 95.6852 83.1597 95.5804 83.0195 95.6484C82.9617 95.6765 82.93 95.721 82.9023 95.7604C82.8681 95.809 82.8445 95.8602 82.8312 95.9119C82.8246 95.9374 82.8205 95.9635 82.8174 95.9896C82.7616 95.961 82.7043 95.9334 82.6496 95.9037C82.6343 95.8955 82.5979 95.9006 82.6184 95.9129C82.6808 95.9508 82.7504 95.9855 82.8154 96.0224C82.8108 96.0996 82.8184 96.1779 82.8333 96.2546C82.8486 96.3339 82.8614 96.4168 82.9039 96.493C82.9167 96.5156 82.9335 96.5452 82.9714 96.5575C83.0103 96.5703 83.0522 96.5601 83.0783 96.5411C83.2037 96.4521 83.1638 96.3119 83.1075 96.2127C83.064 96.1354 82.9801 96.0781 82.8849 96.0254C82.8896 95.9103 82.9243 95.7957 83.0287 95.6995C83.0451 95.6847 83.0696 95.6627 83.1029 95.6602C83.1423 95.6571 83.1776 95.6801 83.1991 95.696C83.2436 95.7292 83.2758 95.7707 83.3039 95.8096C83.3761 95.9093 83.4073 96.0167 83.4416 96.1221C83.4753 96.2265 83.5229 96.3283 83.5679 96.4311C83.572 96.4409 83.5761 96.4506 83.5807 96.4603C83.5715 96.5549 83.5592 96.6532 83.6257 96.7427C83.6375 96.7586 83.6912 96.7534 83.6963 96.7371C83.7235 96.6435 83.6928 96.5473 83.6539 96.4557C83.6544 96.4501 83.6549 96.4444 83.6554 96.4393C83.6616 96.3657 83.6631 96.291 83.6928 96.2188C83.7061 96.1861 83.726 96.1421 83.7751 96.1206C83.8125 96.1042 83.8416 96.1278 83.8616 96.1457C83.9035 96.183 83.9322 96.2285 83.9491 96.2741C83.9532 96.2905 83.9578 96.3068 83.9629 96.3212C83.9706 96.3421 84.0396 96.3375 84.0355 96.316C84.034 96.3073 84.0309 96.2971 84.0273 96.2848C84.0212 96.2608 84.0171 96.2367 84.0171 96.2127C84.0171 96.1835 84.0207 96.1472 84.0458 96.1196C84.1225 96.1549 84.1522 96.2214 84.1926 96.2705C84.2079 96.2894 84.2724 96.2787 84.2601 96.2572C84.2115 96.1692 84.2417 96.0735 84.2612 95.984C84.2663 95.9599 84.2775 95.9364 84.2852 95.9129C84.3057 95.9339 84.3179 95.9579 84.3246 95.9819C84.3389 96.0331 84.3471 96.0838 84.365 96.1349C84.3839 96.1881 84.407 96.2408 84.4325 96.2935C84.4822 96.3964 84.5374 96.4982 84.6034 96.5974C84.6755 96.7069 84.7584 96.8169 84.8827 96.91C84.896 96.9197 84.9446 96.9161 84.9303 96.9008C84.8316 96.7903 84.7323 96.6818 84.6571 96.5647C84.5814 96.446 84.5159 96.3247 84.4642 96.2019C84.4397 96.1431 84.4182 96.0838 84.4064 96.0234C84.3972 95.9774 84.389 95.9236 84.3379 95.8858C84.3123 95.8658 84.2698 95.8592 84.2392 95.8776ZM82.9873 96.1426C83.0737 96.228 83.1193 96.3493 83.0788 96.4465C83.0696 96.4685 83.0563 96.4905 83.0374 96.5099C83.0313 96.5161 83.0226 96.5217 83.0164 96.5278C83.0149 96.5294 83.0139 96.5304 83.0128 96.5309C82.9842 96.5196 82.9719 96.4849 82.9637 96.4675C82.9315 96.3999 82.9202 96.3283 82.9075 96.2592C82.8957 96.1968 82.886 96.1303 82.8849 96.0638C82.9228 96.0879 82.9581 96.1134 82.9873 96.1426Z" fill="#37474F"/>
<path d="M86.0665 95.3035C85.9912 95.2917 85.913 95.2999 85.846 95.3204C85.8183 95.2912 85.7846 95.2631 85.7513 95.238C85.6827 95.1853 85.6065 95.1347 85.5206 95.0912C85.5016 95.0815 85.4433 95.0871 85.4535 95.1071C85.4894 95.1741 85.5078 95.2467 85.5155 95.3163C85.519 95.3496 85.5242 95.39 85.5016 95.4222C85.4796 95.4524 85.4377 95.4329 85.4029 95.4181C85.387 95.4115 85.3471 95.415 85.3446 95.4289C85.342 95.4422 85.362 95.4995 85.343 95.5061C85.3241 95.5128 85.2571 95.4667 85.2371 95.4606C85.2244 95.4565 85.1911 95.456 85.1901 95.4688C85.1885 95.4969 85.2177 95.5399 85.1977 95.5685C85.1691 95.5542 85.142 95.5389 85.1179 95.5225C85.1041 95.5128 85.0519 95.5107 85.0601 95.5296C85.0709 95.5542 85.0816 95.5782 85.0888 95.6033C85.0944 95.6212 85.1154 95.6729 85.0872 95.6877C85.0755 95.6939 85.0673 95.6867 85.0535 95.679C85.0381 95.6703 85.0253 95.6601 85.0115 95.6504C84.9875 95.6335 84.964 95.6161 84.9297 95.6059C84.9133 95.6008 84.8811 95.6043 84.8801 95.6176C84.877 95.657 84.8887 95.6969 84.8918 95.7363C84.8939 95.7588 84.8949 95.7813 84.8918 95.8039C84.8898 95.8192 84.8887 95.8499 84.8637 95.8596C84.7808 95.8919 84.6565 95.6678 84.6381 95.6376C84.6299 95.6238 84.5746 95.6212 84.5818 95.6386C84.6048 95.699 84.6376 95.7583 84.6514 95.8202C84.6647 95.878 84.679 95.9676 84.5608 95.9921C84.5414 95.9962 84.5664 96.0106 84.5813 96.008C84.702 95.9875 84.7169 95.9082 84.7092 95.8458C84.7082 95.8356 84.7051 95.8253 84.7025 95.8151C84.7378 95.8525 84.7961 95.899 84.8765 95.8878C84.9547 95.877 84.9563 95.8136 84.9573 95.7767C84.9583 95.7363 84.9486 95.6964 84.9455 95.6565C84.9962 95.6918 85.0509 95.7425 85.1246 95.7123C85.1691 95.6944 85.1645 95.6575 85.1594 95.6304C85.1563 95.6141 85.1522 95.5972 85.1461 95.5803C85.1578 95.5869 85.1691 95.5936 85.1809 95.6002C85.1911 95.6059 85.2131 95.6069 85.2249 95.6023C85.276 95.5808 85.2709 95.546 85.2602 95.5128C85.2898 95.5312 85.3216 95.5465 85.3712 95.5342C85.4213 95.522 85.4177 95.4923 85.4142 95.4647C85.4546 95.4749 85.4991 95.4775 85.5364 95.459C85.5835 95.4355 85.5881 95.3925 85.5896 95.3593C85.5927 95.2979 85.5804 95.2334 85.5579 95.1715C85.5876 95.1899 85.6162 95.2094 85.6434 95.2288C85.6935 95.2646 85.7447 95.304 85.7815 95.346C85.758 95.3577 85.7365 95.3705 85.7191 95.3854C85.671 95.4263 85.6613 95.5076 85.7754 95.5143C85.8756 95.5204 85.913 95.4524 85.8992 95.4063C85.8935 95.3884 85.8833 95.3705 85.8705 95.3536C85.9206 95.3363 85.9785 95.3291 86.0363 95.3378C86.0777 95.3429 86.1151 95.3107 86.0665 95.3035ZM85.825 95.4514C85.8122 95.4785 85.7779 95.4877 85.762 95.4565C85.7482 95.4289 85.7764 95.4017 85.8101 95.3813C85.8112 95.3828 85.8127 95.3849 85.8137 95.3864C85.826 95.4069 85.8352 95.4304 85.825 95.4514Z" fill="#37474F"/>
<path d="M86.1038 93.8716C86.136 93.9749 86.1744 94.0778 86.202 94.1816C86.2296 94.2865 86.2486 94.3919 86.2619 94.4973C86.2752 94.6027 86.2782 94.7081 86.2961 94.8135C86.2961 94.8145 86.2966 94.815 86.2966 94.816C86.2445 94.7464 86.1954 94.6763 86.1288 94.6103C86.0613 94.5438 85.9764 94.4763 85.8725 94.4267C85.7943 94.3893 85.697 94.3781 85.6131 94.4165C85.5738 94.4344 85.5436 94.4584 85.52 94.4845C85.5159 94.484 85.5119 94.483 85.5078 94.4824C85.4745 94.4794 85.4402 94.4794 85.4065 94.4784C85.3737 94.4773 85.3169 94.4794 85.2913 94.4651C85.277 94.4569 85.2428 94.4605 85.2612 94.4733C85.3128 94.5096 85.4228 94.4978 85.4939 94.5055C85.4965 94.506 85.4991 94.5065 85.5016 94.5065C85.4796 94.5372 85.4653 94.5694 85.4571 94.6006C85.4392 94.6682 85.4397 94.7429 85.4873 94.8063C85.5205 94.8503 85.5871 94.9015 85.6802 94.8989C85.7902 94.8958 85.8475 94.8216 85.8556 94.7669C85.8679 94.6835 85.7989 94.5935 85.6924 94.5377C85.6607 94.5213 85.6234 94.5065 85.5835 94.4957C85.5993 94.4784 85.6178 94.462 85.6413 94.4482C85.7221 94.4006 85.7989 94.4328 85.8654 94.4727C85.9523 94.5249 86.026 94.5827 86.0864 94.6462C86.1549 94.7183 86.204 94.7956 86.2624 94.8703C86.2813 94.8943 86.3012 94.9194 86.3186 94.9449C86.3192 94.9516 86.3207 94.9577 86.3212 94.9644C86.3232 95.0022 86.3207 95.0427 86.3678 95.0723C86.3877 95.0846 86.4312 95.078 86.4327 95.0606C86.4368 95.0196 86.4169 94.9792 86.3908 94.9398C86.3908 94.9388 86.3908 94.9373 86.3908 94.9373C86.3836 94.8825 86.3708 94.8283 86.3626 94.7741C86.3473 94.6707 86.3447 94.5674 86.3304 94.464C86.3038 94.2671 86.2711 94.0588 86.1488 93.8726C86.1432 93.8639 86.0997 93.8578 86.1038 93.8716ZM85.7605 94.66C85.7973 94.7209 85.8111 94.7991 85.7298 94.8508C85.6561 94.8979 85.5819 94.8339 85.5538 94.7955C85.5139 94.7413 85.5103 94.6774 85.5226 94.6196C85.5298 94.5868 85.5425 94.552 85.5645 94.5203C85.6587 94.5474 85.7267 94.6052 85.7605 94.66Z" fill="#37474F"/>
<path d="M88.3137 94.083C88.1925 93.9049 88.0948 93.7156 87.8958 93.5601C87.8779 93.5463 87.818 93.5494 87.8247 93.5714C87.8507 93.6578 87.908 93.7448 87.8988 93.8338C87.8963 93.8573 87.8922 93.885 87.8666 93.9044C87.8472 93.9193 87.8175 93.9274 87.7945 93.9402C87.7663 93.9561 87.7571 93.974 87.7551 93.9929C87.7274 93.974 87.7029 93.953 87.6696 93.9372C87.6522 93.929 87.6047 93.93 87.6031 93.9479C87.6001 93.9832 87.6093 94.0185 87.6123 94.0538C87.6144 94.0722 87.6231 94.1136 87.6072 94.1387C87.5448 94.0998 87.5039 94.0512 87.4624 94.0047C87.4471 93.9873 87.3985 93.9965 87.3903 94.0118C87.3683 94.0538 87.3918 94.1096 87.3964 94.1525C87.3995 94.1807 87.4026 94.2088 87.3995 94.237C87.3985 94.2477 87.3985 94.2871 87.3765 94.2922C87.3821 94.2907 87.3657 94.2871 87.3591 94.284C87.3458 94.2768 87.3366 94.2671 87.3284 94.2579C87.3054 94.2323 87.2911 94.2047 87.2793 94.1766C87.2593 94.13 87.2394 94.0784 87.2409 94.0298C87.2414 94.0057 87.1673 94.0067 87.1667 94.0277C87.1642 94.1617 87.1928 94.2958 87.1734 94.4293C87.1637 94.4979 87.1427 94.5669 87.0926 94.6299C87.069 94.6595 87.0388 94.6877 87.001 94.7122C86.9662 94.7347 86.9038 94.7736 86.848 94.7787C86.7974 94.7833 86.7892 94.7332 86.7825 94.7122C86.7708 94.6733 86.76 94.634 86.7539 94.5946C86.7503 94.5726 86.7482 94.5511 86.7472 94.5291C86.8956 94.4196 86.9468 94.2825 86.9155 94.1413C86.9079 94.1065 86.8807 94.02 86.7846 94.0507C86.7488 94.062 86.737 94.0896 86.7293 94.1106C86.7175 94.1438 86.714 94.1781 86.7109 94.2119C86.7032 94.2968 86.6792 94.3812 86.6751 94.4661C86.6741 94.4876 86.6751 94.5091 86.6756 94.5306C86.6577 94.5439 86.6388 94.5567 86.6188 94.569C86.6009 94.5802 86.647 94.591 86.6628 94.5823C86.6684 94.5792 86.673 94.5756 86.6792 94.572C86.6812 94.5915 86.6833 94.6109 86.6874 94.6304C86.6966 94.6733 86.7037 94.7194 86.7273 94.7608C86.7738 94.8422 86.9063 94.8074 86.9923 94.767C87.0956 94.7184 87.1621 94.6513 87.2005 94.5782C87.2537 94.4774 87.2578 94.3725 87.2522 94.2676C87.2624 94.2794 87.2747 94.2902 87.289 94.2999C87.3294 94.3275 87.4051 94.3362 87.445 94.3029C87.4885 94.2671 87.4763 94.2088 87.4727 94.1679C87.4706 94.1443 87.4676 94.1208 87.4645 94.0973C87.4957 94.1275 87.5315 94.1561 87.5776 94.1786C87.5924 94.1858 87.6128 94.1858 87.6292 94.1802C87.685 94.1612 87.6865 94.1167 87.687 94.084C87.6875 94.0574 87.6819 94.0303 87.6783 94.0032C87.7049 94.0221 87.7321 94.041 87.7699 94.0538C87.7934 94.0615 87.8308 94.0533 87.8298 94.0364C87.8287 94.0139 87.8165 93.9883 87.839 93.9684C87.8569 93.952 87.8917 93.9433 87.9147 93.9295C87.9638 93.8998 87.9725 93.8573 87.9735 93.818C87.9746 93.7699 87.9597 93.7233 87.9413 93.6767C88.0411 93.7791 88.1076 93.8926 88.1792 94.0021C88.1997 94.0333 88.2217 94.0651 88.2431 94.0963C88.1383 94.1254 88.0605 94.1955 88.016 94.2574C87.9817 94.3055 87.9556 94.3572 87.9485 94.4088C87.9408 94.4672 87.9531 94.5383 88.0063 94.5889C88.0641 94.6437 88.1848 94.6621 88.283 94.6319C88.3797 94.6022 88.4319 94.5393 88.4509 94.4794C88.4892 94.3556 88.4104 94.2277 88.3322 94.1131C88.3577 94.1106 88.3854 94.1106 88.4145 94.1147C88.4442 94.1188 88.459 94.0973 88.4283 94.0911C88.3884 94.0819 88.3501 94.0799 88.3137 94.083ZM86.7667 94.307C86.7774 94.2533 86.7784 94.1996 86.7897 94.1459C86.7922 94.1326 86.7958 94.1193 86.8015 94.1065C86.805 94.0978 86.8148 94.0886 86.8194 94.0799C86.8219 94.0819 86.8245 94.0845 86.826 94.086C86.8352 94.0973 86.8393 94.1106 86.8434 94.1229C86.8623 94.1827 86.8639 94.2477 86.8495 94.3076C86.8352 94.3669 86.7994 94.4211 86.7482 94.4702C86.7493 94.416 86.7559 94.3613 86.7667 94.307ZM88.3721 94.3265C88.3895 94.3807 88.3961 94.437 88.3741 94.4907C88.3537 94.5403 88.2948 94.6114 88.191 94.612C88.06 94.6125 88.0359 94.5148 88.0272 94.458C88.0211 94.4165 88.0293 94.3766 88.0472 94.3362C88.0774 94.2676 88.1475 94.1658 88.2657 94.127C88.3091 94.1919 88.3496 94.2579 88.3721 94.3265Z" fill="#37474F"/>
<path d="M75.5945 86.1935L75.7572 86.2877C75.8457 86.3388 75.8457 86.4212 75.7572 86.4723L64.5127 92.9651C64.4242 93.0162 64.2815 93.0162 64.193 92.9651L64.0298 92.8709C63.9413 92.8198 63.9413 92.7374 64.0298 92.6862L75.2747 86.194C75.3632 86.1424 75.506 86.1424 75.5945 86.1935Z" fill="#E0E0E0"/>
<path d="M76.5784 86.7603L76.741 86.8545C76.8296 86.9056 76.8296 86.988 76.741 87.0392L65.4966 93.5319C65.4081 93.583 65.2654 93.583 65.1768 93.5319L65.0136 93.4377C64.9251 93.3866 64.9251 93.3042 65.0136 93.2531L76.2586 86.7608C76.3466 86.7097 76.4898 86.7097 76.5784 86.7603Z" fill="#E0E0E0"/>
<path d="M77.5535 87.3247L77.7161 87.4188C77.8047 87.47 77.8047 87.5523 77.7161 87.6035L66.4717 94.0957C66.3832 94.1469 66.2405 94.1469 66.1519 94.0957L65.9887 94.0016C65.9002 93.9504 65.9002 93.868 65.9887 93.8169L77.2337 87.3247C77.3217 87.2735 77.4649 87.2735 77.5535 87.3247Z" fill="#E0E0E0"/>
<path d="M79.7185 88.5747L79.8812 88.6688C79.9697 88.72 79.9697 88.8023 79.8812 88.8535L68.6367 95.3462C68.5482 95.3974 68.4055 95.3974 68.317 95.3462L68.1538 95.2521C68.0653 95.2009 68.0653 95.1186 68.1538 95.0674L79.3987 88.5752C79.4867 88.5235 79.63 88.5235 79.7185 88.5747Z" fill="#E0E0E0"/>
<path d="M80.7004 89.1419L80.8631 89.236C80.9516 89.2872 80.9516 89.3695 80.8631 89.4207L69.6187 95.9134C69.5302 95.9646 69.3874 95.9646 69.2989 95.9134L69.1357 95.8193C69.0472 95.7681 69.0472 95.6858 69.1357 95.6346L80.3807 89.1424C80.4692 89.0907 80.6119 89.0907 80.7004 89.1419Z" fill="#E0E0E0"/>
<path d="M81.677 89.7057L81.8397 89.7998C81.9282 89.851 81.9282 89.9334 81.8397 89.9845L70.5952 96.4772C70.5067 96.5284 70.364 96.5284 70.2755 96.4772L70.1123 96.3831C70.0238 96.3319 70.0238 96.2496 70.1123 96.1984L81.3572 89.7062C81.4457 89.6551 81.5885 89.6551 81.677 89.7057Z" fill="#E0E0E0"/>
<path d="M83.8396 90.9556L84.0023 91.0497C84.0908 91.1009 84.0908 91.1832 84.0023 91.2344L72.7578 97.7271C72.6693 97.7783 72.5266 97.7783 72.4381 97.7271L72.2749 97.633C72.1864 97.5818 72.1864 97.4995 72.2749 97.4483L83.5198 90.9561C83.6083 90.9049 83.7511 90.9049 83.8396 90.9556Z" fill="#E0E0E0"/>
<path d="M84.8235 91.5229L84.9862 91.6171C85.0747 91.6682 85.0747 91.7506 84.9862 91.8017L73.7417 98.2945C73.6532 98.3456 73.5105 98.3456 73.422 98.2945L73.2588 98.2003C73.1703 98.1492 73.1703 98.0668 73.2588 98.0156L84.5037 91.5234C84.5917 91.4718 84.735 91.4718 84.8235 91.5229Z" fill="#E0E0E0"/>
<path d="M85.7981 92.0873L85.9608 92.1814C86.0493 92.2326 86.0493 92.3149 85.9608 92.3661L74.7163 98.8588C74.6278 98.91 74.4851 98.91 74.3966 98.8588L74.2334 98.7647C74.1449 98.7135 74.1449 98.6311 74.2334 98.58L85.4783 92.0878C85.5663 92.0361 85.7096 92.0361 85.7981 92.0873Z" fill="#E0E0E0"/>
<path d="M64.9077 89.8786C64.9077 89.9302 64.9077 90.1313 64.9077 90.1804C64.9077 90.3231 64.9671 90.4587 65.0653 90.5922L73.3189 85.8292V85.5295C73.0677 85.4005 72.7879 85.3284 72.5137 85.3269C72.5101 85.3269 72.5065 85.3269 72.5029 85.3269C72.3116 85.3274 72.1233 85.3637 71.954 85.4404C71.3559 85.7121 71.181 85.7975 70.8146 85.952C70.7169 85.9935 70.4366 86.0288 70.2529 85.8717C70.2473 85.8686 70.2447 85.8645 70.2401 85.861L69.993 85.6343L69.3249 85.0153C69.3249 85.0153 69.2415 84.914 69.0082 84.9145C69.0026 84.9145 68.9974 84.9145 68.9918 84.9145C68.9453 84.9155 68.8936 84.9206 68.8342 84.9314C68.6629 84.9626 68.4045 84.9605 68.1487 84.9212C67.8556 84.8766 67.5655 84.7835 67.4048 84.6367C67.1158 84.3717 66.684 84.23 66.2558 84.229C66.2445 84.2285 66.2328 84.2285 66.222 84.2285C65.9524 84.2315 65.6859 84.2909 65.4602 84.4101C65.0602 84.6208 64.8873 84.9652 64.9614 85.3013C64.9046 85.5596 64.9952 85.839 65.2484 86.0712C65.3518 86.1659 65.4086 86.2907 65.4321 86.4232C65.407 86.5762 65.3477 86.7164 65.271 86.8069C65.2034 86.8867 65.1819 86.9543 65.1819 87.0075C65.1819 87.0781 65.1819 87.2628 65.1819 87.3078C65.1819 87.406 65.2556 87.4577 65.2556 87.4577L66.0291 88.1667L66.2762 88.3934C66.2865 88.4026 66.2947 88.4118 66.3023 88.4215C66.2747 88.4706 66.2461 88.5029 66.2461 88.5029L65.2474 89.282C65.0065 89.5005 64.9077 89.6954 64.9077 89.8786ZM67.1117 85.3529C67.0677 85.4722 66.971 85.5806 66.8216 85.6589C66.5684 85.7919 66.2358 85.8037 65.955 85.7095C65.8312 85.6671 65.716 85.6036 65.625 85.5202C65.5472 85.4491 65.495 85.3703 65.4659 85.2895C65.5099 85.1698 65.6076 85.0613 65.7575 84.9826C65.7943 84.9631 65.8327 84.9457 65.8721 84.9314C66.2297 84.804 66.6876 84.8792 66.9521 85.1212C67.0298 85.1923 67.0825 85.2716 67.1117 85.3529Z" fill="#37474F"/>
<path d="M72.5128 85.3274C72.5092 85.3274 72.5056 85.3274 72.502 85.3274C72.3107 85.3279 72.1224 85.3642 71.9531 85.441C71.355 85.7126 71.1801 85.7981 70.8138 85.9526C70.716 85.994 70.4357 86.0293 70.252 85.8723C70.2464 85.8692 70.2438 85.8651 70.2392 85.8615L69.9921 85.6349L69.324 85.0158C69.324 85.0158 69.2406 84.9145 69.0073 84.9151C69.0017 84.9151 68.9965 84.9151 68.9909 84.9151C68.9444 84.9161 68.8927 84.9212 68.8333 84.9319C68.662 84.9632 68.4036 84.9611 68.1478 84.9217C67.8547 84.8772 67.5646 84.7841 67.4039 84.6373C67.1149 84.3723 66.6831 84.2305 66.2549 84.2295C66.2436 84.229 66.2319 84.229 66.2211 84.229C65.9515 84.2321 65.685 84.2914 65.4593 84.4106C64.8644 84.7247 64.7687 85.3336 65.2475 85.772C65.5494 86.0488 65.4614 86.5808 65.2701 86.807C65.0792 87.0346 65.2547 87.1584 65.2547 87.1584L66.0282 87.8675L66.2753 88.0941C66.4611 88.2635 66.2452 88.5029 66.2452 88.5029L65.2465 89.2821C64.8158 89.6709 64.8393 89.9871 65.0639 90.2925L73.3175 85.5295C73.0668 85.4011 72.7865 85.3289 72.5128 85.3274ZM66.9512 84.8214C67.2448 85.0911 67.188 85.4655 66.8212 85.6584C66.568 85.7914 66.2354 85.8032 65.9546 85.7091C65.8308 85.6666 65.7157 85.6032 65.6246 85.5198C65.3309 85.2502 65.3887 84.8752 65.7566 84.6828C65.7934 84.6634 65.8318 84.646 65.8712 84.6316C66.2288 84.5042 66.6867 84.5795 66.9512 84.8214Z" fill="#455A64"/>
<path opacity="0.2" d="M84.7677 85.9998L96.9919 93.0634L99.0808 93.4886C99.134 93.4993 99.1759 93.443 99.1498 93.3949L98.4955 92.1952L86.2693 85.1306C85.8574 84.8927 84.4449 85.813 84.7677 85.9998Z" fill="black"/>
<path d="M86.1151 83.9504C86.1366 83.9545 86.1571 83.9622 86.176 83.9719L86.0588 83.9049C86.0522 83.9008 86.0445 83.8972 86.0373 83.8941L86.0327 83.8921C86.0251 83.888 86.0174 83.8854 86.0102 83.8824L85.9985 83.8788C85.9923 83.8767 85.9862 83.8747 85.979 83.8732L85.9468 83.8675C85.9355 83.866 85.9238 83.8655 85.9125 83.8655H85.9105C85.8348 83.8655 85.7498 83.8895 85.6598 83.9422C85.3508 84.1208 85.1001 84.5551 85.1001 84.9122C85.1001 84.9634 85.1047 85.0094 85.1154 85.0514C85.117 85.0596 85.119 85.0677 85.1216 85.0764C85.1221 85.081 85.1236 85.0856 85.1257 85.0902C85.1282 85.0995 85.1318 85.1082 85.1354 85.1174C85.1477 85.1491 85.163 85.1767 85.1814 85.2008C85.1855 85.2069 85.1906 85.2125 85.1947 85.2171C85.1953 85.2187 85.1963 85.2192 85.1973 85.2197C85.2024 85.2253 85.207 85.2299 85.2116 85.235C85.2193 85.2427 85.2275 85.2504 85.2367 85.2565C85.2433 85.2611 85.25 85.2662 85.2566 85.2703C85.2592 85.2719 85.2613 85.2729 85.2643 85.2749L85.3989 85.3517C85.3769 85.3394 85.3559 85.3235 85.338 85.3041C85.4291 85.3256 85.5401 85.3056 85.6598 85.2361C85.9693 85.0575 86.2205 84.6232 86.2205 84.2661C86.2195 84.1259 86.1806 84.019 86.1151 83.9504ZM85.2868 85.2862C85.2899 85.2877 85.293 85.2893 85.2966 85.2908C85.2935 85.2898 85.2904 85.2877 85.2868 85.2862Z" fill="#58A4B0"/>
<path d="M97.8535 90.7129L97.0636 92.086L96.93 92.0087L85.3991 85.3513C85.3771 85.339 85.3561 85.3232 85.3382 85.3037C85.2732 85.2357 85.2349 85.1287 85.2349 84.9886C85.2349 84.6315 85.4861 84.1971 85.7956 84.0186C85.8851 83.9664 85.9705 83.9418 86.0457 83.9418C86.0703 83.9418 86.0938 83.9444 86.1169 83.95C86.1383 83.9541 86.1588 83.9618 86.1777 83.9715C86.1813 83.973 86.1844 83.9751 86.1875 83.9766L86.191 83.9787C86.191 83.9787 86.1916 83.9792 86.1926 83.9792L97.8535 90.7129Z" fill="#F0F0F0"/>
<path d="M97.4567 90.7516C97.7662 90.573 98.0169 90.7178 98.0169 91.0749C98.0169 91.432 97.7662 91.8664 97.4567 92.0449C97.1472 92.2235 96.8965 92.0787 96.8965 91.7216C96.897 91.3645 97.1477 90.9306 97.4567 90.7516Z" fill="#58A4B0"/>
<path d="M98.6595 91.584C98.6555 91.5784 98.6503 91.5732 98.6457 91.5681L97.931 90.7823C97.931 90.7823 97.9305 90.7808 97.9295 90.7803L97.9239 90.7741C97.9198 90.769 97.9152 90.7644 97.9106 90.7598L97.9029 90.7516L97.9024 90.7521C97.8001 90.6539 97.6379 90.6457 97.4547 90.7516C97.1452 90.9302 96.8945 91.3645 96.8945 91.7216C96.8945 91.9288 96.9795 92.0639 97.1104 92.1063L97.1099 92.1069L97.1186 92.1084C97.1319 92.112 97.1452 92.115 97.159 92.1171L97.1677 92.1191L97.1703 92.1196L98.2063 92.3458C98.2579 92.3575 98.3199 92.3453 98.3869 92.3064C98.5639 92.2046 98.7076 91.9564 98.7076 91.7523C98.7092 91.6797 98.6913 91.6234 98.6595 91.584Z" fill="#E0E0E0"/>
<path d="M89.5058 86.4839C89.5053 86.4823 89.5037 86.4818 89.5022 86.4818L89.4838 86.4711C89.4495 86.4557 89.404 86.4608 89.3533 86.4895C89.2438 86.5529 89.1543 86.7079 89.1543 86.8348C89.1543 86.8906 89.1717 86.932 89.2003 86.9545L89.2009 86.955L89.2249 86.9689L97.7364 91.8828L98.2961 91.5594L89.5058 86.4839Z" fill="#455A64"/>
<path d="M96.9468 91.427L97.7372 91.8833L98.2969 91.56L97.2271 90.942C97.1028 91.0786 97.0031 91.2515 96.9468 91.427Z" fill="#37474F"/>
<path d="M98.9384 91.9575L98.9389 91.957L98.2907 91.2443C98.2851 91.2377 98.2795 91.2305 98.2733 91.2249C98.2012 91.1527 98.0856 91.1466 97.9536 91.2223C97.7351 91.3482 97.5576 91.6556 97.5576 91.9078C97.5576 92.0537 97.6165 92.1493 97.7085 92.18C97.7111 92.1805 97.7126 92.181 97.7147 92.1821L97.7408 92.1877L98.6913 92.3949L98.6918 92.3944C98.721 92.401 98.7563 92.3944 98.7942 92.3724C98.8939 92.3151 98.9742 92.1754 98.9742 92.0603C98.9748 92.0143 98.9609 91.9795 98.9384 91.9575Z" fill="#58A4B0"/>
<path opacity="0.1" d="M98.9384 91.9575L98.9389 91.957L98.2907 91.2443C98.2851 91.2377 98.2795 91.2305 98.2733 91.2249C98.2012 91.1527 98.0856 91.1466 97.9536 91.2223C97.7351 91.3482 97.5576 91.6556 97.5576 91.9078C97.5576 92.0537 97.6165 92.1493 97.7085 92.18C97.7111 92.1805 97.7126 92.181 97.7147 92.1821L97.7408 92.1877L98.6913 92.3949L98.6918 92.3944C98.721 92.401 98.7563 92.3944 98.7942 92.3724C98.8939 92.3151 98.9742 92.1754 98.9742 92.0603C98.9748 92.0143 98.9609 91.9795 98.9384 91.9575Z" fill="black"/>
<path d="M98.9741 92.0608C98.9741 92.1754 98.8933 92.3151 98.7935 92.3729C98.7556 92.3944 98.7203 92.4016 98.6917 92.3944L98.6912 92.3949L98.2108 92.29C98.1351 92.2737 98.0854 92.2026 98.0854 92.0885C98.0854 91.9048 98.2144 91.6807 98.3735 91.5892C98.4676 91.5344 98.5515 91.539 98.6042 91.5897L98.617 91.604L98.9383 91.957L98.9378 91.9575C98.9603 91.9795 98.9741 92.0143 98.9741 92.0608Z" fill="#58A4B0"/>
<path opacity="0.1" d="M98.9265 92.2419C98.9969 92.12 98.9968 91.9882 98.9264 91.9475C98.8559 91.9068 98.7417 91.9726 98.6714 92.0945C98.601 92.2163 98.6011 92.3481 98.6715 92.3888C98.742 92.4295 98.8562 92.3637 98.9265 92.2419Z" fill="black"/>
<path d="M87.3836 85.2597C87.3478 85.2382 87.2982 85.2418 87.2429 85.2735C87.1334 85.3369 87.0444 85.4904 87.0449 85.6168C87.0449 85.6807 87.0669 85.7257 87.1032 85.7457L89.1977 86.9546C89.1686 86.9321 89.1517 86.8907 89.1517 86.8349C89.1517 86.708 89.2412 86.553 89.3507 86.4896C89.4008 86.4604 89.4464 86.4558 89.4812 86.4711L87.3836 85.2597Z" fill="#FAFAFA"/>
<path d="M87.4414 85.3881C87.4414 85.5144 87.3524 85.6679 87.2429 85.7314C87.1887 85.7626 87.1396 85.7656 87.1043 85.7452C87.0679 85.7252 87.0449 85.6812 87.0449 85.6168C87.0444 85.4904 87.1329 85.3369 87.2429 85.2735C87.2982 85.2418 87.3478 85.2382 87.3836 85.2597C87.4194 85.2807 87.4414 85.3252 87.4414 85.3881Z" fill="#F5F5F5"/>
<path d="M86.9993 84.5398L86.9998 84.5393L86.9937 84.5357C86.9906 84.5341 86.9881 84.5321 86.985 84.5306L86.1588 84.0537C86.1526 84.0496 86.146 84.0461 86.1393 84.0425L86.1347 84.0399C86.0447 83.9959 85.925 84.0067 85.793 84.0829C85.5147 84.2435 85.2891 84.6344 85.2891 84.9557C85.2891 85.1174 85.3464 85.2304 85.4384 85.2826L86.2749 85.7656C86.2765 85.7666 86.278 85.7671 86.2795 85.7681L86.2846 85.7707L86.2851 85.7702C86.3757 85.8183 86.4985 85.8096 86.6341 85.7313C86.9124 85.5706 87.138 85.1798 87.138 84.8585C87.137 84.705 87.0848 84.595 86.9993 84.5398Z" fill="#58A4B0"/>
<path opacity="0.05" d="M86.9993 84.5398L86.9998 84.5393L86.9937 84.5357C86.9906 84.5341 86.9881 84.5321 86.985 84.5306L86.1588 84.0537C86.1526 84.0496 86.146 84.0461 86.1393 84.0425L86.1347 84.0399C86.0447 83.9959 85.925 84.0067 85.793 84.0829C85.5147 84.2435 85.2891 84.6344 85.2891 84.9557C85.2891 85.1174 85.3464 85.2304 85.4384 85.2826L86.2749 85.7656C86.2765 85.7666 86.278 85.7671 86.2795 85.7681L86.2846 85.7707L86.2851 85.7702C86.3757 85.8183 86.4985 85.8096 86.6341 85.7313C86.9124 85.5706 87.138 85.1798 87.138 84.8585C87.137 84.705 87.0848 84.595 86.9993 84.5398Z" fill="black"/>
<path opacity="0.1" d="M86.6328 84.5685C86.9111 84.4078 87.1368 84.5383 87.1368 84.8596C87.1368 85.1808 86.9111 85.5717 86.6328 85.7323C86.3545 85.893 86.1289 85.763 86.1289 85.4412C86.1289 85.12 86.3545 84.7291 86.6328 84.5685Z" fill="black"/>
<path d="M99.2069 92.2578L98.8652 92.0526C98.8483 92.0419 98.8247 92.0424 98.7981 92.0577C98.747 92.0874 98.7061 92.159 98.7061 92.2179C98.7061 92.2475 98.7163 92.268 98.7332 92.2777L99.0739 92.4839C99.0928 92.4941 99.1143 92.5003 99.1373 92.5003C99.21 92.5003 99.2688 92.4414 99.2688 92.3688C99.2678 92.3217 99.2437 92.2808 99.2069 92.2578Z" fill="#455A64"/>
<path d="M99.2271 92.2732L99.2266 92.2726C99.221 92.2675 99.2148 92.2624 99.2082 92.2583C99.2082 92.2583 99.2077 92.2578 99.2066 92.2578C99.1908 92.2517 99.1698 92.2552 99.1473 92.268C99.0961 92.2977 99.0547 92.3688 99.0547 92.4282C99.0547 92.4573 99.0644 92.4773 99.0808 92.487C99.0828 92.4885 99.0859 92.4896 99.0879 92.4906C99.09 92.4921 99.0946 92.4937 99.0946 92.4937C99.1079 92.4993 99.1217 92.5008 99.1371 92.5008C99.2092 92.5008 99.268 92.4415 99.268 92.3693C99.268 92.3305 99.2527 92.2967 99.2271 92.2732Z" fill="#263238"/>
<path opacity="0.2" d="M128.398 77.1676L156.794 60.7728C157.105 60.5938 157.608 60.5938 157.918 60.7728L158.903 61.3412C159.214 61.5203 159.214 61.8109 158.903 61.9899L130.507 78.3847C130.197 78.5637 129.694 78.5637 129.383 78.3847L128.398 77.8163C128.088 77.6372 128.088 77.3466 128.398 77.1676Z" fill="black"/>
<path d="M109.592 61.4927V61.3024C109.592 60.9975 109.806 60.6271 110.07 60.4746L138.255 44.2022C138.519 44.0497 138.947 44.0497 139.211 44.2022L144.979 47.5332C145.243 47.6857 145.457 48.0561 145.457 48.361V48.5508C145.457 48.8557 145.243 49.2261 144.979 49.3785L116.795 65.651C116.531 65.8035 116.103 65.8035 115.839 65.651L110.07 62.3205C109.806 62.168 109.592 61.7971 109.592 61.4927Z" fill="#58A4B0"/>
<g opacity="0.5">
<path d="M109.592 61.4927V61.3024C109.592 60.9975 109.806 60.6271 110.07 60.4746L138.255 44.2022C138.519 44.0497 138.947 44.0497 139.211 44.2022L144.979 47.5332C145.243 47.6857 145.457 48.0561 145.457 48.361V48.5508C145.457 48.8557 145.243 49.2261 144.979 49.3785L116.795 65.651C116.531 65.8035 116.103 65.8035 115.839 65.651L110.07 62.3205C109.806 62.168 109.592 61.7971 109.592 61.4927Z" fill="black"/>
</g>
<path d="M110.069 61.0261L115.838 64.3566C116.102 64.509 116.53 64.509 116.794 64.3566L144.978 48.0852C145.242 47.9327 145.242 47.6856 144.978 47.5331L139.21 44.2021C138.946 44.0497 138.518 44.0497 138.254 44.2021L110.069 60.4746C109.805 60.627 109.805 60.8741 110.069 61.0261Z" fill="#58A4B0"/>
<g opacity="0.2">
<path d="M110.069 61.0261L115.838 64.3566C116.102 64.509 116.53 64.509 116.794 64.3566L144.978 48.0852C145.242 47.9327 145.242 47.6856 144.978 47.5331L139.21 44.2021C138.946 44.0497 138.518 44.0497 138.254 44.2021L110.069 60.4746C109.805 60.627 109.805 60.8741 110.069 61.0261Z" fill="black"/>
</g>
<path d="M156.709 54.2328L158.726 29.7742C158.789 29.014 158.337 28.1074 157.717 27.7498C157.098 27.3917 156.06 27.4112 155.399 27.7928L128.614 43.2569C127.954 43.6386 127.367 44.5641 127.304 45.3243L125.287 69.7829C125.224 70.5431 125.676 71.4497 126.296 71.8073C126.916 72.1649 127.954 72.1459 128.615 71.7643L155.399 56.3002C156.06 55.9185 156.647 54.993 156.709 54.2328Z" fill="#58A4B0"/>
<path opacity="0.5" d="M156.709 54.2328L158.726 29.7742C158.789 29.014 158.337 28.1074 157.717 27.7498C157.098 27.3917 156.06 27.4112 155.399 27.7928L128.614 43.2569C127.954 43.6386 127.367 44.5641 127.304 45.3243L125.287 69.7829C125.224 70.5431 125.676 71.4497 126.296 71.8073C126.916 72.1649 127.954 72.1459 128.615 71.7643L155.399 56.3002C156.06 55.9185 156.647 54.993 156.709 54.2328Z" fill="black"/>
<path d="M156.707 54.2327L158.725 29.7741C158.787 29.0139 158.336 28.1073 157.716 27.7497C157.096 27.3921 156.058 27.411 155.397 27.7927L128.612 43.2568C128.286 43.4451 127.978 43.7669 127.742 44.1357L131.905 46.5392V69.8636L155.397 56.3005C156.059 55.9184 156.645 54.9929 156.707 54.2327Z" fill="#58A4B0"/>
<path opacity="0.2" d="M156.707 54.2327L158.725 29.7741C158.787 29.0139 158.336 28.1073 157.716 27.7497C157.096 27.3921 156.058 27.411 155.397 27.7927L128.612 43.2568C128.286 43.4451 127.978 43.7669 127.742 44.1357L131.905 46.5392V69.8636L155.397 56.3005C156.059 55.9184 156.645 54.9929 156.707 54.2327Z" fill="black"/>
<path d="M127.532 71.0781L129.55 46.6196C129.613 45.8593 130.199 44.9339 130.859 44.5522L157.644 29.0881C158.305 28.7064 158.79 29.0139 158.727 29.7741L156.709 54.2327C156.647 54.9929 156.06 55.9184 155.4 56.3001L128.615 71.7642C127.954 72.1453 127.469 71.8384 127.532 71.0781Z" fill="#58A4B0"/>
<path opacity="0.35" d="M127.532 71.0781L129.55 46.6196C129.613 45.8593 130.199 44.9339 130.859 44.5522L157.644 29.0881C158.305 28.7064 158.79 29.0139 158.727 29.7741L156.709 54.2327C156.647 54.9929 156.06 55.9184 155.4 56.3001L128.615 71.7642C127.954 72.1453 127.469 71.8384 127.532 71.0781Z" fill="black"/>
<path d="M141.354 51.4532C141.458 50.2008 142.335 48.7258 143.314 48.1585C144.293 47.5911 145.003 48.1467 144.9 49.3986C144.797 50.651 143.919 52.1259 142.94 52.6933C141.961 53.2606 141.251 52.7056 141.354 51.4532Z" fill="#58A4B0"/>
<path d="M141.986 58.8482L148.571 55.0225L147.449 54.3743L140.868 58.2021L141.986 58.8482Z" fill="#58A4B0"/>
<g opacity="0.2">
<path d="M141.986 58.8482L148.571 55.0225L147.449 54.3743L140.868 58.2021L141.986 58.8482Z" fill="black"/>
</g>
<path d="M151.626 66.2496L143.608 70.8796C143.464 70.9624 143.277 71.0013 143.095 70.9957C142.94 70.9901 142.779 70.9517 142.658 70.8852C142.653 70.8852 142.653 70.8796 142.647 70.8796L139.116 68.8408C139.111 68.8352 139.106 68.8352 139.1 68.8296C138.84 68.6751 138.641 68.3159 138.641 68.0121V67.8243C138.641 67.5204 138.851 67.3935 139.116 67.548L141.249 68.7748L141.725 69.0511L141.62 68.5098L140.868 58.2026L141.986 58.8503L148.573 55.0251L152.002 65.4326C152.056 65.7303 151.891 66.1002 151.626 66.2496Z" fill="#58A4B0"/>
<g opacity="0.45">
<path d="M151.626 66.2496L143.608 70.8796C143.464 70.9624 143.277 71.0013 143.095 70.9957C142.94 70.9901 142.779 70.9517 142.658 70.8852C142.653 70.8852 142.653 70.8796 142.647 70.8796L139.116 68.8408C139.111 68.8352 139.106 68.8352 139.1 68.8296C138.84 68.6751 138.641 68.3159 138.641 68.0121V67.8243C138.641 67.5204 138.851 67.3935 139.116 67.548L141.249 68.7748L141.725 69.0511L141.62 68.5098L140.868 58.2026L141.986 58.8503L148.573 55.0251L152.002 65.4326C152.056 65.7303 151.891 66.1002 151.626 66.2496Z" fill="black"/>
</g>
<path d="M138.788 67.5092L141.523 65.9304L142.078 69.6103L138.788 67.5092Z" fill="#58A4B0"/>
<path opacity="0.5" d="M138.788 67.5092L141.523 65.9304L142.078 69.6103L138.788 67.5092Z" fill="black"/>
<path d="M141.986 58.8498L140.868 58.2021L141.62 68.5094C141.681 68.8076 141.509 68.9294 141.249 68.7744L139.116 67.5475C138.851 67.393 138.641 67.5199 138.641 67.8238V68.0116C138.641 68.3155 138.84 68.6746 139.1 68.8291C139.106 68.8347 139.111 68.8347 139.116 68.8404L142.647 70.8791C142.653 70.8791 142.653 70.8847 142.658 70.8847C142.78 70.9512 142.94 70.9896 143.095 70.9952L141.986 58.8498Z" fill="#58A4B0"/>
<g opacity="0.65">
<path d="M141.986 58.8498L140.868 58.2021L141.62 68.5094C141.681 68.8076 141.509 68.9294 141.249 68.7744L139.116 67.5475C138.851 67.393 138.641 67.5199 138.641 67.8238V68.0116C138.641 68.3155 138.84 68.6746 139.1 68.8291C139.106 68.8347 139.111 68.8347 139.116 68.8404L142.647 70.8791C142.653 70.8791 142.653 70.8847 142.658 70.8847C142.78 70.9512 142.94 70.9896 143.095 70.9952L141.986 58.8498Z" fill="black"/>
</g>
<path d="M130.728 77.1098C128.423 71.6332 124.538 61.9332 124.302 60.0787C123.945 57.2675 124.309 42.7641 124.758 37.9065C125.207 33.0493 126.641 30.7415 129.775 29.6636C129.775 29.6636 132.828 30.5972 133.975 33.8546C135.121 37.1114 134.448 41.6427 134.448 41.6427L133.035 60.0516L136.645 73.7133C136.998 75.0517 137.756 76.2534 138.828 77.1293C139.66 77.8092 140.551 78.4195 141.094 79.0196C142.148 80.1851 142.74 81.3034 143.853 82.3072C144.966 83.3109 144.606 83.4905 143.867 83.7913C143.128 84.0922 141.843 83.3503 140.784 82.363C140.447 82.0488 140.136 81.7941 139.862 81.5838C140.797 84.3915 142.032 86.7295 143.332 88.3098C144.632 89.8906 145.004 91.2438 143.125 91.8337C140.774 92.5714 138.352 92.5714 136.337 91.1272C134.321 89.6829 133.272 86.8082 132.57 84.4375C131.868 82.0662 131.721 79.3798 130.728 77.1098Z" fill="#FFB8B8"/>
<path d="M133.44 60.0153L133.71 54.8057C133.71 54.8057 135.23 38.5199 135.254 35.3915C135.281 31.8563 134.286 30.2719 132.986 29.6631C131.618 29.0231 130.404 28.7857 127.467 28.2992C123.449 30.8127 123.668 42.3973 123.543 49.3572C123.418 56.317 123.115 59.7938 124.158 61.9737C125.202 64.1536 130.728 77.1094 130.728 77.1094C134.759 76.5456 136.77 74.1227 136.77 74.1227L133.44 60.0153Z" fill="#37474F"/>
<path d="M104.467 163.251H110.747L111.998 152.137H104.467V163.251Z" fill="#FFB8B8"/>
<path d="M125.207 151.822L131.897 152.043L131.778 140.534L124.212 140.389L125.207 151.822Z" fill="#FFB8B8"/>
<path d="M104.535 72.3601C104.413 78.4553 103.122 120.331 103.122 120.331C102.991 121.873 102.438 124.712 102.322 130.267C102.155 138.322 103.842 157.448 103.842 157.448C104.216 159.187 110.71 159.893 111.57 158.323C111.57 158.323 115.118 130.581 116.124 122.607C117.002 115.649 119.72 93.7051 119.72 93.7051L122.141 115.236C122.141 115.236 121.977 118.297 122.317 123.066C122.579 126.754 124.43 148.516 124.43 148.516C124.463 149.871 131.212 150.994 132.352 148.994C132.352 148.994 134.487 117.227 134.552 113.843C134.626 109.985 134.087 71.9243 134.087 71.9243L104.535 72.3601Z" fill="#37474F"/>
<path d="M111.104 160.06C111.104 160.06 111.21 159.112 111.211 159.112C111.559 159.104 111.709 159.502 111.851 160.337C112.23 162.566 112.89 164.167 113.515 165.453C114.584 167.648 115.204 168.557 117.306 171.201C117.805 171.828 118.93 172.824 119.322 173.523C119.714 174.221 119.852 176.165 119.186 176.609C116.735 178.243 113.012 178.289 110.379 177.517C108.354 176.923 106.986 175.62 106.556 173.222C106.126 170.823 105.904 169.342 104.683 167.527C104.234 166.862 103.51 166.328 103.207 165.585C102.662 164.251 103.099 162.749 103.447 161.42C103.748 160.272 104.074 159.01 104.466 159.118C104.467 159.258 104.466 159.826 104.466 159.826C104.937 160.348 106.588 160.866 108.059 160.923C109.009 160.959 111.112 160.785 111.104 160.06Z" fill="#1B1B1E"/>
<path d="M131.879 150.228C132.043 150.339 132.424 150.776 133.096 151.399C133.688 151.947 134.268 152.342 135.262 153.073C136.832 154.227 138.232 155.084 140.079 156.097C142.07 157.188 143.865 157.855 146.244 158.93C146.488 159.04 146.73 159.171 146.909 159.371C147.057 159.536 147.149 159.746 147.199 159.962C147.404 160.846 146.914 161.777 146.203 162.341C145.492 162.905 144.596 163.172 143.718 163.399C141.724 163.915 139.513 164.088 137.516 163.585C135.753 163.141 134.068 162.255 132.534 161.281C131.224 160.451 129.826 159.679 128.271 159.452C126.937 159.258 125.292 159.323 124.134 158.525C122.846 157.638 123.361 155.742 123.725 154.114C124.122 152.337 124.212 149.624 125.021 149.682L125.083 150.393C125.155 151.161 127.012 151.513 128.452 151.515C129.644 151.516 131.898 151.204 131.889 150.643C131.889 150.643 131.878 150.233 131.879 150.228Z" fill="#1B1B1E"/>
<path opacity="0.3" d="M120.589 84.3586C120.589 84.3586 124.111 83.1733 127.44 79.9558C127.44 79.9558 126.348 83.1497 121.863 85.7773L122.159 113.603L119.898 93.7056L120.589 84.3586Z" fill="black"/>
<path d="M114.651 27.8858C113.513 28.1595 109.899 29.133 106.965 30.167C104.978 30.8674 103.643 32.4426 103.261 33.0002C101.132 36.1118 103.053 43.0199 104.621 56.0406C104.501 64.4493 104.259 73.3516 104.259 73.3516C108.125 76.1675 126.158 78.0809 134.293 72.1402C134.293 72.1402 134.562 42.1369 134.025 38.0344C132.996 30.1813 129.922 28.0827 123.573 27.7139L114.651 27.8858Z" fill="#263238"/>
<path d="M125.735 37.1028C126.307 39.0669 129.499 52.0364 129.266 56.914C129.083 60.7341 127.655 62.5897 126.884 63.4032C126.113 64.2161 124.794 64.6453 123.944 63.3039C123.095 61.962 122.375 60.3704 122.181 58.5015C121.911 55.8944 123.352 46.8682 122.949 37.5791C122.949 37.5791 123.942 36.074 125.735 37.1028Z" fill="#58A4B0"/>
<path d="M125.859 32.6728C127.197 33.8142 125.733 37.1028 125.733 37.1028C125.733 37.1028 124.415 36.7165 122.948 37.5791C122.948 37.5791 120.283 36.4402 120.279 34.4685C120.275 32.6733 122.186 33.2474 123.544 33.012C124.982 32.7624 125.702 31.711 125.859 32.6728Z" fill="#58A4B0"/>
<path opacity="0.2" d="M125.733 37.1027C125.516 36.3318 124.466 36.4039 123.629 36.1399C123.08 35.967 122.656 35.4385 122.501 35.1699C122.07 34.424 122.494 33.188 123.105 33.0621L123.106 33.0611C121.81 33.1522 120.275 32.859 120.279 34.468C120.283 36.4402 122.948 37.5785 122.948 37.5785C124.415 36.716 125.733 37.1027 125.733 37.1027Z" fill="black"/>
<path d="M116.553 9.6315C116.661 14.1684 120.427 17.7588 124.964 17.6503C129.501 17.5419 133.091 13.776 132.983 9.23911C132.874 4.70173 129.108 1.11183 124.571 1.22029C120.035 1.32875 116.444 5.09412 116.553 9.6315Z" fill="#1B1B1E"/>
<path d="M110.706 15.6157C110.706 15.6157 112.187 21.8383 112.745 22.8533C113.303 23.8683 114.414 24.1338 114.414 24.1338L114.216 19.7366L110.706 15.6157Z" fill="#1B1B1E"/>
<path d="M112.164 6.61553C112.164 6.61553 110.724 6.40424 109.634 7.57376C108.565 8.72025 109.261 12.2129 110.707 15.6156L113.222 15.8438L112.164 6.61553Z" fill="#1B1B1E"/>
<path d="M113.974 15.8275C113.478 16.14 112.738 15.191 112.102 14.5571C111.466 13.9233 109.421 13.0848 108.462 15.2366C107.484 17.4293 109.474 20.2487 111.079 20.7112C113.846 21.5077 114.216 19.7361 114.216 19.7361L114.687 30.9509C116.645 33.34 120.818 32.6913 123.105 32.2278C124.93 31.8579 125.398 31.3479 123.597 29.3603L123.512 26.1474C123.512 26.1474 126.01 26.4657 127.219 26.2493C129.232 25.8891 130.472 24.2668 131.025 22.0639C131.869 18.7006 132.077 14.947 131.231 8.79807C130.191 1.24225 121.329 1.38192 116.646 4.48784C111.963 7.59376 113.974 15.8275 113.974 15.8275Z" fill="#FFB8B8"/>
<path d="M113.994 16.6737C113.741 16.6844 112.742 15.1118 112.102 14.5572C111.216 13.7888 112.164 6.61562 112.164 6.61562C112.164 6.61562 111.043 4.62141 112.669 2.74332C113.826 1.40703 115.445 -0.229072 120.851 0.279458C124.705 0.641671 128.917 1.74058 132.256 0.00012207C132.813 2.09103 132.46 4.44593 130.399 6.15774C130.399 6.15774 129.195 6.97528 125.987 7.4439C122.779 7.91253 117.757 7.56515 117.069 7.4879C116.133 7.38251 115.955 8.29162 115.512 10.7739C115.121 12.9528 114.843 16.6368 113.994 16.6737Z" fill="#1B1B1E"/>
<path d="M112.182 7.17116L109.103 5.6118C109.514 4.73032 110.536 4.36503 111.386 4.79529C112.237 5.22657 112.593 6.28967 112.182 7.17116Z" fill="#1B1B1E"/>
<path d="M123.511 26.1475C123.511 26.1475 118.981 25.3468 117.385 24.5467C116.317 24.011 115.424 23.06 115.154 22.443C115.154 22.443 115.482 23.7737 116.453 24.9565C117.641 26.4028 123.542 27.4388 123.542 27.4388L123.511 26.1475Z" fill="#F28F8F"/>
<path d="M123.106 32.2283C120.596 31.7014 115.108 30.1635 114.534 27.2648L114.46 25.6732C113.487 25.664 113.039 26.7598 112.562 28.3161C112.36 32.4135 116.682 36.1549 121.025 37.1632C121.025 37.1632 120.912 35.0334 121.65 33.9253C122.436 32.743 123.106 32.2283 123.106 32.2283Z" fill="#37474F"/>
<path d="M123.524 26.5685C123.524 26.5685 124.524 26.8382 125.276 27.6168C128.526 30.9801 126.671 35.3916 126.671 35.3916C126.671 35.3916 126.526 33.4639 125.58 32.8121C124.633 32.1603 123.106 32.2279 123.106 32.2279C123.904 31.3771 124.027 30.6736 123.599 29.3603L123.524 26.5685Z" fill="#37474F"/>
<path d="M183.236 38.3797C181.304 44.0109 178.89 53.8587 178.89 53.8587L160.813 61.1341L161.316 63.511L157.021 61.745L154.912 63.9126C154.912 63.9126 157.257 69.4051 160.388 68.7007C161.298 68.496 161.967 68.3671 162.585 68.1502C163.571 67.8033 164.34 67.368 165.107 67.0682C166.239 66.6256 167.397 66.269 168.907 65.8188C174.814 64.0574 181.095 62.4121 182.938 61.8478C185.772 60.9796 185.811 60.3841 186.988 57.137C188.679 52.4758 191.949 41.4437 191.949 41.4437V31.027C188.23 31.0689 185.328 32.2819 183.236 38.3797Z" fill="#FFA8A7"/>
<path d="M216.149 151.883C216.55 153.791 216.782 154.666 217.087 157.039C217.338 158.989 217.493 160.435 218.061 163.767C218.579 166.807 218.97 169.128 216.823 171.413C214.935 173.423 211.604 174.195 210.508 171.91C209.256 169.297 209.419 165.059 209.588 162.419C209.758 159.778 209.719 159.007 209.74 156.905C209.759 155.052 209.852 154.294 209.953 152.697C211.981 152.59 214.122 152.041 216.149 151.883Z" fill="#1B1B1E"/>
<path d="M193.697 161.716L193.002 161.614C192.957 159.427 193.082 157.427 192.54 156.396L193.532 153.713L193.697 161.716Z" fill="#263238"/>
<path d="M195.41 151.759C195.254 153.258 194.402 154.796 194.341 157.749C194.278 160.702 194.418 161.524 194.418 161.524L193.697 161.716L193.532 153.713L195.41 151.759Z" fill="#263238"/>
<path d="M178.917 163.728C178.917 163.728 178.951 164.603 179.328 164.889C179.705 165.174 180.498 166.04 184.347 165.812C188.195 165.585 189.542 164.636 190.857 163.436C192.172 162.235 192.518 159.085 192.715 157.599C193.095 154.719 194.294 153.21 195.411 151.759C195.725 151.05 195.525 150.264 195.525 150.264C195.525 150.264 192.344 150.087 190.967 153.611C189.589 157.134 188.51 161.226 185.398 162.204C182.286 163.181 178.917 163.728 178.917 163.728Z" fill="#263238"/>
<path d="M216.148 151.883C216.12 149.399 216.151 146.098 216.375 141.722C216.636 136.625 216.673 132.653 216.653 127.255C216.637 123.165 216.423 119.553 214.975 111.717C216.509 95.9878 217.069 79.7287 215.211 73.7516C213.616 68.6213 211.992 66.9095 210.557 64.4011C209.81 63.1027 208.447 61.1735 208.447 59.4315C208.447 59.4315 203.493 61.5853 197.083 61.6431C189.79 61.7106 187.241 59.7302 187.241 59.7302C187.241 59.7302 183.952 97.8429 184.638 110.282C185.044 117.644 185.637 128.54 185.855 133.894C186.024 138.024 186.501 143.398 186.457 145.676C186.419 147.619 186.023 149.236 185.297 151.481C184.624 153.56 183.881 155.41 182.908 157.367C182.662 157.861 182.398 158.353 182.025 158.761C181.554 159.275 181.209 159.64 180.394 160.344C179.216 161.36 178.628 161.86 178.728 162.802C178.83 163.75 179.53 164.12 180.326 164.359C182.215 164.924 184.357 164.691 186.247 164.353C188.192 164.006 190.256 163.124 191.062 161.32C191.296 160.795 191.408 160.224 191.513 159.658C191.861 157.8 192.179 155.902 192.961 154.166C193.299 153.417 193.542 152.714 194.014 152.037C194.513 151.321 195.118 150.54 195.21 149.642C195.286 148.894 194.711 147.839 193.96 146.707C193.954 146.699 193.949 146.691 193.943 146.683C193.291 145.701 193.47 145.021 193.698 141.928C194.192 135.236 195.554 130.422 196.699 122.293C197.268 118.256 197.142 115.022 196.463 110.532C197.24 105.206 198.586 99.6181 199.379 95.9428C200.66 103.635 201.485 106.447 202.183 112.266C203.152 120.335 207.69 137.223 208.41 141.565C209.131 145.907 209.586 148.822 209.922 152.351C210.213 155.41 210.439 161.567 210.824 164.37C211.439 168.853 216.059 167.483 216.807 163.527C217.304 160.892 216.188 155.317 216.148 151.883Z" fill="#FFA8A7"/>
<path d="M186.987 62.784C186.567 68.0652 184.648 89.3641 184.271 96.0794C183.97 101.456 184.125 107.805 184.266 112.186C187.806 114.485 202.294 118.619 209.777 107.746C211.299 111.446 213.138 113.459 215.308 112.207C215.308 112.207 216.901 96.6601 216.967 86.6465C217.034 76.633 215.83 71.8337 213.4 68.2279C210.969 64.6222 209.222 62.0826 209.222 62.0826L186.987 62.784Z" fill="#37474F"/>
<path d="M195.186 148.074C194.64 147.107 194.138 146.835 193.61 146.001C193.055 146.4 192.603 147.262 192.368 148.032C192.133 148.801 191.516 152.578 190.587 155.585C189.889 157.841 188.718 159.036 187.106 159.651C186.1 160.034 185.002 160.153 183.935 160.007C183.93 160.007 183.925 160.006 183.919 160.005C181.921 159.73 182.387 158.291 182.387 158.291C181.923 158.927 180.017 160.484 178.888 161.628C178.247 162.277 178.548 163.264 179.034 163.898C179.591 164.378 180.894 165.339 185.672 164.646C189.913 164.03 190.907 162.07 191.308 161.187C191.615 160.511 191.879 159.065 192.189 157.205C192.436 155.723 192.923 154.283 193.677 152.982C193.772 152.818 193.865 152.666 193.955 152.534C194.24 152.114 194.578 151.649 194.96 151.187C195.255 150.829 195.488 150.661 195.576 150.319C195.664 149.493 195.663 148.917 195.186 148.074Z" fill="#1B1B1E"/>
<path d="M186.183 49.9613C186.293 52.0758 187.244 59.7303 187.244 59.7303C195.874 65.5733 208.449 59.4315 208.449 59.4315L210.804 43.5065C210.804 43.5065 205.641 38.215 209.868 31.5724L203.02 31.1329L195.696 31.0961L191.95 31.0265C189.313 32.9608 184.763 37.9106 183.917 40.0782C183.051 42.2919 182.349 45.4459 186.183 49.9613Z" fill="#58A4B0"/>
<g opacity="0.6">
<path d="M186.183 49.9613C186.293 52.0758 187.244 59.7303 187.244 59.7303C195.874 65.5733 208.449 59.4315 208.449 59.4315L210.804 43.5065C210.804 43.5065 205.641 38.215 209.868 31.5724L203.02 31.1329L195.696 31.0961L191.95 31.0265C189.313 32.9608 184.763 37.9106 183.917 40.0782C183.051 42.2919 182.349 45.4459 186.183 49.9613Z" fill="#D8DBE2"/>
</g>
<path opacity="0.1" d="M194.652 49.6087C195.398 50.5777 198.863 51.7697 201.713 50.503C204.564 49.2363 205.533 46.8512 205.681 45.2867C205.681 45.2867 206.495 49.6834 202.101 51.472C197.708 53.26 194.876 50.5772 194.652 49.6087Z" fill="#263238"/>
<path d="M190.65 24.5827C190.65 24.5827 203.562 29.6174 203.562 27.3638C205.984 22.876 210.873 21.4328 210.873 13.5854C210.873 5.39722 204.071 1.39191 197.266 1.39191C192.753 1.39191 188.807 3.77136 186.661 7.32135C182.776 8.3205 183.77 13.7041 187.657 14.6679L190.65 24.5827Z" fill="#1B1B1E"/>
<path d="M203.903 29.1325C202.069 27.501 202.056 24.5215 203.874 22.4776C205.692 20.4338 208.653 20.0992 210.487 21.7307C212.322 23.3622 212.335 26.3417 210.517 28.3861C208.699 30.4299 205.737 30.764 203.903 29.1325Z" fill="#1B1B1E"/>
<path d="M203.559 31.214V21.2532C203.559 21.2532 204.843 22.5271 206.719 21.1514C208.402 19.9179 209.106 17.2699 207.926 15.906C207.09 14.939 204.504 14.408 203.492 16.4882C203.492 16.4882 200.496 16.3439 196.585 13.5669C192.605 10.7408 191.743 8.33888 189.345 8.06415C188.218 8.92364 187.125 11.4545 187.241 18.1319C187.326 23.073 189.54 25.4325 190.67 26.2802C191.592 26.9713 192.767 27.0691 194.76 26.7432V31.4243C194.76 31.4243 188.871 37.9794 193.618 37.6878C200.755 37.2499 203.559 31.214 203.559 31.214Z" fill="#FFA8A7"/>
<path d="M203.491 16.0293V18.7684C202.414 18.7684 201.54 17.9114 201.54 16.8545V14.209L203.491 16.0293Z" fill="#1B1B1E"/>
<path d="M194.759 26.7437C196.859 26.4736 201.179 25.2565 201.852 23.581C201.852 23.581 201.628 24.6339 200.337 25.719C199.047 26.8041 194.759 28.0263 194.759 28.0263V26.7437Z" fill="#F28F8F"/>
<path d="M200.468 1.69381C196.129 0.702839 194.399 1.95984 190.011 1.4948C188.209 1.30397 186.565 1.21956 185.36 1.82682C183.988 2.518 183.185 4.03079 183.371 5.98203C183.683 9.27674 187.235 10.1193 187.235 10.1193C187.235 10.1193 190.248 3.34065 194.248 3.39385C198.249 3.44655 200.468 1.69381 200.468 1.69381Z" fill="#1B1B1E"/>
<path d="M187.061 58.5444L186.988 62.7835C186.988 62.7835 189.78 64.922 194.907 65.2637C200.035 65.6055 207.231 63.5887 209.223 62.0826C209.223 62.0826 208.298 60.3513 208.684 57.9821C208.684 57.9821 203.159 61.1627 195.981 60.821C188.803 60.4787 187.061 58.5444 187.061 58.5444Z" fill="#263238"/>
<path d="M221.461 75.1269C222.049 69.82 222.882 59.8525 222.612 58.1944C222.203 55.6809 217.874 41.2983 216.375 36.9323C214.953 32.7863 212.776 31.5258 209.126 31.5258C209.126 31.5258 206.566 32.6733 206.576 36.7436C206.584 39.8464 208.122 43.0209 208.122 43.0209L214.559 61.2932L214.937 73.985C214.974 75.2281 214.628 76.457 213.928 77.4853C213.385 78.2834 212.772 79.037 212.458 79.6924C211.846 80.9657 211.622 82.0805 210.919 83.2296C210.216 84.3786 210.573 84.441 211.286 84.5116C211.999 84.5822 212.918 83.6153 213.578 82.4939C213.788 82.1373 213.991 81.838 214.173 81.5873C214.084 84.2451 213.616 86.5744 212.9 88.2683C212.183 89.9622 212.208 91.2228 213.979 91.2514C216.192 91.2873 218.838 90.3955 220.206 88.6367C221.574 86.8778 221.744 84.1336 221.744 81.9117C221.744 79.6878 221.185 77.3359 221.461 75.1269Z" fill="#FFA8A7"/>
<path d="M147.213 68.7949C146.512 68.6829 145.232 68.5166 144.389 68.446C141.966 68.2419 138.814 68.0547 138.814 68.0547L139.57 60.4032C139.57 60.4032 144.141 61.057 144.148 61.058C145.65 61.2729 146.949 61.2115 148.397 60.9572C150.243 60.6329 151.844 59.3472 153.718 59.3472C154.687 59.3472 155.234 59.9663 155.826 60.7224C156.091 61.0606 156.464 61.4458 156.893 62.1615C158.273 64.4591 160.339 67.4561 161.13 67.8976C162.055 68.4138 162.587 68.1503 162.587 68.1503C163.636 69.9307 159.872 70.4443 158.253 70.8598C156.844 71.2215 154.564 71.2675 152.973 70.7651C151.664 70.3523 147.914 68.9075 147.213 68.7949Z" fill="#FFB8B8"/>
<path d="M106.965 30.1675C105.617 30.5564 103.622 31.5166 102.048 33.0903C100.016 35.1224 99.8967 38.5808 100.924 42.0372C101.951 45.4935 110.866 60.9423 112.188 63.3039C113.899 66.3607 114.908 66.352 117.83 66.7024C121.469 67.1393 143.297 68.5662 143.297 68.5662C144.571 68.3155 145.257 61.9425 143.981 60.7832L120.988 57.1954L113.222 40.3535C113.222 40.3535 111.122 30.7615 106.965 30.1675Z" fill="#37474F"/>
<path d="M163.233 60.1607C161.777 60.5669 160.644 60.1054 159.026 59.5713C157.33 59.0116 156.913 58.9369 155.618 59.3472C154.408 59.7315 153.018 60.0067 152.523 60.7204C152.371 60.9399 151.879 62.4465 151.502 63.5618C151.534 64.1123 152.854 64.3098 153.432 63.506C153.926 62.8185 154.035 62.4179 154.256 62.1636C154.784 62.0086 156.891 62.161 156.891 62.161L162.94 64.8623L163.233 60.1607Z" fill="#FFA8A7"/>
<path d="M146.914 68.7495C147.324 68.3289 147.562 67.9325 148.677 67.8578C149.437 67.8071 150.199 67.8874 150.953 67.9765C151.636 68.0568 152.321 68.1095 153.003 68.1923C153.349 68.2343 153.695 68.2839 154.038 68.3494C154.261 68.3919 154.567 68.5484 154.537 68.8272C154.823 68.7142 155.12 68.6139 155.427 68.5991C155.735 68.5842 156.057 68.6635 156.284 68.8718C156.788 69.3353 156.439 70.0541 156.113 70.5084C155.753 71.0102 155.225 71.506 154.597 71.6247C153.681 71.7981 152.219 71.7469 151.055 71.4497C149.891 71.1525 145.828 69.8643 146.914 68.7495Z" fill="#FFA8A7"/>
</svg>
