<svg width="18" height="21" viewBox="0 0 18 21" fill="none" xmlns="http://www.w3.org/2000/svg">
<path d="M3 20.1389C2.16667 20.1389 1.45833 19.8473 0.875 19.2639C0.291667 18.6806 0 17.9723 0 17.1389V14.1389H3V0.138947H18V17.1389C18 17.9723 17.7083 18.6806 17.125 19.2639C16.5417 19.8473 15.8333 20.1389 15 20.1389H3ZM15 18.1389C15.2833 18.1389 15.5208 18.0431 15.7125 17.8514C15.9042 17.6598 16 17.4223 16 17.1389V2.13895H5V14.1389H14V17.1389C14 17.4223 14.0958 17.6598 14.2875 17.8514C14.4792 18.0431 14.7167 18.1389 15 18.1389ZM6 7.13895V5.13895H15V7.13895H6ZM6 10.1389V8.13895H15V10.1389H6ZM3 18.1389H12V16.1389H2V17.1389C2 17.4223 2.09583 17.6598 2.2875 17.8514C2.47917 18.0431 2.71667 18.1389 3 18.1389ZM3 18.1389H2H12H3Z" fill="white" fill-opacity="0.5"/>
</svg>
