<svg width="18" height="19" viewBox="0 0 18 19" fill="none" xmlns="http://www.w3.org/2000/svg">
<path d="M2 18.1389C1.45 18.1389 0.979167 17.9431 0.5875 17.5514C0.195833 17.1597 0 16.6889 0 16.1389V2.13892C0 1.58892 0.195833 1.11808 0.5875 0.726416C0.979167 0.334749 1.45 0.138916 2 0.138916H6C6.55 0.138916 7.02083 0.334749 7.4125 0.726416C7.80417 1.11808 8 1.58892 8 2.13892V16.1389C8 16.6889 7.80417 17.1597 7.4125 17.5514C7.02083 17.9431 6.55 18.1389 6 18.1389H2ZM12 18.1389C11.45 18.1389 10.9792 17.9431 10.5875 17.5514C10.1958 17.1597 10 16.6889 10 16.1389V11.1389C10 10.5889 10.1958 10.1181 10.5875 9.72642C10.9792 9.33475 11.45 9.13892 12 9.13892H16C16.55 9.13892 17.0208 9.33475 17.4125 9.72642C17.8042 10.1181 18 10.5889 18 11.1389V16.1389C18 16.6889 17.8042 17.1597 17.4125 17.5514C17.0208 17.9431 16.55 18.1389 16 18.1389H12ZM12 7.13892C11.45 7.13892 10.9792 6.94308 10.5875 6.55142C10.1958 6.15975 10 5.68892 10 5.13892V2.13892C10 1.58892 10.1958 1.11808 10.5875 0.726416C10.9792 0.334749 11.45 0.138916 12 0.138916H16C16.55 0.138916 17.0208 0.334749 17.4125 0.726416C17.8042 1.11808 18 1.58892 18 2.13892V5.13892C18 5.68892 17.8042 6.15975 17.4125 6.55142C17.0208 6.94308 16.55 7.13892 16 7.13892H12Z" fill="#ACD2D8"/>
</svg>
