<svg width="23" height="23" viewBox="0 0 23 23" fill="none" xmlns="http://www.w3.org/2000/svg">
<path d="M14.5696 12.4266C15.2118 12.4266 15.7324 11.906 15.7324 11.2638C15.7324 10.6216 15.2118 10.101 14.5696 10.101C13.9273 10.101 13.4067 10.6216 13.4067 11.2638C13.4067 11.906 13.9273 12.4266 14.5696 12.4266Z" fill="#ACD2D8"/>
<path d="M15.2772 3.62207H13.8618C13.6631 3.62207 13.5072 3.79279 13.5254 3.99071L13.9957 9.13221C14.0116 9.30614 14.1575 9.4393 14.3322 9.4393H14.8068C14.9815 9.4393 15.1273 9.30616 15.1432 9.13221L15.6136 3.99071C15.6317 3.79279 15.4759 3.62207 15.2772 3.62207Z" fill="#ACD2D8"/>
<path d="M7.43784 17.0056L2.89942 22.2172C2.50907 22.6654 1.8421 22.7442 1.35837 22.399C1.1665 22.262 0.956663 22.0895 0.740558 21.8732C0.524288 21.6569 0.351744 21.4472 0.214623 21.2554C-0.130649 20.7715 -0.051665 20.1047 0.39633 19.7143L5.60816 15.1759L7.43784 17.0056Z" fill="#ACD2D8"/>
<path d="M9.01117 12.6437L7.28369 14.3712L8.24252 15.33L9.96999 13.6026L9.01117 12.6437Z" fill="#ACD2D8"/>
<path d="M8.68566 15.5901L7.86886 16.5281L6.08594 14.7452L7.0241 13.9284C7.19291 13.7814 7.44682 13.7902 7.60513 13.9485L8.66549 15.0091C8.8238 15.1674 8.83278 15.4211 8.68566 15.5901Z" fill="#ACD2D8"/>
<path d="M21.8976 5.05834C21.5006 4.07951 20.9177 3.20168 20.165 2.44896C19.4125 1.69624 18.5345 1.11334 17.5556 0.716551C16.6107 0.333313 15.6122 0.138916 14.5881 0.138916C13.5642 0.138916 12.5657 0.333334 11.6206 0.716551C10.6419 1.11334 9.76394 1.69624 9.01122 2.44896C8.25866 3.2017 7.67576 4.07951 7.27881 5.05834C6.89557 6.00344 6.70117 7.00177 6.70117 8.02586C6.70117 9.04995 6.89559 10.0483 7.27881 10.9934C7.67576 11.9722 8.25866 12.8502 9.01122 13.6028C9.76394 14.3555 10.6419 14.9384 11.6206 15.3354C12.5657 15.7186 13.5642 15.9128 14.5881 15.9128C15.6122 15.9128 16.6107 15.7186 17.5556 15.3354C18.5345 14.9384 19.4125 14.3555 20.165 13.6028C20.9177 12.8502 21.5006 11.9722 21.8976 10.9934C22.2808 10.0483 22.4751 9.04995 22.4751 8.02586C22.4751 7.00177 22.2808 6.00344 21.8976 5.05834ZM19.2063 12.6439C17.9727 13.8775 16.3327 14.5569 14.5881 14.5569C12.8437 14.5569 11.2036 13.8775 9.97002 12.6439C8.73642 11.4105 8.05709 9.77031 8.05709 8.02586C8.05709 6.28142 8.73642 4.64138 9.97002 3.40778C11.2036 2.17419 12.8437 1.49485 14.5881 1.49485C16.3327 1.49485 17.9728 2.17419 19.2063 3.40778C20.4398 4.64138 21.1191 6.28142 21.1191 8.02586C21.1191 9.77031 20.4398 11.4105 19.2063 12.6439Z" fill="#ACD2D8"/>
<path d="M14.5875 14.8644C12.7609 14.8644 11.0436 14.1531 9.75197 12.8615C8.46036 11.5699 7.74902 9.85259 7.74902 8.02594C7.74902 6.19929 8.46036 4.48201 9.75197 3.1904C11.0436 1.89877 12.7609 1.18744 14.5875 1.18744C16.4142 1.18744 18.1315 1.89877 19.4231 3.1904C20.7147 4.48201 21.426 6.19931 21.426 8.02594C21.426 9.85257 20.7147 11.5699 19.4231 12.8615C18.1315 14.1531 16.4141 14.8644 14.5875 14.8644ZM14.5875 1.80242C12.9252 1.80242 11.3623 2.44978 10.1868 3.62524C9.01136 4.8007 8.36401 6.36357 8.36401 8.02592C8.36401 9.68826 9.01136 11.2511 10.1868 12.4266C11.3623 13.6021 12.9252 14.2494 14.5875 14.2494C16.2499 14.2494 17.8127 13.6021 18.9882 12.4266C20.1637 11.2511 20.811 9.68828 20.811 8.02592C20.811 6.36355 20.1637 4.8007 18.9882 3.62524C17.8127 2.4498 16.2499 1.80242 14.5875 1.80242Z" fill="#ACD2D8"/>
</svg>
