<svg width="267" height="231" viewBox="0 0 267 231" fill="none" xmlns="http://www.w3.org/2000/svg">
<path d="M133.184 230.263C206.644 230.263 266.195 195.882 266.195 153.47C266.195 111.058 206.644 76.6762 133.184 76.6762C59.7247 76.6762 0.173828 111.058 0.173828 153.47C0.173828 195.882 59.7247 230.263 133.184 230.263Z" fill="#D8DBE2"/>
<path d="M73.005 186.387C89.593 186.387 103.04 178.193 103.04 168.086C103.04 157.979 89.593 149.786 73.005 149.786C56.417 149.786 42.9697 157.979 42.9697 168.086C42.9697 178.193 56.417 186.387 73.005 186.387Z" fill="#9C9C9C"/>
<path d="M221.59 148.314L172.266 118.352C171.433 117.845 170.083 117.845 169.251 118.352L96.2289 162.843C95.3963 163.35 95.3963 164.173 96.2289 164.68L145.552 194.642C146.385 195.15 147.735 195.15 148.567 194.642L221.59 150.151C222.423 149.643 222.423 148.821 221.59 148.314Z" fill="#9C9C9C"/>
<path d="M176.255 41.8818L205.566 59.7488C207.646 61.0162 209.348 64.127 209.348 66.6623V127.714L211.836 129.231V66.4237C211.836 62.845 209.434 58.4531 206.497 56.6635L176.142 38.1599C173.205 36.3704 170.802 37.8344 170.802 41.4135V104.22L173.306 105.746V43.678C173.307 41.702 174.634 40.894 176.255 41.8818Z" fill="#E0E0E0"/>
<path d="M153.648 178.313C153.648 175.095 155.79 171.181 158.431 169.572C159.817 168.727 161.06 168.693 161.933 169.31L165.159 171.253L158.299 183.553L155.102 181.612L155.107 181.604C154.21 181.091 153.648 179.956 153.648 178.313Z" fill="#455A64"/>
<path d="M161.779 171.608C159.138 173.217 156.997 177.131 156.997 180.35C156.996 183.568 159.137 184.873 161.779 183.264C164.421 181.654 166.562 177.74 166.562 174.522C166.562 171.303 164.421 169.998 161.779 171.608Z" fill="#37474F"/>
<path d="M163.397 176.449C163.397 175.191 162.672 174.613 161.778 175.158C160.884 175.702 160.159 177.164 160.159 178.422C160.159 179.68 160.884 180.259 161.778 179.714C162.672 179.169 163.397 177.708 163.397 176.449Z" fill="#263238"/>
<path d="M156.173 166.237C156.173 166.237 156.175 171.996 158.776 174.034C159.267 174.418 159.787 174.684 160.094 174.953C160.758 175.536 160.318 176.608 159.512 177.064C158.339 177.727 151.954 175.933 149.249 170.456L156.173 166.237Z" fill="#F0F0F0"/>
<path d="M158.652 167.739C158.652 167.739 158.654 173.498 161.255 175.536C161.745 175.92 162.266 176.186 162.573 176.456C163.236 177.039 162.797 178.11 161.99 178.566C160.818 179.229 154.433 177.435 151.728 171.958L158.652 167.739Z" fill="#FAFAFA"/>
<path d="M161.778 176.877C161.524 177.031 161.319 177.407 161.319 177.716C161.319 178.024 161.524 178.15 161.778 177.995C162.031 177.841 162.236 177.465 162.236 177.156C162.236 176.847 162.031 176.722 161.778 176.877Z" fill="#263238"/>
<path d="M205.571 146.677C205.571 143.458 207.712 139.544 210.354 137.935C211.74 137.091 212.983 137.057 213.857 137.674L217.082 139.617L210.222 151.917L207.025 149.976L207.03 149.968C206.133 149.455 205.571 148.319 205.571 146.677Z" fill="#455A64"/>
<path d="M213.703 139.971C211.062 141.58 208.921 145.494 208.921 148.713C208.92 151.932 211.062 153.236 213.703 151.627C216.345 150.018 218.486 146.104 218.486 142.885C218.486 139.667 216.345 138.362 213.703 139.971Z" fill="#37474F"/>
<path d="M215.321 144.813C215.321 143.555 214.597 142.976 213.702 143.521C212.808 144.066 212.083 145.527 212.083 146.786C212.083 148.044 212.808 148.622 213.702 148.077C214.597 147.533 215.321 146.071 215.321 144.813Z" fill="#263238"/>
<path d="M208.097 134.601C208.097 134.601 208.099 140.36 210.7 142.398C211.19 142.781 211.711 143.047 212.018 143.317C212.682 143.9 212.242 144.972 211.436 145.428C210.263 146.091 203.878 144.297 201.173 138.819L208.097 134.601Z" fill="#F0F0F0"/>
<path d="M210.575 136.103C210.575 136.103 210.578 141.862 213.179 143.9C213.669 144.284 214.19 144.55 214.497 144.819C215.16 145.402 214.721 146.474 213.914 146.93C212.742 147.593 206.356 145.799 203.651 140.322L210.575 136.103Z" fill="#FAFAFA"/>
<path d="M213.702 145.24C213.449 145.395 213.243 145.77 213.243 146.079C213.243 146.388 213.449 146.513 213.702 146.358C213.955 146.204 214.161 145.828 214.161 145.52C214.161 145.211 213.955 145.086 213.702 145.24Z" fill="#263238"/>
<path d="M214.342 130.756L168.299 102.694L93.0703 148.53L139.113 176.592L214.342 130.756Z" fill="#455A64"/>
<path d="M214.342 130.756L214.341 133.808L139.113 179.644V176.592L214.342 130.756Z" fill="#37474F"/>
<path d="M93.0698 148.53L93.0693 151.582L139.112 179.644V176.592L93.0698 148.53Z" fill="#263238"/>
<path opacity="0.1" d="M207.652 130.887L168.159 154.959L127.883 130.452L167.482 106.443L207.652 130.887Z" fill="black"/>
<path d="M206.306 102.266L170.139 80.1914L131.916 103.538L168.083 125.612L206.306 102.266Z" fill="#58A4B0"/>
<path opacity="0.7" d="M206.306 102.266L170.139 80.1914L131.916 103.538L168.083 125.612L206.306 102.266Z" fill="white"/>
<path d="M168.084 152.294L206.307 128.947V102.266L168.084 125.612L168.084 152.294Z" fill="#58A4B0"/>
<path opacity="0.6" d="M168.084 152.294L206.307 128.947V102.266L168.084 125.612L168.084 152.294Z" fill="white"/>
<path d="M172.304 143.444C172.186 143.444 172.076 143.413 171.975 143.352C171.714 143.192 171.564 142.842 171.564 142.393V139.566C171.564 139.564 171.564 139.562 171.564 139.56V139.351L171.701 139.377L173.801 138.075V141.234C173.801 142.037 173.347 142.944 172.767 143.298C172.609 143.394 172.451 143.444 172.304 143.444ZM171.901 139.775V142.393C171.901 142.712 171.99 142.95 172.143 143.043C172.296 143.136 172.475 143.064 172.599 142.99C173.068 142.703 173.465 141.9 173.465 141.234V141.002H172.688L172.534 139.894L171.901 139.775ZM172.978 140.647H173.464V138.695L172.212 139.472L172.832 139.589L172.978 140.647Z" fill="#455A64"/>
<path d="M172.682 145.697C172.589 145.697 172.514 145.617 172.514 145.519V143.144C172.514 143.046 172.589 142.967 172.682 142.967C172.775 142.967 172.85 143.046 172.85 143.144V145.519C172.85 145.617 172.775 145.697 172.682 145.697Z" fill="#455A64"/>
<path d="M171.704 146.292C171.647 146.292 171.589 146.261 171.559 146.204C171.512 146.118 171.54 146.01 171.62 145.961L173.577 144.77C173.656 144.719 173.76 144.748 173.807 144.835C173.853 144.92 173.826 145.028 173.745 145.077L171.789 146.269C171.762 146.285 171.733 146.292 171.704 146.292Z" fill="#455A64"/>
<path d="M178.673 142.203C178.607 142.203 178.545 142.186 178.489 142.153C178.361 142.075 178.287 141.919 178.287 141.725V141.238C178.287 141.14 178.362 141.06 178.455 141.06C178.548 141.06 178.624 141.14 178.624 141.238V141.725C178.624 141.798 178.643 141.836 178.656 141.844C178.669 141.852 178.709 141.849 178.766 141.814C178.914 141.721 179.079 141.369 179.079 141.01V137.852C179.079 137.754 179.154 137.675 179.247 137.675C179.34 137.675 179.415 137.754 179.415 137.852V141.01C179.415 141.473 179.21 141.95 178.937 142.12C178.848 142.175 178.758 142.203 178.673 142.203Z" fill="#455A64"/>
<path d="M176.899 139.442V139.134C176.899 137.686 177.865 135.919 179.053 135.195C179.66 134.826 180.241 134.771 180.685 135.042C181.131 135.313 181.376 135.87 181.376 136.61V136.713L176.899 139.442ZM180.062 135.228C179.807 135.228 179.521 135.32 179.221 135.503C178.213 136.118 177.376 137.55 177.252 138.816L181.037 136.509C181.018 135.953 180.835 135.544 180.517 135.35C180.383 135.268 180.229 135.228 180.062 135.228Z" fill="#455A64"/>
<path d="M184.721 138.563C184.628 138.563 184.552 138.483 184.552 138.385V132.337C184.552 132.239 184.628 132.159 184.721 132.159C184.813 132.159 184.889 132.239 184.889 132.337V138.385C184.889 138.483 184.813 138.563 184.721 138.563Z" fill="#455A64"/>
<path d="M184.229 133.716C184.206 133.716 184.184 133.711 184.162 133.701C184.077 133.662 184.038 133.558 184.075 133.468L184.674 132.007L185.343 132.821C185.404 132.896 185.397 133.007 185.326 133.072C185.254 133.136 185.149 133.128 185.088 133.054L184.771 132.667L184.384 133.609C184.356 133.676 184.294 133.716 184.229 133.716Z" fill="#455A64"/>
<path d="M186.279 137.626C186.186 137.626 186.11 137.546 186.11 137.448V131.399C186.11 131.301 186.186 131.222 186.279 131.222C186.372 131.222 186.447 131.301 186.447 131.399V137.448C186.447 137.546 186.372 137.626 186.279 137.626Z" fill="#455A64"/>
<path d="M185.786 132.779C185.763 132.779 185.741 132.775 185.719 132.764C185.633 132.726 185.595 132.621 185.632 132.531L186.231 131.07L186.899 131.884C186.961 131.959 186.953 132.07 186.883 132.135C186.811 132.198 186.706 132.191 186.645 132.117L186.327 131.73L185.94 132.672C185.913 132.739 185.851 132.779 185.786 132.779Z" fill="#455A64"/>
<path d="M168.083 152.294L131.916 130.219V103.538L168.083 125.612V152.294Z" fill="#58A4B0"/>
<path opacity="0.5" d="M168.083 152.294L131.916 130.219V103.538L168.083 125.612V152.294Z" fill="white"/>
<path d="M147.101 116.843L149.577 118.352V114.298L147.101 112.789V116.843Z" fill="#37474F"/>
<path d="M149.577 114.298L187.8 90.9514L185.324 89.4428L147.101 112.789L149.577 114.298Z" fill="#455A64"/>
<path d="M148.223 112.1L150.696 113.61L152.077 112.77L149.601 111.259L148.223 112.1Z" fill="#37474F"/>
<path d="M187.896 94.3539L177.771 100.51C177.587 100.622 177.637 100.832 177.881 100.981L189.313 107.946C189.557 108.095 189.903 108.125 190.087 108.014L200.215 101.855C200.398 101.743 200.348 101.532 200.104 101.384L188.67 94.421C188.426 94.2721 188.08 94.2421 187.896 94.3539Z" fill="#FAFAFA"/>
<path d="M193.009 104.829C193.081 104.829 193.152 104.789 193.191 104.718C193.249 104.613 193.214 104.478 193.114 104.417L183.624 98.6344C183.524 98.5725 183.396 98.6092 183.338 98.7152C183.28 98.8208 183.314 98.956 183.414 99.017L192.905 104.799C192.938 104.819 192.974 104.829 193.009 104.829Z" fill="#E0E0E0"/>
<path d="M191.955 105.466C192.027 105.466 192.098 105.426 192.136 105.355C192.195 105.25 192.16 105.115 192.06 105.054L182.57 99.2714C182.47 99.21 182.341 99.2458 182.284 99.3523C182.226 99.4578 182.26 99.593 182.36 99.654L191.85 105.436C191.884 105.456 191.92 105.466 191.955 105.466Z" fill="#E0E0E0"/>
<path d="M190.902 106.103C190.974 106.103 191.045 106.063 191.084 105.992C191.142 105.887 191.108 105.752 191.007 105.691L181.517 99.9084C181.418 99.847 181.289 99.8832 181.231 99.9892C181.173 100.095 181.207 100.23 181.308 100.291L190.798 106.073C190.831 106.093 190.867 106.103 190.902 106.103Z" fill="#E0E0E0"/>
<path d="M189.847 106.74C189.919 106.74 189.99 106.701 190.028 106.63C190.087 106.524 190.052 106.389 189.952 106.328L180.462 100.546C180.362 100.484 180.234 100.521 180.176 100.627C180.118 100.732 180.152 100.868 180.252 100.929L189.743 106.711C189.776 106.731 189.812 106.74 189.847 106.74Z" fill="#E0E0E0"/>
<path d="M199.255 101.576L198.886 101.351L194.563 103.985L194.932 104.21L199.255 101.576Z" fill="#455A64"/>
<path d="M197.752 100.661L197.111 100.276L192.789 102.91L193.429 103.295L197.752 100.661Z" fill="#455A64"/>
<path d="M196.252 99.745L195.882 99.5202L191.56 102.154L191.929 102.379L196.252 99.745Z" fill="#455A64"/>
<path d="M195.126 99.0502L194.38 98.6044L190.057 101.239L190.804 101.684L195.126 99.0502Z" fill="#455A64"/>
<path d="M193.246 97.914L192.877 97.6887L188.554 100.323L188.923 100.548L193.246 97.914Z" fill="#455A64"/>
<path d="M192.174 97.2491L191.376 96.7733L187.053 99.4075L187.851 99.8833L192.174 97.2491Z" fill="#455A64"/>
<path d="M190.242 96.0825L189.873 95.8576L185.55 98.4918L185.919 98.7167L190.242 96.0825Z" fill="#455A64"/>
<path d="M189.389 95.5574L189.205 95.4448L184.882 98.079L185.066 98.1917L189.389 95.5574Z" fill="#455A64"/>
<path d="M190.906 96.5131L190.721 96.4004L186.398 99.0346L186.583 99.1468L190.906 96.5131Z" fill="#455A64"/>
<path d="M193.948 98.3469L193.763 98.2346L189.44 100.869L189.625 100.981L193.948 98.3469Z" fill="#455A64"/>
<path d="M195.603 99.3589L195.419 99.2467L191.096 101.881L191.28 101.993L195.603 99.3589Z" fill="#455A64"/>
<path d="M196.773 100.096L196.588 99.9839L192.265 102.618L192.45 102.73L196.773 100.096Z" fill="#455A64"/>
<path d="M198.419 101.061L198.234 100.948L193.911 103.583L194.096 103.695L198.419 101.061Z" fill="#455A64"/>
<path d="M188.74 95.167L188.37 94.9422L184.047 97.5764L184.416 97.8012L188.74 95.167Z" fill="#455A64"/>
<path d="M194.562 126.294L194.562 132.986C194.562 133.243 194.734 133.348 194.945 133.219L204.845 127.188C205.056 127.059 205.228 126.745 205.228 126.487L205.227 119.792C205.227 119.534 205.056 119.429 204.844 119.558L194.945 125.594C194.734 125.723 194.562 126.036 194.562 126.294Z" fill="#FAFAFA"/>
<path d="M204.613 120.517L204.293 120.712V126.795L204.613 126.6V120.517Z" fill="#455A64"/>
<path d="M203.313 121.309L202.762 121.651L202.762 127.735L203.313 127.393V121.309Z" fill="#455A64"/>
<path d="M202.012 122.102L201.692 122.297L201.693 128.38L202.012 128.185V122.102Z" fill="#455A64"/>
<path d="M201.029 122.689L200.389 123.089V129.172L201.029 128.772V122.689Z" fill="#455A64"/>
<path d="M199.409 123.687L199.089 123.882L199.09 129.965L199.409 129.77V123.687Z" fill="#455A64"/>
<path d="M198.472 124.245L197.788 124.674V130.757L198.472 130.328V124.245Z" fill="#455A64"/>
<path d="M196.807 125.271L196.488 125.466V131.55L196.808 131.354L196.807 125.271Z" fill="#455A64"/>
<path d="M196.064 125.717L195.904 125.815L195.904 131.898L196.064 131.8V125.717Z" fill="#455A64"/>
<path d="M197.399 124.94L197.239 125.038V131.121L197.399 131.023V124.94Z" fill="#455A64"/>
<path d="M200.021 123.32L199.861 123.417V129.5L200.021 129.403V123.32Z" fill="#455A64"/>
<path d="M201.456 122.451L201.296 122.548V128.631L201.456 128.534V122.451Z" fill="#455A64"/>
<path d="M202.489 121.85L202.329 121.948L202.329 128.031L202.489 127.933V121.85Z" fill="#455A64"/>
<path d="M203.885 120.954L203.725 121.052V127.135L203.885 127.037V120.954Z" fill="#455A64"/>
<path d="M195.505 126.064L195.186 126.259L195.186 132.342L195.505 132.147V126.064Z" fill="#455A64"/>
<path opacity="0.1" d="M203.849 101.703L168.76 123.105L131.642 100.441L166.731 79.0386L203.849 101.703Z" fill="black"/>
<path d="M130.673 71.4598L164.335 50.9114L202.427 74.1705L168.765 94.7189L130.673 71.4598Z" fill="#58A4B0"/>
<path opacity="0.3" d="M130.673 71.4598L164.335 50.9114L202.427 74.1705L168.765 94.7189L130.673 71.4598Z" fill="white"/>
<path d="M146.811 64.181L156.936 70.337C157.12 70.4487 157.07 70.6595 156.826 70.8083L145.395 77.7736C145.151 77.9224 144.804 77.9525 144.621 77.8411L134.492 71.6826C134.309 71.5708 134.359 71.3601 134.603 71.2112L146.036 64.2486C146.281 64.0993 146.628 64.0693 146.811 64.181Z" fill="#FAFAFA"/>
<path d="M141.696 74.6566C141.624 74.6566 141.553 74.6168 141.515 74.5461C141.456 74.4405 141.491 74.3054 141.591 74.2444L151.081 68.4622C151.181 68.4003 151.31 68.437 151.367 68.543C151.426 68.6486 151.391 68.7838 151.291 68.8448L141.801 74.627C141.767 74.6468 141.731 74.6566 141.696 74.6566Z" fill="#E0E0E0"/>
<path d="M142.749 75.2931C142.677 75.2931 142.606 75.2534 142.567 75.1827C142.509 75.0771 142.544 74.9419 142.644 74.881L152.134 69.0988C152.233 69.0374 152.362 69.0731 152.42 69.1796C152.478 69.2852 152.444 69.4204 152.343 69.4813L142.853 75.2635C142.82 75.2838 142.784 75.2931 142.749 75.2931Z" fill="#E0E0E0"/>
<path d="M143.804 75.9305C143.732 75.9305 143.661 75.8907 143.623 75.8201C143.564 75.7145 143.599 75.5793 143.699 75.5183L153.189 69.7361C153.289 69.6747 153.417 69.711 153.475 69.817C153.533 69.9226 153.499 70.0577 153.399 70.1187L143.908 75.9009C143.875 75.9208 143.839 75.9305 143.804 75.9305Z" fill="#E0E0E0"/>
<path d="M144.857 76.5676C144.785 76.5676 144.714 76.5279 144.675 76.4572C144.617 76.3516 144.651 76.2164 144.752 76.1554L154.242 70.3732C154.342 70.3114 154.47 70.3481 154.528 70.4541C154.586 70.5597 154.552 70.6948 154.451 70.7558L144.961 76.538C144.928 76.5579 144.892 76.5676 144.857 76.5676Z" fill="#E0E0E0"/>
<path d="M135.452 71.4034L135.821 71.179L140.144 73.8127L139.775 74.0376L135.452 71.4034Z" fill="#455A64"/>
<path d="M136.953 70.488L137.594 70.1028L141.917 72.7375L141.276 73.1222L136.953 70.488Z" fill="#455A64"/>
<path d="M138.455 69.5723L138.824 69.3474L143.147 71.9816L142.778 72.2065L138.455 69.5723Z" fill="#455A64"/>
<path d="M139.582 68.8773L140.328 68.4316L144.651 71.0663L143.905 71.5115L139.582 68.8773Z" fill="#455A64"/>
<path d="M141.461 67.7411L141.83 67.5162L146.153 70.1504L145.784 70.3753L141.461 67.7411Z" fill="#455A64"/>
<path d="M142.533 67.0763L143.331 66.6006L147.655 69.2348L146.856 69.7106L142.533 67.0763Z" fill="#455A64"/>
<path d="M144.465 65.9099L144.834 65.6851L149.157 68.3193L148.788 68.5437L144.465 65.9099Z" fill="#455A64"/>
<path d="M145.318 65.3847L145.503 65.2721L149.826 67.9067L149.641 68.019L145.318 65.3847Z" fill="#455A64"/>
<path d="M143.801 66.3403L143.986 66.2277L148.309 68.8619L148.124 68.9745L143.801 66.3403Z" fill="#455A64"/>
<path d="M140.76 68.174L140.944 68.0618L145.267 70.696L145.083 70.8083L140.76 68.174Z" fill="#455A64"/>
<path d="M139.104 69.1866L139.289 69.0739L143.612 71.7081L143.427 71.8203L139.104 69.1866Z" fill="#455A64"/>
<path d="M137.935 69.9238L138.12 69.8112L142.443 72.4454L142.258 72.5576L137.935 69.9238Z" fill="#455A64"/>
<path d="M136.288 70.8882L136.472 70.7755L140.796 73.4097L140.611 73.5219L136.288 70.8882Z" fill="#455A64"/>
<path d="M145.967 64.9942L146.336 64.7694L150.659 67.4036L150.29 67.6285L145.967 64.9942Z" fill="#455A64"/>
<path d="M168.765 121.4L130.673 98.1411V71.4597L168.765 94.7188V121.4Z" fill="#58A4B0"/>
<path d="M168.765 121.4L202.428 100.852V74.1705L168.765 94.719L168.765 121.4Z" fill="#58A4B0"/>
<path opacity="0.1" d="M168.765 121.4L202.428 100.852V74.1705L168.765 94.719L168.765 121.4Z" fill="black"/>
<path d="M187.244 87.4758L184.768 88.9844V84.93L187.244 83.4218V87.4758Z" fill="#37474F"/>
<path d="M184.768 84.9304L146.676 61.6717L149.152 60.1631L187.244 83.4218L184.768 84.9304Z" fill="#455A64"/>
<path d="M154.806 108.636C154.311 108.334 153.922 107.559 153.922 106.873V104.173L155.717 105.285L155.834 105.263V105.442C155.834 105.444 155.834 105.445 155.834 105.447V107.863C155.834 108.247 155.706 108.547 155.483 108.683C155.397 108.735 155.303 108.761 155.202 108.761C155.076 108.761 154.941 108.719 154.806 108.636ZM155.006 105.728L154.875 106.675H154.21V106.873C154.21 107.442 154.549 108.129 154.95 108.374C155.056 108.437 155.209 108.498 155.34 108.419C155.471 108.339 155.547 108.136 155.547 107.863V105.626L155.006 105.728ZM154.751 105.467L155.281 105.367L154.21 104.703V106.371H154.625L154.751 105.467Z" fill="#455A64"/>
<path d="M154.876 110.687C154.956 110.687 155.02 110.619 155.02 110.535V108.505C155.02 108.422 154.956 108.353 154.876 108.353C154.797 108.353 154.732 108.422 154.732 108.505V110.535C154.732 110.619 154.797 110.687 154.876 110.687Z" fill="#455A64"/>
<path d="M155.712 111.195C155.761 111.195 155.81 111.168 155.836 111.119C155.876 111.046 155.853 110.954 155.784 110.912L154.112 109.894C154.045 109.851 153.955 109.875 153.916 109.95C153.876 110.022 153.9 110.115 153.968 110.157L155.64 111.175C155.663 111.189 155.687 111.195 155.712 111.195Z" fill="#455A64"/>
<path d="M160.724 114.332C160.78 114.332 160.834 114.318 160.881 114.289C160.991 114.223 161.054 114.09 161.054 113.924V113.508C161.054 113.424 160.989 113.356 160.91 113.356C160.83 113.356 160.766 113.424 160.766 113.508V113.924C160.766 113.986 160.749 114.019 160.738 114.026C160.727 114.032 160.693 114.03 160.644 114C160.518 113.921 160.377 113.62 160.377 113.313V110.614C160.377 110.53 160.312 110.462 160.233 110.462C160.153 110.462 160.089 110.53 160.089 110.614V113.313C160.089 113.708 160.264 114.116 160.497 114.261C160.574 114.308 160.651 114.332 160.724 114.332Z" fill="#455A64"/>
<path d="M158.414 109.64V109.552C158.414 108.92 158.623 108.444 159.004 108.213C159.384 107.981 159.88 108.027 160.4 108.343C161.415 108.962 162.24 110.472 162.24 111.71V111.973L158.414 109.64ZM159.148 108.476C158.877 108.641 158.72 108.991 158.704 109.466L161.939 111.438C161.833 110.356 161.118 109.132 160.256 108.607C160 108.451 159.755 108.372 159.538 108.372C159.394 108.371 159.263 108.406 159.148 108.476Z" fill="#455A64"/>
<path d="M166.509 117.739C166.589 117.739 166.653 117.671 166.653 117.588V112.418C166.653 112.334 166.589 112.266 166.509 112.266C166.43 112.266 166.365 112.334 166.365 112.418V117.588C166.365 117.671 166.43 117.739 166.509 117.739Z" fill="#455A64"/>
<path d="M166.929 113.597C166.949 113.597 166.967 113.593 166.986 113.584C167.06 113.551 167.092 113.461 167.061 113.385L166.549 112.136L165.977 112.832C165.925 112.896 165.932 112.991 165.991 113.046C166.053 113.101 166.143 113.094 166.194 113.031L166.466 112.7L166.797 113.505C166.82 113.563 166.873 113.597 166.929 113.597Z" fill="#455A64"/>
<path d="M165.177 116.938C165.257 116.938 165.321 116.87 165.321 116.787V111.617C165.321 111.533 165.257 111.465 165.177 111.465C165.098 111.465 165.033 111.533 165.033 111.617V116.787C165.033 116.87 165.098 116.938 165.177 116.938Z" fill="#455A64"/>
<path d="M165.598 112.796C165.618 112.796 165.636 112.792 165.655 112.783C165.728 112.75 165.761 112.661 165.73 112.584L165.218 111.335L164.646 112.031C164.594 112.095 164.601 112.19 164.66 112.245C164.722 112.3 164.812 112.293 164.864 112.23L165.135 111.899L165.466 112.705C165.49 112.762 165.543 112.796 165.598 112.796Z" fill="#455A64"/>
<path d="M142.304 95.7254L142.305 102.417C142.305 102.675 142.133 102.779 141.922 102.65L132.022 96.619C131.811 96.49 131.639 96.1768 131.639 95.9188L131.64 89.2231C131.64 88.9655 131.811 88.8608 132.023 88.9898L141.922 95.0252C142.133 95.1542 142.304 95.4678 142.304 95.7254Z" fill="#FAFAFA"/>
<path d="M132.251 89.9484L132.571 90.1432V96.2262L132.251 96.0314V89.9484Z" fill="#455A64"/>
<path d="M133.554 90.741L134.106 91.0829L134.105 97.1659L133.554 96.824V90.741Z" fill="#455A64"/>
<path d="M134.854 91.5336L135.174 91.7284V97.8114L134.854 97.6166V91.5336Z" fill="#455A64"/>
<path d="M135.835 92.1201L136.476 92.5203L136.475 98.6038L135.835 98.2031V92.1201Z" fill="#455A64"/>
<path d="M137.456 93.118L137.775 93.3128V99.3959L137.456 99.2015V93.118Z" fill="#455A64"/>
<path d="M138.395 93.6764L139.079 94.1053V100.188L138.395 99.7594V93.6764Z" fill="#455A64"/>
<path d="M140.059 94.7031L140.379 94.8979L140.378 100.981L140.059 100.786V94.7031Z" fill="#455A64"/>
<path d="M140.802 95.1487L140.962 95.2459V101.329L140.802 101.232V95.1487Z" fill="#455A64"/>
<path d="M139.467 94.3718L139.627 94.469L139.627 100.552L139.467 100.455V94.3718Z" fill="#455A64"/>
<path d="M136.846 92.7514L137.005 92.849V98.932L136.846 98.8348V92.7514Z" fill="#455A64"/>
<path d="M135.41 91.8819L135.57 91.9795L135.569 98.0626L135.41 97.9654V91.8819Z" fill="#455A64"/>
<path d="M134.377 91.2811L134.537 91.3788V97.4618L134.377 97.3646V91.2811Z" fill="#455A64"/>
<path d="M132.981 90.3857L133.141 90.4829L133.14 96.5659L132.981 96.4687V90.3857Z" fill="#455A64"/>
<path d="M141.36 95.4956L141.679 95.69V101.773L141.36 101.579V95.4956Z" fill="#455A64"/>
<path opacity="0.1" d="M130.072 71.0935L166.553 93.3684L195.141 75.9502L158.594 53.6828L130.072 71.0935Z" fill="black"/>
<path d="M128.385 58.9323L158.992 40.2843L194.7 62.0406L164.093 80.689L128.385 58.9323Z" fill="#58A4B0"/>
<path opacity="0.1" d="M128.385 58.9323L158.992 40.2843L194.7 62.0406L164.093 80.689L128.385 58.9323Z" fill="black"/>
<path d="M144.52 51.6535L154.645 57.8094C154.829 57.9212 154.779 58.1319 154.535 58.2808L143.104 65.246C142.86 65.3949 142.513 65.4249 142.33 65.3136L132.201 59.155C132.018 59.0432 132.068 58.8325 132.312 58.6837L143.745 51.7211C143.99 51.5718 144.337 51.5417 144.52 51.6535Z" fill="#FAFAFA"/>
<path d="M139.404 62.1285C139.332 62.1285 139.261 62.0887 139.223 62.018C139.164 61.9124 139.199 61.7773 139.299 61.7163L148.789 55.9341C148.889 55.8723 149.018 55.9089 149.075 56.015C149.134 56.1205 149.099 56.2557 148.999 56.3167L139.509 62.0989C139.476 62.1192 139.44 62.1285 139.404 62.1285Z" fill="#E0E0E0"/>
<path d="M140.458 62.7654C140.386 62.7654 140.315 62.7257 140.277 62.655C140.219 62.5494 140.253 62.4142 140.353 62.3533L149.844 56.5711C149.943 56.5097 150.072 56.5455 150.13 56.6519C150.188 56.7575 150.153 56.8927 150.053 56.9536L140.563 62.7358C140.53 62.7557 140.494 62.7654 140.458 62.7654Z" fill="#E0E0E0"/>
<path d="M141.511 63.4025C141.439 63.4025 141.369 63.3627 141.33 63.292C141.272 63.1864 141.306 63.0513 141.407 62.9903L150.897 57.2081C150.996 57.1467 151.125 57.1829 151.183 57.2889C151.241 57.3945 151.207 57.5297 151.106 57.5907L141.616 63.3729C141.583 63.3932 141.547 63.4025 141.511 63.4025Z" fill="#E0E0E0"/>
<path d="M142.567 64.0399C142.495 64.0399 142.424 64.0002 142.385 63.9295C142.327 63.8239 142.361 63.6887 142.462 63.6278L151.952 57.8456C152.052 57.7837 152.18 57.8204 152.238 57.9264C152.296 58.032 152.262 58.1672 152.161 58.2281L142.671 64.0103C142.638 64.0302 142.602 64.0399 142.567 64.0399Z" fill="#E0E0E0"/>
<path d="M133.16 58.8758L133.529 58.6509L137.852 61.2851L137.483 61.51L133.16 58.8758Z" fill="#455A64"/>
<path d="M134.662 57.9605L135.303 57.5753L139.626 60.2095L138.985 60.5943L134.662 57.9605Z" fill="#455A64"/>
<path d="M136.165 57.0448L136.534 56.8199L140.858 59.4541L140.488 59.679L136.165 57.0448Z" fill="#455A64"/>
<path d="M137.291 56.3498L138.037 55.9041L142.36 58.5383L141.614 58.9841L137.291 56.3498Z" fill="#455A64"/>
<path d="M139.167 55.2137L139.537 54.9884L143.86 57.623L143.491 57.8479L139.167 55.2137Z" fill="#455A64"/>
<path d="M140.242 54.5488L141.041 54.073L145.364 56.7072L144.566 57.183L140.242 54.5488Z" fill="#455A64"/>
<path d="M142.173 53.3822L142.543 53.1573L146.865 55.7915L146.496 56.0164L142.173 53.3822Z" fill="#455A64"/>
<path d="M143.025 52.8572L143.21 52.7445L147.533 55.3787L147.349 55.4914L143.025 52.8572Z" fill="#455A64"/>
<path d="M141.51 53.8128L141.694 53.7002L146.017 56.3344L145.833 56.4466L141.51 53.8128Z" fill="#455A64"/>
<path d="M138.467 55.6464L138.652 55.5342L142.975 58.1684L142.791 58.2806L138.467 55.6464Z" fill="#455A64"/>
<path d="M136.812 56.6585L136.997 56.5463L141.32 59.1806L141.135 59.2928L136.812 56.6585Z" fill="#455A64"/>
<path d="M135.643 57.396L135.828 57.2838L140.151 59.918L139.966 60.0302L135.643 57.396Z" fill="#455A64"/>
<path d="M133.996 58.3606L134.18 58.2479L138.503 60.8822L138.319 60.9944L133.996 58.3606Z" fill="#455A64"/>
<path d="M143.676 52.4667L144.045 52.2419L148.368 54.8761L147.999 55.101L143.676 52.4667Z" fill="#455A64"/>
<path d="M164.093 93.1209L128.386 71.3642L128.385 58.9322L164.093 80.6884V93.1209Z" fill="#58A4B0"/>
<g opacity="0.2">
<path d="M164.093 93.1209L128.386 71.3642L128.385 58.9322L164.093 80.6884V93.1209Z" fill="black"/>
</g>
<path d="M164.094 93.1211L194.7 74.4726V62.0406L164.094 80.689V93.1211Z" fill="#58A4B0"/>
<path opacity="0.3" d="M164.094 93.1211L194.7 74.4726V62.0406L164.094 80.689V93.1211Z" fill="black"/>
<path d="M182.573 73.4458L180.098 74.954V70.8999L182.573 69.3913V73.4458Z" fill="#37474F"/>
<path d="M180.097 70.9004L144.389 49.1441L146.864 47.6351L182.573 69.3913L180.097 70.9004Z" fill="#455A64"/>
<path d="M150.129 80.3569C149.634 80.0547 149.245 79.2798 149.245 78.5934V75.8938L151.04 77.0061L151.157 76.984V77.1629C151.157 77.1643 151.157 77.166 151.157 77.1678V79.5833C151.157 79.9677 151.029 80.2672 150.806 80.4032C150.72 80.4554 150.625 80.4814 150.525 80.4814C150.399 80.4814 150.264 80.4395 150.129 80.3569ZM150.329 77.4483L150.198 78.3954H149.534V78.5934C149.534 79.1623 149.873 79.8493 150.274 80.0945C150.38 80.1576 150.532 80.2186 150.663 80.1395C150.794 80.0596 150.87 79.8563 150.87 79.5833V77.3463L150.329 77.4483ZM150.074 77.1872L150.604 77.0874L149.533 76.4234V78.0915H149.948L150.074 77.1872Z" fill="#455A64"/>
<path d="M150.202 82.4075C150.281 82.4075 150.346 82.3394 150.346 82.2555V80.2261C150.346 80.1421 150.281 80.0741 150.202 80.0741C150.122 80.0741 150.058 80.1421 150.058 80.2261V82.2555C150.058 82.339 150.122 82.4075 150.202 82.4075Z" fill="#455A64"/>
<path d="M151.038 82.9159C151.087 82.9159 151.136 82.889 151.162 82.84C151.202 82.7671 151.178 82.6747 151.11 82.6328L149.438 81.6145C149.37 81.5708 149.281 81.5955 149.242 81.6697C149.202 81.7426 149.225 81.835 149.294 81.8769L150.966 82.8952C150.988 82.9098 151.013 82.9159 151.038 82.9159Z" fill="#455A64"/>
<path d="M156.049 86.0529C156.105 86.0529 156.158 86.0388 156.206 86.01C156.316 85.9438 156.378 85.8108 156.378 85.6447V85.2286C156.378 85.1446 156.314 85.0766 156.234 85.0766C156.155 85.0766 156.09 85.1446 156.09 85.2286V85.6447C156.09 85.707 156.074 85.7397 156.063 85.7467C156.052 85.7529 156.018 85.7507 155.969 85.7207C155.842 85.6416 155.702 85.3403 155.702 85.0337V82.3346C155.702 82.2507 155.637 82.1826 155.558 82.1826C155.478 82.1826 155.414 82.2507 155.414 82.3346V85.0337C155.414 85.4291 155.589 85.8369 155.822 85.9818C155.898 86.029 155.976 86.0529 156.049 86.0529Z" fill="#455A64"/>
<path d="M153.74 81.361V81.2731C153.74 80.6409 153.949 80.1651 154.33 79.9332C154.709 79.7013 155.206 79.7481 155.725 80.064C156.74 80.6824 157.566 82.1924 157.566 83.4302V83.6939L153.74 81.361ZM154.474 80.1965C154.203 80.3617 154.046 80.7116 154.029 81.1869L157.265 83.1589C157.158 82.0766 156.444 80.8529 155.582 80.3277C155.325 80.1713 155.081 80.0922 154.863 80.0922C154.72 80.0918 154.589 80.1262 154.474 80.1965Z" fill="#455A64"/>
<path d="M161.836 89.4601C161.915 89.4601 161.98 89.392 161.98 89.3081V84.1386C161.98 84.0547 161.915 83.9866 161.836 83.9866C161.756 83.9866 161.692 84.0547 161.692 84.1386V89.3081C161.692 89.392 161.756 89.4601 161.836 89.4601Z" fill="#455A64"/>
<path d="M162.255 85.3177C162.275 85.3177 162.293 85.3138 162.312 85.3049C162.386 85.2718 162.419 85.1821 162.387 85.1053L161.875 83.8564L161.304 84.5531C161.252 84.6162 161.258 84.7121 161.318 84.7669C161.38 84.8216 161.47 84.815 161.522 84.7514L161.793 84.4205L162.123 85.2259C162.147 85.2833 162.2 85.3177 162.255 85.3177Z" fill="#455A64"/>
<path d="M160.505 88.6591C160.585 88.6591 160.649 88.591 160.649 88.5071V83.3376C160.649 83.2537 160.585 83.1857 160.505 83.1857C160.426 83.1857 160.361 83.2537 160.361 83.3376V88.5071C160.361 88.591 160.426 88.6591 160.505 88.6591Z" fill="#455A64"/>
<path d="M160.928 84.5162C160.947 84.5162 160.966 84.5123 160.985 84.5034C161.058 84.4703 161.091 84.3806 161.06 84.3037L160.548 83.0553L159.976 83.7515C159.924 83.8147 159.931 83.9106 159.99 83.9654C160.052 84.0197 160.142 84.0135 160.194 83.9499L160.465 83.619L160.796 84.4248C160.819 84.4818 160.872 84.5162 160.928 84.5162Z" fill="#455A64"/>
<path d="M140.017 68.9487L140.017 75.6404C140.017 75.8984 139.846 76.0027 139.634 75.8737L129.735 69.8423C129.523 69.7133 129.352 69.4001 129.352 69.1421L129.352 62.4464C129.352 62.1888 129.524 62.0841 129.735 62.2131L139.634 68.2485C139.846 68.3775 140.017 68.6907 140.017 68.9487Z" fill="#FAFAFA"/>
<path d="M129.964 63.1713L130.284 63.3661L130.284 69.4496L129.964 69.2548V63.1713Z" fill="#455A64"/>
<path d="M131.265 63.9637L131.816 64.3056L131.816 70.3891L131.265 70.0468V63.9637Z" fill="#455A64"/>
<path d="M132.567 64.7563L132.887 64.9511L132.887 71.0342L132.567 70.8393V64.7563Z" fill="#455A64"/>
<path d="M133.548 65.3434L134.187 65.7436V71.8266L133.548 71.4264V65.3434Z" fill="#455A64"/>
<path d="M135.169 66.341L135.489 66.5358L135.488 72.6193L135.168 72.4244L135.169 66.341Z" fill="#455A64"/>
<path d="M136.106 66.8993L136.79 67.3283L136.79 73.4113L136.106 72.9824V66.8993Z" fill="#455A64"/>
<path d="M137.772 67.9259L138.092 68.1207V74.2038L137.772 74.009L137.772 67.9259Z" fill="#455A64"/>
<path d="M138.516 68.3716L138.675 68.4693L138.675 74.5523L138.515 74.4547L138.516 68.3716Z" fill="#455A64"/>
<path d="M137.179 67.5946L137.339 67.6922V73.7753L137.179 73.6776V67.5946Z" fill="#455A64"/>
<path d="M134.558 65.9747L134.718 66.0719L134.718 72.155L134.558 72.0578V65.9747Z" fill="#455A64"/>
<path d="M133.123 65.1053L133.282 65.2025L133.282 71.2855L133.123 71.1883V65.1053Z" fill="#455A64"/>
<path d="M132.093 64.5045L132.253 64.6017L132.252 70.6847L132.093 70.5875V64.5045Z" fill="#455A64"/>
<path d="M130.691 63.6086L130.851 63.7062V69.7893L130.691 69.6916V63.6086Z" fill="#455A64"/>
<path d="M139.073 68.7185L139.392 68.9134V74.9964L139.073 74.8016V68.7185Z" fill="#455A64"/>
<path opacity="0.1" d="M145.441 143.794L117.474 160.813L96.5405 148.043L124.572 131.062L145.441 143.794Z" fill="black"/>
<path d="M99.0981 93.6459L124.604 78.1052L143.308 89.5013L117.802 105.042L99.0981 93.6459Z" fill="#58A4B0"/>
<path opacity="0.1" d="M99.0981 93.6459L124.604 78.1052L143.308 89.5013L117.802 105.042L99.0981 93.6459Z" fill="black"/>
<path d="M124.353 80.3383L116.524 85.0978C116.383 85.184 116.421 85.3474 116.61 85.4623L125.448 90.8473C125.637 90.9622 125.905 90.9856 126.046 90.8994L133.876 86.1382C134.018 86.052 133.98 85.8886 133.791 85.7737L124.951 80.3904C124.763 80.2756 124.495 80.2521 124.353 80.3383Z" fill="#FAFAFA"/>
<path d="M128.309 88.4375C128.365 88.4375 128.42 88.4066 128.45 88.3523C128.494 88.2705 128.468 88.1663 128.391 88.119L121.053 83.6484C120.976 83.6007 120.877 83.629 120.832 83.7107C120.788 83.7924 120.814 83.8967 120.891 83.9439L128.229 88.4141C128.254 88.43 128.282 88.4375 128.309 88.4375Z" fill="#E0E0E0"/>
<path d="M127.494 88.9297C127.549 88.9297 127.604 88.8988 127.634 88.8445C127.679 88.7627 127.652 88.6585 127.575 88.6112L120.237 84.141C120.161 84.0938 120.061 84.1212 120.016 84.2033C119.972 84.2851 119.998 84.3893 120.075 84.4366L127.413 88.9072C127.438 88.9222 127.466 88.9297 127.494 88.9297Z" fill="#E0E0E0"/>
<path d="M126.68 89.4221C126.736 89.4221 126.791 89.3916 126.82 89.3368C126.865 89.2551 126.839 89.1509 126.761 89.1036L119.424 84.633C119.347 84.5857 119.248 84.6135 119.203 84.6953C119.158 84.777 119.185 84.8812 119.262 84.9285L126.599 89.3987C126.625 89.4146 126.653 89.4221 126.68 89.4221Z" fill="#E0E0E0"/>
<path d="M125.864 89.9148C125.92 89.9148 125.975 89.8839 126.004 89.8296C126.049 89.7478 126.023 89.6436 125.945 89.5963L118.608 85.1261C118.531 85.0784 118.432 85.1067 118.387 85.1884C118.342 85.2702 118.369 85.3744 118.446 85.4217L125.783 89.8918C125.809 89.9077 125.837 89.9148 125.864 89.9148Z" fill="#E0E0E0"/>
<path d="M133.138 85.9226L132.852 85.7485L129.51 87.785L129.795 87.9591L133.138 85.9226Z" fill="#455A64"/>
<path d="M131.975 85.2148L131.48 84.9171L128.137 86.9536L128.633 87.2509L131.975 85.2148Z" fill="#455A64"/>
<path d="M130.815 84.5066L130.529 84.3326L127.187 86.3691L127.473 86.5431L130.815 84.5066Z" fill="#455A64"/>
<path d="M129.944 83.9695L129.367 83.6249L126.025 85.6614L126.602 86.006L129.944 83.9695Z" fill="#455A64"/>
<path d="M128.491 83.0909L128.206 82.9168L124.863 84.9538L125.149 85.1274L128.491 83.0909Z" fill="#455A64"/>
<path d="M127.662 82.5771L127.045 82.2091L123.703 84.2456L124.32 84.6136L127.662 82.5771Z" fill="#455A64"/>
<path d="M126.168 81.6751L125.883 81.5011L122.541 83.538L122.826 83.7116L126.168 81.6751Z" fill="#455A64"/>
<path d="M125.509 81.2689L125.367 81.1819L122.024 83.2189L122.167 83.3055L125.509 81.2689Z" fill="#455A64"/>
<path d="M126.683 82.0077L126.54 81.9211L123.198 83.9576L123.34 84.0442L126.683 82.0077Z" fill="#455A64"/>
<path d="M129.034 83.4256L128.891 83.3386L125.549 85.3751L125.692 85.4621L129.034 83.4256Z" fill="#455A64"/>
<path d="M130.313 84.2084L130.171 84.1214L126.828 86.1579L126.971 86.2449L130.313 84.2084Z" fill="#455A64"/>
<path d="M131.219 84.7784L131.076 84.6914L127.733 86.7279L127.876 86.8149L131.219 84.7784Z" fill="#455A64"/>
<path d="M132.491 85.524L132.348 85.4369L129.006 87.4734L129.149 87.5605L132.491 85.524Z" fill="#455A64"/>
<path d="M125.008 80.9674L124.723 80.7933L121.38 82.8298L121.665 83.0039L125.008 80.9674Z" fill="#455A64"/>
<path d="M117.802 158.923L99.0981 147.527V93.6454L117.802 105.041V158.923Z" fill="#58A4B0"/>
<g opacity="0.2">
<path d="M117.802 158.923L99.0981 147.527V93.6454L117.802 105.041V158.923Z" fill="black"/>
</g>
<path d="M117.8 158.923L143.306 143.383L143.306 89.5013L117.8 105.042V158.923Z" fill="#58A4B0"/>
<path opacity="0.3" d="M117.8 158.923L143.306 143.383L143.306 89.5013L117.8 105.042V158.923Z" fill="black"/>
<path d="M131.402 100.808L128.927 102.316V98.2618L131.402 96.7537V100.808Z" fill="#37474F"/>
<path d="M128.928 98.2622L110.224 86.8661L112.699 85.3575L131.403 96.7536L128.928 98.2622Z" fill="#455A64"/>
<path d="M103.838 146.159C103.343 145.857 102.954 145.082 102.954 144.396V141.696L104.749 142.809L104.866 142.786V142.965C104.866 142.967 104.866 142.968 104.866 142.97V145.386C104.866 145.771 104.738 146.07 104.515 146.206C104.429 146.258 104.334 146.284 104.234 146.284C104.108 146.284 103.973 146.242 103.838 146.159ZM104.037 143.251L103.906 144.198H103.242V144.396C103.242 144.965 103.581 145.652 103.982 145.897C104.088 145.96 104.241 146.021 104.371 145.942C104.502 145.862 104.578 145.659 104.578 145.386V143.149L104.037 143.251ZM103.783 142.99L104.312 142.89L103.242 142.226V143.894H103.657L103.783 142.99Z" fill="#455A64"/>
<path d="M103.911 148.209C103.99 148.209 104.055 148.141 104.055 148.057V146.028C104.055 145.944 103.99 145.876 103.911 145.876C103.831 145.876 103.767 145.944 103.767 146.028V148.057C103.767 148.141 103.831 148.209 103.911 148.209Z" fill="#455A64"/>
<path d="M104.747 148.718C104.796 148.718 104.845 148.691 104.871 148.642C104.911 148.57 104.888 148.477 104.819 148.435L103.147 147.417C103.08 147.374 102.99 147.398 102.951 147.473C102.911 147.546 102.934 147.638 103.003 147.68L104.675 148.698C104.697 148.712 104.722 148.718 104.747 148.718Z" fill="#455A64"/>
<path d="M109.757 151.855C109.813 151.855 109.867 151.841 109.914 151.813C110.024 151.746 110.087 151.613 110.087 151.447V151.031C110.087 150.947 110.022 150.879 109.943 150.879C109.863 150.879 109.799 150.947 109.799 151.031V151.447C109.799 151.51 109.783 151.542 109.771 151.549C109.76 151.556 109.726 151.553 109.678 151.523C109.551 151.444 109.41 151.142 109.41 150.836V148.137C109.41 148.053 109.346 147.985 109.266 147.985C109.187 147.985 109.122 148.053 109.122 148.137V150.836C109.122 151.232 109.297 151.639 109.531 151.784C109.607 151.832 109.684 151.855 109.757 151.855Z" fill="#455A64"/>
<path d="M107.448 147.163V147.075C107.448 146.443 107.658 145.968 108.038 145.736C108.418 145.504 108.914 145.551 109.434 145.866C110.449 146.485 111.274 147.995 111.274 149.233V149.496L107.448 147.163ZM108.182 145.999C107.911 146.164 107.754 146.514 107.738 146.989L110.973 148.961C110.867 147.879 110.152 146.655 109.29 146.13C109.034 145.974 108.789 145.895 108.572 145.895C108.428 145.894 108.297 145.929 108.182 145.999Z" fill="#455A64"/>
<path d="M115.544 155.263C115.624 155.263 115.688 155.195 115.688 155.111V149.941C115.688 149.857 115.624 149.789 115.544 149.789C115.465 149.789 115.4 149.857 115.4 149.941V155.111C115.4 155.195 115.465 155.263 115.544 155.263Z" fill="#455A64"/>
<path d="M115.963 151.12C115.983 151.12 116.001 151.116 116.02 151.107C116.094 151.074 116.126 150.985 116.095 150.908L115.583 149.659L115.012 150.356C114.959 150.419 114.966 150.515 115.026 150.569C115.087 150.624 115.177 150.617 115.229 150.554L115.5 150.223L115.831 151.028C115.855 151.086 115.908 151.12 115.963 151.12Z" fill="#455A64"/>
<path d="M114.21 154.462C114.29 154.462 114.354 154.394 114.354 154.31V149.14C114.354 149.056 114.29 148.988 114.21 148.988C114.131 148.988 114.066 149.056 114.066 149.14V154.31C114.066 154.394 114.131 154.462 114.21 154.462Z" fill="#455A64"/>
<path d="M114.632 150.319C114.652 150.319 114.67 150.315 114.689 150.306C114.762 150.273 114.795 150.183 114.764 150.107L114.252 148.858L113.68 149.554C113.628 149.618 113.635 149.713 113.695 149.768C113.756 149.823 113.846 149.816 113.898 149.753L114.169 149.422L114.5 150.228C114.523 150.285 114.577 150.319 114.632 150.319Z" fill="#455A64"/>
<path d="M116.1 138.763L116.101 145.455C116.101 145.713 115.929 145.817 115.718 145.688L105.818 139.657C105.607 139.528 105.435 139.215 105.435 138.957L105.435 132.261C105.435 132.003 105.607 131.899 105.819 132.028L115.718 138.063C115.929 138.192 116.1 138.506 116.1 138.763Z" fill="#FAFAFA"/>
<path d="M106.049 132.986L106.369 133.181L106.368 139.264L106.049 139.069V132.986Z" fill="#455A64"/>
<path d="M107.349 133.779L107.9 134.121L107.9 140.204L107.349 139.862V133.779Z" fill="#455A64"/>
<path d="M108.65 134.571L108.97 134.766L108.97 140.849L108.65 140.654V134.571Z" fill="#455A64"/>
<path d="M109.633 135.158L110.273 135.558V141.642L109.633 141.241L109.633 135.158Z" fill="#455A64"/>
<path d="M111.254 136.156L111.574 136.351L111.573 142.434L111.253 142.239L111.254 136.156Z" fill="#455A64"/>
<path d="M112.192 136.714L112.876 137.143L112.875 143.226L112.192 142.797V136.714Z" fill="#455A64"/>
<path d="M113.854 137.741L114.174 137.936V144.019L113.854 143.824L113.854 137.741Z" fill="#455A64"/>
<path d="M114.598 138.187L114.758 138.284L114.758 144.367L114.598 144.27L114.598 138.187Z" fill="#455A64"/>
<path d="M113.263 137.41L113.423 137.507V143.59L113.263 143.493V137.41Z" fill="#455A64"/>
<path d="M110.641 135.789L110.801 135.887L110.8 141.97L110.641 141.873V135.789Z" fill="#455A64"/>
<path d="M109.206 134.92L109.365 135.018L109.365 141.101L109.206 141.003V134.92Z" fill="#455A64"/>
<path d="M108.175 134.319L108.334 134.417V140.5L108.175 140.403V134.319Z" fill="#455A64"/>
<path d="M106.776 133.424L106.936 133.521V139.604L106.776 139.507V133.424Z" fill="#455A64"/>
<path d="M115.157 138.533L115.477 138.728V144.811L115.157 144.617V138.533Z" fill="#455A64"/>
<path opacity="0.1" d="M168.313 157.713L140.346 174.733L118.872 161.683L146.903 144.701L168.313 157.713Z" fill="black"/>
<path d="M122.12 135.337L147.626 119.797L166.329 131.193L140.824 146.733L122.12 135.337Z" fill="#58A4B0"/>
<g opacity="0.3">
<path d="M122.12 135.337L147.626 119.797L166.329 131.193L140.824 146.733L122.12 135.337Z" fill="white"/>
</g>
<path d="M147.379 122.03L139.55 126.789C139.408 126.875 139.446 127.039 139.635 127.154L148.473 132.539C148.662 132.654 148.929 132.677 149.071 132.591L156.901 127.83C157.043 127.743 157.005 127.58 156.816 127.465L147.976 122.082C147.788 121.967 147.52 121.944 147.379 122.03Z" fill="#FAFAFA"/>
<path d="M151.332 130.129C151.388 130.129 151.442 130.098 151.472 130.044C151.517 129.962 151.491 129.858 151.413 129.81L144.076 125.34C143.999 125.292 143.9 125.321 143.855 125.402C143.81 125.484 143.836 125.588 143.914 125.636L151.251 130.106C151.277 130.121 151.304 130.129 151.332 130.129Z" fill="#E0E0E0"/>
<path d="M150.517 130.621C150.573 130.621 150.628 130.591 150.657 130.536C150.702 130.454 150.676 130.35 150.598 130.303L143.261 125.832C143.184 125.785 143.085 125.812 143.04 125.895C142.995 125.976 143.021 126.081 143.099 126.128L150.436 130.599C150.462 130.614 150.49 130.621 150.517 130.621Z" fill="#E0E0E0"/>
<path d="M149.703 131.114C149.758 131.114 149.813 131.083 149.843 131.028C149.888 130.947 149.861 130.842 149.784 130.795L142.446 126.324C142.37 126.277 142.27 126.305 142.225 126.387C142.181 126.468 142.207 126.573 142.284 126.62L149.622 131.09C149.647 131.106 149.675 131.114 149.703 131.114Z" fill="#E0E0E0"/>
<path d="M148.887 131.607C148.942 131.607 148.997 131.576 149.027 131.521C149.072 131.44 149.045 131.335 148.968 131.288L141.631 126.817C141.554 126.77 141.454 126.798 141.41 126.88C141.365 126.961 141.391 127.066 141.469 127.113L148.806 131.584C148.831 131.599 148.859 131.607 148.887 131.607Z" fill="#E0E0E0"/>
<path d="M156.159 127.614L155.874 127.44L152.532 129.477L152.817 129.651L156.159 127.614Z" fill="#455A64"/>
<path d="M154.999 126.906L154.504 126.609L151.162 128.645L151.657 128.943L154.999 126.906Z" fill="#455A64"/>
<path d="M153.838 126.198L153.552 126.024L150.209 128.061L150.495 128.235L153.838 126.198Z" fill="#455A64"/>
<path d="M152.966 125.661L152.389 125.316L149.047 127.353L149.624 127.698L152.966 125.661Z" fill="#455A64"/>
<path d="M151.514 124.782L151.229 124.609L147.887 126.645L148.172 126.819L151.514 124.782Z" fill="#455A64"/>
<path d="M150.686 124.269L150.068 123.901L146.726 125.937L147.344 126.305L150.686 124.269Z" fill="#455A64"/>
<path d="M149.191 123.366L148.906 123.193L145.563 125.229L145.849 125.403L149.191 123.366Z" fill="#455A64"/>
<path d="M148.533 122.961L148.39 122.874L145.048 124.911L145.191 124.998L148.533 122.961Z" fill="#455A64"/>
<path d="M149.706 123.699L149.563 123.612L146.221 125.649L146.363 125.736L149.706 123.699Z" fill="#455A64"/>
<path d="M152.058 125.117L151.915 125.031L148.573 127.067L148.715 127.154L152.058 125.117Z" fill="#455A64"/>
<path d="M153.335 125.9L153.192 125.813L149.85 127.849L149.992 127.936L153.335 125.9Z" fill="#455A64"/>
<path d="M154.243 126.47L154.1 126.383L150.758 128.419L150.9 128.506L154.243 126.47Z" fill="#455A64"/>
<path d="M155.514 127.215L155.371 127.128L152.029 129.165L152.172 129.252L155.514 127.215Z" fill="#455A64"/>
<path d="M148.03 122.659L147.744 122.485L144.402 124.522L144.688 124.695L148.03 122.659Z" fill="#455A64"/>
<path d="M140.824 172.952L122.12 161.555V135.337L140.824 146.733V172.952Z" fill="#58A4B0"/>
<path d="M140.824 172.952L122.12 161.555V135.337L140.824 146.733V172.952Z" fill="#58A4B0"/>
<path d="M140.823 172.952L166.329 157.412L166.329 131.193L140.823 146.733V172.952Z" fill="#58A4B0"/>
<path opacity="0.1" d="M140.823 172.952L166.329 157.412L166.329 131.193L140.823 146.733V172.952Z" fill="black"/>
<path d="M154.426 142.499L151.951 144.007V139.953L154.426 138.445V142.499Z" fill="#37474F"/>
<path d="M151.95 139.954L133.246 128.558L135.722 127.049L154.425 138.445L151.95 139.954Z" fill="#455A64"/>
<path d="M163.969 154.89C163.903 154.89 163.841 154.873 163.784 154.838C163.637 154.749 163.553 154.552 163.553 154.298V152.707C163.553 152.706 163.553 152.705 163.553 152.704V152.586L163.63 152.6L164.813 151.867V153.646C164.813 154.098 164.557 154.609 164.231 154.808C164.141 154.862 164.053 154.89 163.969 154.89ZM163.743 152.825V154.298C163.743 154.478 163.793 154.612 163.879 154.665C163.965 154.717 164.066 154.677 164.135 154.635C164.4 154.473 164.623 154.021 164.623 153.646V153.516H164.185L164.099 152.892L163.743 152.825ZM164.349 153.315H164.623V152.216L163.918 152.654L164.267 152.72L164.349 153.315Z" fill="#455A64"/>
<path d="M164.184 156.159C164.132 156.159 164.089 156.114 164.089 156.058V154.721C164.089 154.666 164.132 154.621 164.184 154.621C164.237 154.621 164.279 154.666 164.279 154.721V156.058C164.279 156.114 164.237 156.159 164.184 156.159Z" fill="#455A64"/>
<path d="M163.633 156.494C163.6 156.494 163.568 156.476 163.551 156.444C163.525 156.396 163.54 156.335 163.585 156.308L164.687 155.636C164.731 155.608 164.79 155.624 164.816 155.673C164.843 155.721 164.827 155.782 164.782 155.81L163.68 156.481C163.666 156.49 163.649 156.494 163.633 156.494Z" fill="#455A64"/>
<path d="M160.333 158.56C160.296 158.56 160.261 158.551 160.229 158.532C160.157 158.488 160.116 158.401 160.116 158.291V158.017C160.116 157.962 160.158 157.917 160.211 157.917C160.263 157.917 160.306 157.961 160.306 158.017V158.291C160.306 158.333 160.317 158.354 160.324 158.359C160.332 158.363 160.354 158.361 160.386 158.341C160.469 158.289 160.562 158.09 160.562 157.889V156.111C160.562 156.056 160.605 156.011 160.657 156.011C160.71 156.011 160.752 156.056 160.752 156.111V157.889C160.752 158.15 160.637 158.418 160.483 158.514C160.432 158.545 160.381 158.56 160.333 158.56Z" fill="#455A64"/>
<path d="M159.333 157.006V156.832C159.333 156.017 159.876 155.022 160.545 154.615C160.888 154.407 161.215 154.376 161.464 154.529C161.716 154.682 161.853 154.995 161.853 155.411V155.469L159.333 157.006ZM161.113 154.633C160.97 154.633 160.809 154.686 160.64 154.788C160.072 155.134 159.601 155.941 159.531 156.654L161.663 155.354C161.652 155.041 161.549 154.811 161.37 154.702C161.294 154.656 161.207 154.633 161.113 154.633Z" fill="#455A64"/>
<path d="M156.521 160.805C156.469 160.805 156.426 160.761 156.426 160.705V157.299C156.426 157.244 156.469 157.199 156.521 157.199C156.574 157.199 156.616 157.244 156.616 157.299V160.705C156.616 160.761 156.574 160.805 156.521 160.805Z" fill="#455A64"/>
<path d="M156.246 158.076C156.233 158.076 156.221 158.074 156.208 158.068C156.159 158.046 156.138 157.987 156.159 157.936L156.496 157.114L156.872 157.573C156.907 157.614 156.903 157.677 156.863 157.714C156.823 157.749 156.764 157.745 156.729 157.703L156.55 157.486L156.332 158.016C156.317 158.053 156.282 158.076 156.246 158.076Z" fill="#455A64"/>
<path d="M157.397 160.278C157.345 160.278 157.303 160.233 157.303 160.177V156.771C157.303 156.716 157.345 156.671 157.397 156.671C157.45 156.671 157.492 156.716 157.492 156.771V160.177C157.492 160.233 157.45 160.278 157.397 160.278Z" fill="#455A64"/>
<path d="M157.121 157.549C157.108 157.549 157.096 157.546 157.083 157.54C157.035 157.519 157.013 157.459 157.034 157.409L157.371 156.586L157.748 157.045C157.782 157.086 157.778 157.149 157.738 157.185C157.698 157.221 157.639 157.217 157.604 157.175L157.426 156.957L157.208 157.488C157.192 157.526 157.157 157.549 157.121 157.549Z" fill="#455A64"/>
<path d="M142.832 162.117L142.832 168.809C142.832 169.067 143.004 169.171 143.215 169.042L153.115 163.011C153.326 162.882 153.498 162.569 153.498 162.311L153.498 155.615C153.498 155.357 153.326 155.253 153.115 155.382L143.216 161.417C143.004 161.546 142.832 161.86 142.832 162.117Z" fill="#FAFAFA"/>
<path d="M152.886 156.34L152.566 156.535V162.618L152.886 162.423L152.886 156.34Z" fill="#455A64"/>
<path d="M151.585 157.133L151.034 157.475V163.558L151.585 163.216V157.133Z" fill="#455A64"/>
<path d="M150.284 157.925L149.964 158.12V164.203L150.284 164.008V157.925Z" fill="#455A64"/>
<path d="M149.301 158.512L148.662 158.912V164.996L149.301 164.595V158.512Z" fill="#455A64"/>
<path d="M147.68 159.51L147.36 159.705L147.361 165.788L147.68 165.593V159.51Z" fill="#455A64"/>
<path d="M146.745 160.068L146.061 160.497V166.58L146.745 166.151V160.068Z" fill="#455A64"/>
<path d="M145.077 161.095L144.757 161.29L144.758 167.373L145.077 167.178V161.095Z" fill="#455A64"/>
<path d="M144.336 161.541L144.176 161.638V167.721L144.336 167.624V161.541Z" fill="#455A64"/>
<path d="M145.671 160.764L145.511 160.861L145.512 166.944L145.671 166.847V160.764Z" fill="#455A64"/>
<path d="M148.293 159.143L148.133 159.241V165.324L148.293 165.227V159.143Z" fill="#455A64"/>
<path d="M149.728 158.274L149.568 158.372V164.455L149.728 164.357V158.274Z" fill="#455A64"/>
<path d="M150.759 157.673L150.599 157.771V163.854L150.759 163.757V157.673Z" fill="#455A64"/>
<path d="M152.156 156.778L151.997 156.875L151.997 162.958L152.156 162.861V156.778Z" fill="#455A64"/>
<path d="M143.777 161.887L143.458 162.082V168.165L143.778 167.97L143.777 161.887Z" fill="#455A64"/>
<path opacity="0.15" d="M87.5523 74.3672C87.4096 75.1239 86.5171 77.569 83.9482 78.2825C81.0251 79.0944 77.981 77.9132 77.981 77.9132L78.6675 75.5537L87.5523 74.3672Z" fill="black"/>
<path opacity="0.15" d="M99.4491 56.8407C99.4491 56.8407 99.5542 56.452 99.6835 55.9722C99.8129 55.4925 98.5303 55.3843 96.8186 55.7306L93.5413 56.3932C91.8297 56.7396 90.3369 57.4088 90.2076 57.8886L89.9731 58.7571L99.4491 56.8407Z" fill="black"/>
<path d="M61.4792 82.6885L56.9067 80.5641C56.9067 80.5641 56.9373 78.1472 57.0273 76.3598L61.7228 78.7573L61.4792 82.6885Z" fill="#58A4B0"/>
<path d="M63.6176 76.0521L62.5711 76.5808L58.3193 74.384L59.3349 73.8459L63.6176 76.0521Z" fill="#58A4B0"/>
<path d="M80.4318 154.495C80.5526 152.42 81.6074 131.497 81.6074 131.497L71.9814 138.668C73.6633 150.628 74.032 154.232 74.1039 156.228C74.0891 156.274 74.0513 156.444 74.0595 156.74C74.111 159.11 76.8001 160.348 78.9086 161.896C79.7413 162.508 82.164 164.314 84.6004 165.495C86.1255 166.234 89.1953 166.257 89.5577 165.276C86.9916 163.375 84.0237 161.301 81.9709 159.117C80.991 158.075 80.2869 156.985 80.4318 154.495Z" fill="#FFB8B8"/>
<path d="M93.9171 167.762C94.0469 167.76 94.2685 169.192 93.5747 169.812C92.7738 170.529 90.406 171.721 87.2428 171.359C84.0796 170.997 82.3529 170.043 81.071 169.002C79.789 167.961 77.9923 166.491 76.5592 166.197C75.2279 165.924 73.777 165.342 73.3452 164.938C72.9135 164.533 72.9398 162.704 72.9398 162.704L93.9171 167.762Z" fill="#263238"/>
<path d="M74.0725 155.649C74.0725 155.649 73.6767 155.66 73.6025 156.084C73.5143 156.589 73.4358 158.056 73.2419 158.886C72.9729 160.04 72.8209 162.398 73.0114 163.332C73.2019 164.266 75.3756 164.884 76.7665 165.392C78.187 165.909 79.8392 166.996 81.2931 168.16C82.7978 169.364 85.9398 170.548 87.9971 170.547C91.138 170.546 93.1564 169.661 93.7642 168.519C94.5158 167.107 93.8924 166.304 90.2538 164.681C89.5648 164.374 87.1399 162.985 86.313 162.481C84.0753 161.118 81.8487 159.206 80.7865 156.749C80.6623 156.462 80.5319 156.143 80.2543 156.001C80.0416 155.891 79.7877 155.911 79.5516 155.948C78.952 156.041 78.3675 156.229 77.8246 156.499C77.3442 156.738 76.6623 157.018 76.6838 157.64C76.6912 157.856 76.7576 158.067 76.8309 158.271C76.8765 158.397 76.9136 158.566 76.8039 158.642C76.7005 158.715 76.56 158.636 76.4644 158.553C76.0805 158.219 75.7958 157.788 75.4708 157.396C75.2966 157.186 75.1072 156.985 74.8893 156.821C74.691 156.671 74.4405 156.599 74.2641 156.428C74.0402 156.213 74.088 155.94 74.0725 155.649Z" fill="#37474F"/>
<path d="M90.8385 164.949C86.2977 165.332 84.9165 168.17 84.7549 169.916C85.8886 170.299 87.0549 170.548 87.9951 170.548C91.1361 170.546 93.2834 169.661 93.8912 168.519C94.6006 167.186 94.0836 166.128 90.8385 164.949Z" fill="#FAFAFA"/>
<path d="M84.0257 165.098C83.9764 165.099 83.9264 165.083 83.8841 165.05C83.7878 164.974 83.7718 164.834 83.8475 164.737C84.4664 163.95 86.2735 162.894 87.9286 163.05C88.0509 163.061 88.1414 163.17 88.1302 163.292C88.1195 163.414 88.0146 163.504 87.8893 163.493C86.3439 163.352 84.6869 164.39 84.1962 165.014C84.1536 165.068 84.0906 165.097 84.0257 165.098Z" fill="#F0F0F0"/>
<path d="M82.044 163.983C81.9943 163.984 81.9447 163.968 81.9024 163.935C81.8061 163.859 81.7898 163.719 81.8654 163.622C82.485 162.835 84.2925 161.775 85.9469 161.935C86.0692 161.946 86.1597 162.055 86.1482 162.177C86.1374 162.299 86.0344 162.389 85.9073 162.378C84.3622 162.235 82.7048 163.275 82.2141 163.899C82.1719 163.953 82.1085 163.982 82.044 163.983Z" fill="#F0F0F0"/>
<path d="M80.21 162.704C80.1604 162.704 80.1107 162.689 80.0684 162.655C79.9721 162.579 79.9558 162.439 80.0314 162.342C80.6503 161.554 82.4648 160.497 84.1129 160.654C84.2356 160.665 84.3257 160.775 84.3146 160.897C84.3038 161.019 84.2 161.108 84.0737 161.098C82.5304 160.956 80.8716 161.995 80.3805 162.619C80.3379 162.673 80.2745 162.702 80.21 162.704Z" fill="#F0F0F0"/>
<path d="M78.4071 161.423C78.3589 161.424 78.3096 161.409 78.2685 161.377C78.1706 161.302 78.1525 161.162 78.227 161.065C79.0779 159.949 81.0325 159.193 82.6862 159.349C82.8088 159.36 82.8989 159.469 82.8874 159.592C82.8766 159.714 82.7721 159.8 82.6465 159.793C81.1578 159.653 79.3347 160.347 78.5794 161.336C78.5372 161.393 78.4723 161.422 78.4071 161.423Z" fill="#F0F0F0"/>
<path d="M64.5542 137.66L54.5129 135.369C54.2483 141.93 54.4084 150.804 54.1956 156.962C54.1556 158.121 53.5864 165.952 53.9021 168.359C54.3769 171.974 58.9695 171.739 59.349 169.611C59.7289 167.483 60.061 158.39 60.1362 157.447C60.3497 153.503 62.4822 146.872 63.9783 139.852C64.0521 139.507 64.4842 137.997 64.5542 137.66Z" fill="#FFB8B8"/>
<path d="M60.9704 171.194C60.9304 173.302 60.6402 174.709 59.8923 175.974C59.1444 177.238 57.6493 177.684 56.1024 177.383C54.5555 177.082 52.5523 176.194 52.0346 174.397C51.5168 172.601 51.5513 171.355 51.8144 169.392L60.9704 171.194Z" fill="#263238"/>
<path d="M54.214 156.209C53.5851 156.28 53.5217 159.11 53.2808 161.951C53.0229 164.995 52.1052 166.287 51.8651 168.784C51.5905 171.637 51.8058 172.899 52.9488 174.573C54.0913 176.247 57.9468 177.782 59.7039 175.252C61.1363 173.189 61.1022 170.965 60.8406 168.137C60.57 165.213 60.3547 163.157 60.3866 160.929C60.417 158.799 60.765 156.816 60.2064 156.601C60.1779 156.915 60.1542 157.313 60.1227 157.621C60.0986 157.858 60.0856 159.01 59.7324 159.035C59.688 158.765 59.6831 158.512 59.6906 158.235C59.6972 157.994 59.6639 157.733 59.4878 157.557C59.3103 157.379 58.7525 157.248 58.495 157.21C57.869 157.12 57.2401 157.042 56.6071 157.014C56.2917 157 55.9759 156.998 55.6605 157.014C55.4048 157.027 55.1042 157.059 54.8656 157.152C54.7192 157.209 54.5857 157.313 54.5365 157.453C54.5001 157.557 54.5127 157.67 54.5176 157.779C54.5261 157.975 54.5079 158.172 54.4638 158.364C54.4442 158.449 54.3867 158.553 54.2956 158.537C54.2214 158.523 54.1888 158.439 54.1855 158.369C54.1681 158.027 54.204 157.776 54.2036 157.377C54.2036 157.193 54.2248 156.941 54.2196 156.756C54.2151 156.573 54.2088 156.391 54.214 156.209Z" fill="#37474F"/>
<path d="M51.7616 170.435C51.7293 172.201 51.8898 173.404 52.7845 174.714C53.9274 176.389 58.0876 177.917 59.8443 175.387C60.7185 174.128 60.9042 172.673 60.9676 171.193C59.7683 169.342 53.4534 168.754 51.7616 170.435Z" fill="#FAFAFA"/>
<path d="M59.2147 168.171C59.1883 168.169 59.162 168.164 59.1361 168.154C59.1101 168.144 56.4866 167.121 53.6718 167.844C53.5473 167.874 53.4186 167.808 53.3838 167.691C53.3497 167.575 53.4235 167.455 53.5484 167.423C56.5259 166.66 59.208 167.708 59.3214 167.753C59.4404 167.8 59.4952 167.928 59.4444 168.039C59.404 168.126 59.3106 168.176 59.2147 168.171Z" fill="#F0F0F0"/>
<path d="M53.7341 165.723C53.6455 165.718 53.5632 165.666 53.5291 165.584C53.4832 165.472 53.5432 165.345 53.6636 165.302C56.4532 164.299 59.3062 165.528 59.427 165.582C59.5441 165.633 59.5942 165.763 59.5382 165.872C59.4826 165.98 59.3411 166.025 59.2265 165.976C59.1995 165.964 56.428 164.773 53.8323 165.709C53.8 165.72 53.767 165.725 53.7341 165.723Z" fill="#F0F0F0"/>
<path d="M53.8095 163.722C53.7224 163.718 53.6416 163.667 53.6068 163.587C53.5578 163.475 53.6156 163.348 53.7354 163.303C56.8011 162.144 59.5002 163.504 59.6133 163.561C59.7263 163.62 59.7674 163.752 59.7048 163.858C59.6422 163.963 59.4969 164.002 59.3864 163.943C59.3612 163.93 56.7651 162.629 53.9114 163.706C53.878 163.719 53.8432 163.724 53.8095 163.722Z" fill="#F0F0F0"/>
<path d="M53.9018 161.474C53.8162 161.469 53.7362 161.42 53.7002 161.341C53.6498 161.23 53.7054 161.103 53.8248 161.056C56.6959 159.926 59.6241 161.313 59.7471 161.374C59.862 161.429 59.9058 161.561 59.8457 161.668C59.7864 161.775 59.6456 161.818 59.53 161.76C59.5014 161.746 56.6725 160.407 54.0067 161.457C53.9723 161.47 53.9367 161.476 53.9018 161.474Z" fill="#EBEBEB"/>
<path d="M58.7316 83.9196C58.4936 95.8556 56.4719 122.368 56.4719 122.368C56.3011 123.834 54.2901 130.069 54.2164 135.371C54.1004 143.692 53.9321 149.993 53.9321 149.993C53.9321 149.993 58.3365 151.834 61.5716 150.56C61.5716 150.56 65.7802 132.875 66.9599 127.356C68.3649 120.782 71.8735 108.557 71.8735 108.557L71.6177 125.933C71.6177 125.933 70.9151 131.292 71.4854 136.437C71.8742 139.942 73.208 149.701 73.208 149.701C73.208 149.701 77.2618 150.563 80.7748 149.464C80.7748 149.464 82.891 128.509 83.0652 125.285C83.2638 121.608 84.3401 84.6354 84.3401 84.6354L58.7316 83.9196Z" fill="#373F51"/>
<path d="M71.8744 108.558L73.4484 97.4804C73.4484 97.4804 77.2917 97.3201 79.9252 94.7192C79.9252 94.7192 79.5972 97.3166 74.7912 98.8826L72.9718 108.224L71.562 125.609L71.8744 108.558Z" fill="#1B1B1E"/>
<path d="M78.7355 49.1183C80.7768 49.0053 84.5796 48.8684 87.3122 52.4189C89.2327 54.9146 94.4705 60.9182 97.4384 64.8813C99.4278 62.6962 104.252 57.4005 105.042 55.8529C106.028 54.0299 106.541 52.2335 106.844 51.294C107.23 50.0937 107.373 49.1601 107.478 48.4518C107.727 46.7646 107.549 45.5064 107.535 44.8892C107.511 43.8121 109.028 44.3647 109.608 46.075C110.033 47.325 109.998 48.2355 110.052 49.0013C110.614 48.717 112.247 47.871 112.501 47.7463C113.389 47.3117 116.212 46.2651 116.482 47.9438C116.542 48.3196 116.43 48.7299 116.585 49.0741C116.66 49.2384 116.788 49.3674 116.894 49.5106C117.295 50.0491 117.384 50.8286 117.115 51.4528C116.983 51.7583 116.921 52.0027 116.961 52.3422C116.997 52.6602 117.085 52.9899 116.999 53.3079C116.931 53.5621 116.758 53.7682 116.642 54.0029C116.493 54.3068 116.442 54.6525 116.398 54.992C116.354 55.3315 116.314 55.6772 116.184 55.9909C115.874 56.736 115.021 56.9057 114.366 57.1541C113.494 57.4846 112.328 57.9144 111.423 58.3787C109.849 59.4738 105.607 67.5694 101.312 72.7575C99.8411 74.5348 98.5209 75.6471 97.1252 75.4523L97.1382 75.4476C96.0086 75.4206 94.6117 74.3384 93.2653 73.1115C88.9844 69.2102 82.111 61.5436 82.111 61.5436C79.2139 57.8663 78.4075 51.5819 78.7355 49.1183Z" fill="#FFB8B8"/>
<path d="M80.6309 48.5138C81.9873 48.7367 82.9201 48.6953 84.6468 49.729C86.1667 50.6395 86.7133 51.4073 88.4738 53.4856C90.2338 55.564 94.4413 60.9602 94.4413 60.9602C94.4413 60.9602 92.6487 65.4768 87.1043 67.1171L80.9692 60.8331L80.6309 48.5138Z" fill="#373F51"/>
<path d="M111.187 49.1581C110.314 49.4839 110.089 50.1093 110.155 51.4485C110.194 52.2424 110.015 53.7177 109.216 54.3337C109.216 54.3337 109.893 54.243 110.266 53.81C110.64 53.3774 110.744 53.3266 110.966 53.5585C111.188 53.7905 111.541 53.8824 111.541 53.8824C111.541 53.8824 111.074 54.4409 111.488 55.1144C111.902 55.7883 113.666 55.7441 115.085 54.9063C115.085 54.9063 112.764 55.7562 112.197 54.988C111.63 54.2199 112.842 53.1917 113.758 52.8936C113.758 52.8936 111.512 53.5397 111.142 52.7677C110.773 51.9956 111.689 51.3702 113.011 50.9662C113.011 50.9662 111.15 51.3878 110.81 50.7284C110.396 49.9259 110.949 49.435 111.187 49.1581Z" fill="#F28F8F"/>
<path d="M59.8008 49.739C59.8008 49.739 57.6264 51.7576 57.0709 53.9392C56.7977 55.0116 56.5461 55.9069 57.4063 61.8581C58.2276 67.5409 58.2246 69.2454 58.411 73.6712L58.6248 85.5431C61.8466 89.5246 77.4775 91.6894 85.0002 86.3261C85.0002 86.3261 85.0432 65.7469 84.5114 58.9623C84.15 54.3542 82.8117 50.0292 81.3104 48.6142C79.2657 48.2395 77.2989 47.9888 77.2989 47.9888L69.7758 47.5269L59.8008 49.739Z" fill="#58A4B0"/>
<path d="M81.0799 33.2376C82.082 30.8119 81.1006 27.5957 79.9036 26.0849C78.1724 23.9009 75.4785 22.9591 71.4173 23.2251C68.3294 23.4273 65.2918 24.7809 64.7137 28.1257C62.2313 28.9072 62.5145 33.209 63.1315 35.1063C64.3846 38.9572 66.848 42.3082 66.8903 44.2775L81.0799 33.2376Z" fill="#1B1B1E"/>
<path d="M81.0795 42.2965C80.5918 44.1555 79.5712 45.5181 77.9431 45.7868C76.9691 45.9495 75.3703 45.8017 75.3703 45.8017L75.4344 48.1687C77.6266 50.1489 76.8227 52.7494 75.3603 55.0934C73.5435 52.9614 71.4636 52.2015 69.6484 51.3574C67.8372 50.5177 66.9996 48.6505 66.9996 48.6505L66.7676 40.657C66.7676 40.657 65.7703 41.8518 64.1266 40.7223C63.0007 39.9428 62.1909 37.9368 63.0115 36.09C63.825 34.276 65.4564 35.0265 65.9593 35.5764C66.4585 36.1267 67.0456 37.1639 67.4633 37.0192C68.0996 36.7955 68.3105 36.3747 68.4743 35.93C68.766 35.1521 68.9757 34.1481 69.0065 32.4147C69.4609 32.171 69.8974 31.8217 70.2814 31.3763C70.9819 30.5557 71.358 29.5803 71.3884 28.6866C74.9092 27.523 78.9585 28.071 80.4221 29.2658C81.2645 30.831 81.2949 34.4711 81.4342 36.5671C81.5862 38.843 81.4894 40.7411 81.0795 42.2965Z" fill="#FFB8B8"/>
<path d="M75.3705 45.8C73.5686 45.6929 69.9452 44.805 68.9797 43.7435C68.0143 42.6821 67.604 40.511 67.604 40.511C67.604 40.511 67.7489 43.2539 68.495 44.464C69.241 45.6741 71.1267 46.2021 72.2711 46.5021C73.4156 46.8024 75.4043 47.0039 75.4043 47.0039L75.3705 45.8Z" fill="#F28F8F"/>
<path d="M75.3599 55.095C74.4171 54.4841 72.3357 51.9907 71.301 53.1492C70.2659 54.3077 69.7114 54.626 69.0277 54.4113C68.3442 54.1966 66.8351 52.6239 65.8482 51.4744C64.8612 50.325 64.5503 48.6733 64.5503 48.6733C64.5503 48.6733 65.5054 47.4503 65.9405 46.634C66.4089 45.7556 66.3096 45.5088 66.9078 45.4654L66.9615 47.1202C66.9615 47.1202 67.3436 48.0229 69.0362 49.2431C70.7291 50.463 74.1414 52.2817 75.3599 55.095Z" fill="#373F51"/>
<path d="M75.3613 55.0948C75.9224 54.5543 76.8353 52.0289 77.0795 52.1048C77.4394 52.2162 78.0831 53.9535 78.3933 53.5499C78.887 52.9085 78.7369 49.9802 77.9171 48.9156C77.1284 47.8917 76.0066 46.7203 75.3936 46.6077L75.4369 48.1694C75.4369 48.1694 76.0521 49.4338 76.0444 50.6874C76.0388 51.5736 75.4777 54.2445 75.3613 55.0948Z" fill="#373F51"/>
<path d="M99.7591 67.3833L80.0589 71.4489L72.79 96.4301L91.5523 92.039L99.7591 67.3833Z" fill="#263238"/>
<path d="M95.3851 67.8215C95.4577 67.5563 95.0015 67.4542 94.3663 67.5938L93.2159 67.8461C93.2159 67.8461 93.6562 66.1831 91.1119 66.6016C88.568 67.0201 87.9024 68.8974 87.9024 68.8974C87.9024 68.8974 87.3524 69.0226 86.6738 69.1771C85.9952 69.3315 85.3682 69.6695 85.2729 69.9323L85.1006 70.4075L95.2483 68.3143C95.2483 68.3143 95.3124 68.0866 95.3851 67.8215Z" fill="#D8DBE2"/>
<path d="M85.7949 71.6805C85.8898 71.3277 86.823 70.8607 88.0042 70.5365C88.0157 70.4923 88.0275 70.4481 88.036 70.4129C88.1272 70.0433 87.9905 69.8079 87.2759 69.9561L87.2344 69.6549L94.2682 68.2665L93.958 68.5696C93.0293 68.7401 92.6416 68.8426 92.4645 69.4969C92.4497 69.5509 92.44 69.5947 92.4263 69.6467C93.5296 69.5138 94.2783 69.6366 94.1849 69.9839C94.07 70.4086 93.9773 70.7528 93.9773 70.7528L85.5874 72.4495L85.7949 71.6805Z" fill="#9C9C9C"/>
<path d="M77.0172 81.9066C79.4291 82.76 81.8385 82.8218 84.3423 82.8175C84.9542 82.8163 85.4178 82.9153 85.5983 83.5317C85.6624 83.7503 85.7469 84.053 84.9557 84.2994C84.7478 84.3644 84.4591 84.4426 84.3423 84.6354C84.1589 84.9385 84.25 85.2432 84.2026 85.5991C84.1329 86.1236 83.7857 86.5527 83.4529 86.9492C83.0771 87.3971 82.6946 87.8508 82.215 88.1695C80.6892 89.1825 78.3358 89.3073 76.5973 89.0108C75.4176 88.8094 74.2454 88.3647 73.1291 87.9294C72.068 87.5156 65.6079 85.5064 64.8404 85.2237C59.1374 83.1238 51.2934 80.5483 50.8331 77.6963C50.3724 74.8439 51.8211 65.9551 52.8592 58.7097C53.6975 52.8587 55.9457 50.7725 59.5903 49.9695C63.5829 54.7556 61.0594 63.0519 61.0594 63.0519L59.6069 74.1035C60.2207 74.644 69.5531 80.172 71.1648 80.7227C71.7489 80.9222 72.8445 80.6789 73.4256 80.4697C74.9851 79.908 76.0536 79.9542 77.5638 80.0269" fill="#FFB8B8"/>
<path d="M59.803 49.739C55.9327 50.2995 53.6419 52.3912 52.8596 56.3477C52.2021 59.6717 50.9824 70.407 50.9824 70.407C53.5563 72.8026 57.7783 72.6731 60.0624 71.8361L61.2428 63.2121C62.192 61.0054 63.6818 54.4242 59.803 49.739Z" fill="#373F51"/>
<path d="M57.3163 84.6164L55.3617 85.7561C55.1242 85.8945 54.9244 86.2391 54.9166 86.5254C54.8673 88.3746 54.7265 94.7204 55.0067 98.197C55.0297 98.4825 55.2446 98.8287 55.4814 98.9687C56.5977 99.6297 59.609 101.372 60.9913 101.777C61.253 101.854 61.6788 101.775 61.9308 101.669L63.324 101.078C63.576 100.972 63.7769 100.652 63.778 100.366C63.7909 96.6748 64.3954 92.6182 64.9758 88.5967C65.0166 88.3136 64.8513 87.9831 64.607 87.8587L58.1891 84.591C57.9449 84.4666 57.5539 84.4779 57.3163 84.6164Z" fill="#455A64"/>
<path d="M55.0082 98.1965C54.728 94.7199 54.8688 88.3753 54.9181 86.5257C54.9259 86.2394 55.1301 86.11 55.3728 86.2375L61.3456 89.3699C61.5887 89.4974 61.7663 89.8326 61.744 90.1181C61.6173 91.758 61.2578 96.9915 61.4501 101.344C61.4627 101.63 61.2537 101.853 60.9924 101.777C59.6097 101.372 56.5996 99.6296 55.4829 98.9686C55.2465 98.8286 55.0311 98.482 55.0082 98.1965Z" fill="#37474F"/>
<path d="M61.0649 101.79C61.327 101.843 61.7035 101.763 61.9318 101.667L63.3253 101.076C63.5781 100.974 63.7556 100.65 63.776 100.365C64.0484 96.5737 64.3938 92.6172 64.9764 88.5965C64.9968 88.4608 64.9682 88.322 64.9052 88.1941L61.672 89.7503C61.7246 89.8681 61.7532 89.9967 61.7421 90.1164C61.6146 91.7606 61.2554 96.9933 61.45 101.346C61.4622 101.605 61.2918 101.813 61.0649 101.79Z" fill="#263238"/>
<path d="M56.0778 87.8362L60.4632 90.0754L60.2297 93.843L55.9551 91.8569C55.9551 91.8569 55.9855 89.4316 56.0778 87.8362Z" fill="#263238"/>
<path opacity="0.4" d="M60.2474 93.5556L56.1992 91.6747C56.1992 91.6747 56.2263 89.5349 56.306 87.9525L60.4631 90.0751L60.2474 93.5556Z" fill="black"/>
<path d="M62.3059 87.5971L61.216 88.1482L57.2871 86.1183L58.3456 85.5574L62.3059 87.5971Z" fill="#263238"/>
<path opacity="0.4" d="M62.141 87.68L61.2145 88.1482L57.4502 86.2032L58.3493 85.7268L62.141 87.68Z" fill="black"/>
<path opacity="0.4" d="M61.5817 87.3917L60.6467 87.8548L60.5273 87.793L61.4576 87.3275L61.5817 87.3917Z" fill="black"/>
<path opacity="0.4" d="M60.7429 86.9571L59.8194 87.4253L59.6841 87.3568L60.6184 86.8933L60.7429 86.9571Z" fill="black"/>
<path opacity="0.4" d="M59.9123 86.5307L58.9802 86.9938L58.8608 86.9324L59.7877 86.4666L59.9123 86.5307Z" fill="black"/>
<path opacity="0.4" d="M59.1508 86.1393L58.2194 86.6L58.1001 86.5386L59.0266 86.0752L59.1508 86.1393Z" fill="black"/>
<path d="M60.4212 95.1293L60.3904 95.594C60.3808 95.7367 60.2715 95.8087 60.1458 95.7543L59.3527 95.4109C59.2271 95.3566 59.1318 95.1966 59.1396 95.0534L59.1659 94.5775C59.1737 94.4343 59.2819 94.3631 59.4072 94.4183L60.2114 94.7711C60.3367 94.8262 60.4308 94.9866 60.4212 95.1293Z" fill="#263238"/>
<path d="M60.4296 96.6437L60.4055 97.1087C60.3981 97.2518 60.2899 97.3254 60.1635 97.273L59.366 96.9429C59.2396 96.8905 59.1421 96.7321 59.1477 96.5889L59.167 96.1129C59.1729 95.9698 59.2796 95.8966 59.406 95.9498L60.2147 96.2893C60.3407 96.3417 60.437 96.5005 60.4296 96.6437Z" fill="#263238"/>
<path d="M60.4366 98.1577L60.4192 98.6231C60.414 98.7662 60.3065 98.8417 60.1794 98.7913L59.3774 98.4741C59.2503 98.4236 59.1502 98.2672 59.1539 98.1236L59.1661 97.6473C59.1698 97.5041 59.2758 97.4294 59.4026 97.4802L60.2161 97.8068C60.3432 97.8573 60.4418 98.0145 60.4366 98.1577Z" fill="#263238"/>
<path d="M60.4436 99.6721L60.4332 100.138C60.4299 100.281 60.3239 100.358 60.196 100.31L59.3888 100.005C59.261 99.9572 59.1587 99.8019 59.1602 99.6588L59.1657 99.182C59.1672 99.0389 59.2721 98.9622 59.3996 99.0111L60.2183 99.3244C60.3458 99.3733 60.4466 99.5289 60.4436 99.6721Z" fill="#263238"/>
<path d="M58.6444 94.2751L58.6207 94.7597C58.6137 94.9028 58.5066 94.9744 58.3809 94.9196L57.5934 94.5754C57.4677 94.5207 57.3706 94.3603 57.3762 94.2172L57.3951 93.7212C57.4007 93.5781 57.5063 93.5069 57.6316 93.5625L58.4302 93.916C58.5555 93.9712 58.6515 94.1319 58.6444 94.2751Z" fill="#263238"/>
<path d="M58.6379 95.7785L58.6164 96.263C58.6101 96.4062 58.503 96.4782 58.3774 96.4238L57.588 96.0835C57.4623 96.0295 57.3645 95.8696 57.3693 95.7264L57.386 95.2305C57.3908 95.0874 57.4964 95.0158 57.6217 95.0705L58.4219 95.4202C58.5479 95.4749 58.6446 95.6357 58.6379 95.7785Z" fill="#263238"/>
<path d="M58.6315 97.2823L58.6122 97.7673C58.6067 97.9104 58.5 97.9828 58.3739 97.9296L57.5834 97.5932C57.4574 97.5397 57.3588 97.3801 57.3629 97.2369L57.3774 96.7406C57.3814 96.5975 57.4867 96.5255 57.6123 96.5795L58.4143 96.9252C58.54 96.9792 58.6371 97.1392 58.6315 97.2823Z" fill="#263238"/>
<path d="M58.627 98.7859L58.6099 99.2709C58.6047 99.414 58.4984 99.4872 58.3724 99.4344L57.58 99.1019C57.454 99.0491 57.3547 98.8899 57.358 98.7468L57.3702 98.2505C57.3736 98.1073 57.4788 98.0346 57.6044 98.0881L58.4079 98.43C58.5339 98.4836 58.6318 98.6427 58.627 98.7859Z" fill="#263238"/>
<path d="M56.8674 93.4204L56.8514 93.9249C56.847 94.0681 56.7417 94.1392 56.6165 94.0841L55.8341 93.7391C55.7088 93.684 55.6099 93.5232 55.6129 93.3801L55.624 92.8638C55.6269 92.7207 55.7311 92.6499 55.856 92.7054L56.6495 93.0598C56.7744 93.1161 56.8718 93.2772 56.8674 93.4204Z" fill="#263238"/>
<path d="M56.8726 94.8827L56.8567 95.3872C56.8522 95.5303 56.747 95.6015 56.6217 95.5464L55.839 95.2014C55.7137 95.1463 55.6148 94.9855 55.6177 94.8424L55.6289 94.3261C55.6318 94.183 55.7356 94.1122 55.8609 94.1681L56.6543 94.5225C56.7792 94.5784 56.8771 94.7395 56.8726 94.8827Z" fill="#263238"/>
<path d="M56.8771 96.3457L56.8612 96.8503C56.8568 96.9934 56.7515 97.0646 56.6262 97.0095L55.8439 96.6645C55.7186 96.6093 55.6197 96.4486 55.6226 96.3051L55.6337 95.7888C55.6367 95.6456 55.7409 95.5748 55.8657 95.6308L56.6592 95.9851C56.7841 96.0411 56.8816 96.2026 56.8771 96.3457Z" fill="#263238"/>
<path d="M56.882 97.808L56.8661 98.3125C56.8616 98.4557 56.7564 98.5269 56.6311 98.4717L55.8488 98.1268C55.7235 98.0716 55.6245 97.9109 55.6275 97.7673L55.6386 97.2511C55.6416 97.1079 55.7454 97.0371 55.8706 97.0927L56.6641 97.447C56.789 97.5037 56.8865 97.6649 56.882 97.808Z" fill="#263238"/>
<path d="M147.328 30.8454L142.151 34.0089L144.208 38.8868C144.253 38.9933 144.323 39.0701 144.405 39.1192C144.65 39.2663 146.103 40.1538 146.183 40.2028C146.429 40.353 146.783 40.247 146.877 39.9108L149.11 31.9308L147.328 30.8454Z" fill="#58A4B0"/>
<path opacity="0.15" d="M147.328 30.8454L142.151 34.0089L144.208 38.8868C144.253 38.9933 144.323 39.0701 144.405 39.1192C144.65 39.2663 146.103 40.1538 146.183 40.2028C146.429 40.353 146.783 40.247 146.877 39.9108L149.11 31.9308L147.328 30.8454Z" fill="black"/>
<path d="M143.933 35.0948L145.99 39.9727C146.169 40.3977 146.752 40.357 146.878 39.9108L149.11 31.9309L143.933 35.0948Z" fill="#58A4B0"/>
<path d="M153.846 0.114786L134.322 12.0092C134.075 12.1598 133.875 12.5269 133.875 12.8282V38.3951C133.875 38.6968 134.076 39.0612 134.325 39.2097L135.931 40.1595C136.18 40.3074 136.582 40.3057 136.829 40.155L156.353 28.2606C156.6 28.11 156.801 27.7429 156.801 27.4416V1.87476C156.801 1.57304 156.599 1.20858 156.35 1.06015L154.744 0.110369C154.496 -0.0380626 154.093 -0.0358537 153.846 0.114786Z" fill="#58A4B0"/>
<path opacity="0.5" d="M156.796 1.78864C156.761 1.55054 156.577 1.46528 156.353 1.6009L136.832 13.4962C136.707 13.5726 136.596 13.7016 136.515 13.85L134.016 12.3458C134.097 12.204 134.204 12.0817 134.325 12.0096L153.848 0.114374C154.094 -0.0362657 154.496 -0.0384746 154.747 0.109957L156.351 1.0593C156.577 1.19448 156.765 1.50724 156.796 1.78864Z" fill="white"/>
<path d="M136.382 39.8821V14.3152C136.382 14.0135 136.583 13.6468 136.83 13.4962L156.354 1.60178C156.601 1.45114 156.801 1.57307 156.801 1.87479V27.4417C156.801 27.7434 156.601 28.11 156.354 28.2607L136.83 40.1551C136.583 40.3062 136.382 40.1838 136.382 39.8821Z" fill="#58A4B0"/>
<path opacity="0.15" d="M136.829 40.1551C136.591 40.3013 136.155 40.3062 135.93 40.1604L134.325 39.2089C134.077 39.0627 133.874 38.6978 133.874 38.3965V12.8287C133.874 12.6715 133.93 12.4987 134.017 12.3459L136.513 13.8501C136.43 13.9963 136.381 14.1646 136.381 14.3153V39.8812C136.381 40.1573 136.566 40.3164 136.829 40.1551Z" fill="black"/>
<path d="M138.467 21.436C138.428 21.436 138.39 21.4254 138.355 21.4042C138.285 21.3618 138.242 21.2836 138.242 21.1988V16.7467C138.242 16.6619 138.285 16.5837 138.355 16.5413L142.008 14.3157C142.077 14.2733 142.163 14.2733 142.233 14.3157C142.302 14.3582 142.345 14.4363 142.345 14.5212L142.346 18.9723C142.346 19.0572 142.303 19.1353 142.233 19.1778L138.58 21.4038C138.545 21.425 138.506 21.436 138.467 21.436ZM138.692 16.8837V20.7875L141.896 18.8358L141.896 14.9324L138.692 16.8837Z" fill="#FAFAFA"/>
<path d="M142.55 13.4046C142.324 13.3052 142.064 13.417 141.97 13.6542L140.295 17.8594L139.896 17.4498C139.722 17.2705 139.441 17.2745 139.27 17.4596C139.1 17.6442 139.104 17.9411 139.279 18.1204L140.143 19.0075C140.226 19.0927 140.336 19.1396 140.452 19.1396C140.481 19.1396 140.511 19.1365 140.54 19.1303C140.684 19.0994 140.804 18.9956 140.861 18.8533L142.787 14.0165C142.881 13.7793 142.775 13.5045 142.55 13.4046Z" fill="#455A64"/>
<path d="M145.228 14.184L154.545 8.50602C154.868 8.30944 155.129 8.4508 155.129 8.82144C155.129 9.19207 154.868 9.65195 154.545 9.84853L145.228 15.526C144.905 15.7226 144.644 15.5817 144.644 15.2111C144.643 14.8404 144.905 14.381 145.228 14.184Z" fill="#455A64"/>
<path d="M138.467 28.1131C138.428 28.1131 138.39 28.1025 138.355 28.0813C138.285 28.0389 138.242 27.9607 138.242 27.8759V23.4243C138.242 23.3395 138.285 23.2613 138.355 23.2189L142.008 20.9928C142.078 20.9504 142.164 20.9504 142.233 20.9928C142.303 21.0352 142.346 21.1134 142.346 21.1982V25.6499C142.346 25.7347 142.303 25.8129 142.233 25.8553L138.58 28.0809C138.545 28.1021 138.506 28.1131 138.467 28.1131ZM138.692 23.5612V27.4646L141.896 25.5134V21.6095L138.692 23.5612Z" fill="#FAFAFA"/>
<path d="M142.55 20.0824C142.324 19.9826 142.064 20.0948 141.97 20.332L140.295 24.5371L139.896 24.1276C139.722 23.9483 139.441 23.9522 139.27 24.1373C139.1 24.322 139.104 24.6184 139.279 24.7982L140.143 25.6848C140.226 25.7701 140.336 25.8169 140.452 25.8169C140.481 25.8169 140.511 25.8138 140.54 25.8076C140.684 25.7767 140.804 25.6729 140.861 25.5307L142.787 20.6938C142.881 20.4566 142.775 20.1823 142.55 20.0824Z" fill="#455A64"/>
<path d="M145.226 20.8409L154.544 15.1629C154.866 14.9663 155.128 15.1077 155.128 15.4783C155.128 15.849 154.866 16.3088 154.544 16.5054L145.226 22.1829C144.903 22.3795 144.642 22.2386 144.642 21.8679C144.642 21.4973 144.903 21.0374 145.226 20.8409Z" fill="#455A64"/>
<path d="M138.467 34.7906C138.428 34.7906 138.39 34.7796 138.355 34.7584C138.285 34.716 138.242 34.6378 138.242 34.553V30.1013C138.242 30.0165 138.285 29.9383 138.355 29.8959L142.008 27.6703C142.078 27.6279 142.164 27.6279 142.233 27.6703C142.303 27.7128 142.346 27.7909 142.346 27.8758V32.3274C142.346 32.4122 142.303 32.4904 142.233 32.5328L138.58 34.7588C138.545 34.7796 138.506 34.7906 138.467 34.7906ZM138.692 30.2383V34.1421L141.896 32.1904V28.287L138.692 30.2383Z" fill="#FAFAFA"/>
<path d="M142.55 26.7595C142.324 26.6597 142.064 26.7719 141.97 27.0091L140.295 31.2142L139.896 30.8047C139.722 30.6253 139.441 30.6293 139.27 30.8144C139.1 30.9991 139.104 31.2959 139.279 31.4753L140.143 32.3623C140.226 32.4476 140.336 32.4944 140.452 32.4944C140.481 32.4944 140.511 32.4913 140.54 32.4852C140.684 32.4542 140.804 32.3504 140.861 32.2082L142.787 27.3713C142.881 27.1341 142.775 26.8593 142.55 26.7595Z" fill="#455A64"/>
<path d="M145.226 27.4977L154.544 21.8197C154.866 21.6231 155.128 21.7645 155.128 22.1351C155.128 22.5058 154.866 22.9656 154.544 23.1622L145.226 28.8397C144.903 29.0363 144.642 28.8954 144.642 28.5247C144.642 28.1541 144.903 27.6942 145.226 27.4977Z" fill="#455A64"/>
</svg>
