<svg width="47" height="47" viewBox="0 0 47 47" fill="none" xmlns="http://www.w3.org/2000/svg">
<path d="M8.12646 13.7824C8.12646 12.819 8.87315 12.0381 9.79424 12.0381C10.7153 12.0381 11.462 12.819 11.462 13.7824V33.2182C11.462 34.1815 10.7153 34.9624 9.79424 34.9624C8.87315 34.9624 8.12646 34.1815 8.12646 33.2182V13.7824Z" fill="white"/>
<path d="M12.6445 13.7824C12.6445 12.819 13.3912 12.0381 14.3123 12.0381C15.2334 12.0381 15.9801 12.819 15.9801 13.7824V33.2182C15.9801 34.1815 15.2334 34.9624 14.3123 34.9624C13.3912 34.9624 12.6445 34.1815 12.6445 33.2182V13.7824Z" fill="white"/>
<path d="M31.0195 13.7824C31.0195 12.819 31.7662 12.0381 32.6873 12.0381C33.6084 12.0381 34.3551 12.819 34.3551 13.7824V33.2182C34.3551 34.1815 33.6084 34.9624 32.6873 34.9624C31.7662 34.9624 31.0195 34.1815 31.0195 33.2182V13.7824Z" fill="white"/>
<path d="M35.5381 13.7824C35.5381 12.819 36.2848 12.0381 37.2059 12.0381C38.1269 12.0381 38.8736 12.819 38.8736 13.7824V33.2182C38.8736 34.1815 38.1269 34.9624 37.2059 34.9624C36.2848 34.9624 35.5381 34.1815 35.5381 33.2182V13.7824Z" fill="white"/>
<path d="M17.1626 13.7764C17.1626 12.8164 17.9772 12.0381 18.982 12.0381C19.9868 12.0381 20.8014 12.8164 20.8014 13.7764V17.2438C20.8014 18.2039 19.9868 18.9821 18.982 18.9821C17.9772 18.9821 17.1626 18.2039 17.1626 17.2438V13.7764Z" fill="white"/>
<path d="M17.1626 21.6983C17.1626 20.7005 17.9772 19.8917 18.982 19.8917C19.9868 19.8917 20.8014 20.7005 20.8014 21.6983V25.302C20.8014 26.2997 19.9868 27.1086 18.982 27.1086C17.9772 27.1086 17.1626 26.2997 17.1626 25.302V21.6983Z" fill="white"/>
<path d="M21.6807 21.6983C21.6807 20.7005 22.4952 19.8917 23.5001 19.8917C24.5049 19.8917 25.3194 20.7005 25.3194 21.6983V25.302C25.3194 26.2997 24.5049 27.1086 23.5001 27.1086C22.4952 27.1086 21.6807 26.2997 21.6807 25.302V21.6983Z" fill="white"/>
<path d="M26.5015 13.7764C26.5015 12.8164 27.2482 12.0381 28.1692 12.0381C29.0903 12.0381 29.837 12.8164 29.837 13.7764V17.2438C29.837 18.2039 29.0903 18.9821 28.1692 18.9821C27.2482 18.9821 26.5015 18.2039 26.5015 17.2438V13.7764Z" fill="white"/>
<path d="M26.5015 21.6983C26.5015 20.7005 27.2482 19.8917 28.1692 19.8917C29.0903 19.8917 29.837 20.7005 29.837 21.6983V25.3019C29.837 26.2997 29.0903 27.1086 28.1692 27.1086C27.2482 27.1086 26.5015 26.2997 26.5015 25.3019V21.6983Z" fill="white"/>
<path d="M21.6807 29.7564C21.6807 28.7964 22.4952 28.0181 23.5001 28.0181C24.5049 28.0181 25.3194 28.7964 25.3194 29.7564V33.2238C25.3194 34.1838 24.5049 34.9621 23.5001 34.9621C22.4952 34.9621 21.6807 34.1839 21.6807 33.2238V29.7564Z" fill="white"/>
<path fill-rule="evenodd" clip-rule="evenodd" d="M23.5 44.9565C35.3501 44.9565 44.9565 35.3501 44.9565 23.5C44.9565 11.6499 35.3501 2.04348 23.5 2.04348C11.6499 2.04348 2.04348 11.6499 2.04348 23.5C2.04348 35.3501 11.6499 44.9565 23.5 44.9565ZM23.5 47C36.4787 47 47 36.4787 47 23.5C47 10.5213 36.4787 0 23.5 0C10.5213 0 0 10.5213 0 23.5C0 36.4787 10.5213 47 23.5 47Z" fill="white"/>
</svg>
