<svg width="159" height="29" viewBox="0 0 159 29" fill="none" xmlns="http://www.w3.org/2000/svg">
<path d="M154.778 7.9563C156.985 8.65071 158.089 9.50632 158.089 10.5231C158.461 10.5231 158.765 11.199 159 12.5506C159 12.9598 158.145 15.5266 156.433 20.2511C155.826 22.3591 155.522 23.7046 155.522 24.2874C155.894 25.2546 156.08 25.8684 156.08 26.1288C156.08 26.5256 155.466 26.8294 154.239 27.0402C153.185 27.0402 152.509 26.1846 152.211 24.4734C154.79 17.6657 156.08 13.6294 156.08 12.3646C156.08 11.4222 155.342 10.8703 153.867 10.7091C151.635 12.036 149.818 16.0722 148.417 22.8179C147.983 25.6328 146.922 27.0402 145.236 27.0402C144.306 26.7798 144.418 24.9818 145.571 21.6461C146.724 18.3105 147.592 14.6648 148.175 10.7091C148.175 10.1015 148.789 9.79773 150.016 9.79773C150.413 10.0333 150.717 10.1511 150.928 10.1511C152.019 8.68791 153.302 7.9563 154.778 7.9563Z" fill="#1B1B1E"/>
<path d="M134.037 7.95613H134.67C139.233 9.12175 141.514 10.1572 141.514 11.0624V11.4902C141.514 12.0978 141.099 12.5814 140.268 12.941C138.706 11.5522 137.112 10.8578 135.488 10.8578H134.874C132.431 10.8578 129.939 14.1066 127.397 20.6043V22.2598C127.632 22.8178 128.122 23.0968 128.866 23.0968C131.061 22.08 132.927 19.7983 134.465 16.2519C134.465 15.8551 134.949 14.677 135.916 12.7178H136.734C137.404 12.7178 137.962 13.065 138.408 13.7594C137.156 16.9091 136.53 18.8497 136.53 19.5813C136.393 19.5813 136.325 20.4741 136.325 22.2598V22.8922C136.325 23.909 136.74 24.808 137.571 25.5892C137.286 26.4448 136.939 26.9284 136.53 27.04H136.12C135.215 27.04 134.248 25.9364 133.219 23.7292H133.014C130.745 25.242 128.872 25.9984 127.397 25.9984C125.524 25.9984 124.421 24.7522 124.086 22.2598C124.086 18.5645 125.816 14.5592 129.275 10.244C130.726 8.71874 132.313 7.95613 134.037 7.95613Z" fill="#1B1B1E"/>
<path d="M117.335 10.6717C115.661 11.4281 113.919 13.2385 112.109 16.103C110.732 18.8186 110.044 20.8088 110.044 22.0737C110.044 22.7681 110.608 23.6423 111.737 24.6963H113.597C115.903 23.7663 118.395 21.5838 121.074 18.149H121.465C121.713 18.149 121.837 18.335 121.837 18.707C120.51 21.2614 118.265 23.9461 115.103 26.7609C114.62 27.0089 113.869 27.1329 112.853 27.1329C109.455 27.1329 107.458 25.1985 106.863 21.3296C107.347 18.2172 108.903 15.0985 111.532 11.9737C113.95 9.35725 115.946 8.04902 117.521 8.04902C118.104 7.99942 118.581 8.01182 118.953 8.08623C119.573 8.17303 120.318 8.58843 121.186 9.33245C121.533 9.81605 121.706 10.2129 121.706 10.5229C121.57 11.4157 121.124 11.8621 120.367 11.8621C119.983 11.8621 119.561 11.5893 119.102 11.0437C118.681 10.4857 118.092 10.3617 117.335 10.6717Z" fill="#1B1B1E"/>
<path d="M91.7047 21.404C95.6976 23.6237 98.1962 23.7911 99.2006 21.9062C100.205 20.0214 99.74 18.0436 97.8056 15.9728C93.9739 12.5255 91.9155 9.43784 91.6303 6.7098C92.2503 2.60533 95.0652 0.540692 100.075 0.515892C101.761 0.515892 103.286 2.38212 104.651 6.11459C104.651 7.119 104.142 7.79481 103.125 8.14202C102.108 8.14202 101.47 7.41041 101.209 5.94718C100.949 4.47156 100.199 3.73375 98.9588 3.73375C96.888 4.09335 95.8526 5.14117 95.8526 6.8772C96.2494 8.89843 97.6878 10.9941 100.168 13.1641C102.648 15.3217 103.832 17.343 103.721 19.2278C103.832 22.6999 102.921 24.9691 100.986 26.0355C99.0518 27.1019 96.5966 27.2135 93.6205 26.3703C90.6445 25.5147 88.6419 23.3385 87.6126 19.8416C87.3894 18.552 87.811 18.0436 88.8775 18.3164C89.1627 18.3164 90.1051 19.3456 91.7047 21.404Z" fill="#1B1B1E"/>
<path d="M75.0184 7.95595C76.1344 7.95595 76.8536 8.86737 77.176 10.6902C74.4356 17.9567 73.0653 22.272 73.0653 23.636C73.0653 24.628 73.8465 25.2108 75.409 25.3844C77.7898 23.9708 79.7056 19.6059 81.1565 12.2898C81.6153 9.28898 82.8987 7.84435 85.0067 7.95595C85.6639 8.12956 85.3973 10.0206 84.2069 13.629C83.0165 17.2375 82.1051 21.156 81.4727 25.3844C81.4727 26.0417 80.8217 26.3703 79.5196 26.3703C79.098 26.1099 78.7694 25.9797 78.5338 25.9797C77.3682 27.5421 75.998 28.3233 74.4232 28.3233C72.0795 27.5793 70.9077 26.6679 70.9077 25.589C70.5109 25.589 70.1823 24.8698 69.9219 23.4314C69.9219 22.985 70.8333 20.2446 72.6561 15.2101C73.3133 12.7548 73.6419 11.3164 73.6419 10.8948C73.2575 9.86559 73.0653 9.21457 73.0653 8.94177C73.0653 8.50776 73.7163 8.17916 75.0184 7.95595Z" fill="#1B1B1E"/>
<path d="M61.3288 7.95613C63.536 8.65054 64.6397 9.50616 64.6397 10.523C65.0117 10.523 65.3155 11.1988 65.5511 12.5504C65.5511 12.9596 64.6955 15.5265 62.9842 20.2509C62.3766 22.359 62.0728 23.7044 62.0728 24.2872C62.4448 25.2544 62.6308 25.8682 62.6308 26.1286C62.6308 26.5254 62.017 26.8292 60.7894 27.04C59.7354 27.04 59.0596 26.1844 58.762 24.4732C61.3412 17.6655 62.6308 13.6292 62.6308 12.3644C62.6308 11.422 61.893 10.8702 60.4174 10.709C58.1853 12.0358 56.3687 16.0721 54.9675 22.8178C54.5335 25.6326 53.4733 27.04 51.7868 27.04C50.8568 26.7796 50.9684 24.9816 52.1216 21.646C53.2749 18.3103 54.1429 14.6646 54.7257 10.709C54.7257 10.1014 55.3395 9.79756 56.5671 9.79756C56.9639 10.0332 57.2677 10.151 57.4785 10.151C58.5698 8.68774 59.8532 7.95613 61.3288 7.95613Z" fill="#1B1B1E"/>
<path d="M40.5918 7.9563H41.2242C45.7875 9.12192 48.0691 10.1573 48.0691 11.0626V11.4904C48.0691 12.098 47.6537 12.5816 46.8229 12.9412C45.2605 11.5524 43.667 10.8579 42.0426 10.8579H41.4288C38.986 10.8579 36.4935 14.1068 33.9515 20.6045V22.2599C34.1871 22.8179 34.6769 23.097 35.4209 23.097C37.6157 22.0801 39.482 19.7985 41.0196 16.252C41.0196 15.8552 41.5032 14.6772 42.4704 12.718H43.2888C43.9584 12.718 44.5165 13.0652 44.9629 13.7596C43.7104 16.9092 43.0842 18.8499 43.0842 19.5815C42.9478 19.5815 42.8796 20.4743 42.8796 22.2599V22.8923C42.8796 23.9092 43.295 24.8082 44.1258 25.5894C43.8406 26.445 43.4934 26.9286 43.0842 27.0402H42.675C41.7698 27.0402 40.8026 25.9366 39.7734 23.7294H39.5688C37.2995 25.2422 35.4271 25.9986 33.9515 25.9986C32.079 25.9986 30.9754 24.7524 30.6406 22.2599C30.6406 18.5647 32.3705 14.5594 35.8301 10.2441C37.2809 8.71891 38.8682 7.9563 40.5918 7.9563Z" fill="#1B1B1E"/>
<path d="M12.0011 24.6777L11.7965 24.8451C11.5857 24.8451 11.1145 24.2313 10.3829 23.0037C10.3829 22.2225 10.9533 17.7956 12.0941 9.72307H11.8523C8.71505 14.1499 6.55742 18.366 5.3794 22.3713C4.56098 24.6281 3.46976 26.2091 2.10574 27.1144H1.39893C0.890521 26.8788 0.425513 26.1781 0.00390625 25.0125C0.685918 22.2349 1.67173 19.7672 2.96136 17.6096C4.26338 15.452 7.09682 10.2749 11.4617 2.07834L13.0985 0.497314H14.0471C14.9772 1.10492 15.4422 2.51235 15.4422 4.71958V10.5043H16.149C18.1206 5.817 20.148 2.48135 22.2313 0.497314H23.1613C24.0913 1.10492 24.5563 2.51235 24.5563 4.71958V10.2439C23.3411 21.5405 22.2499 27.1888 21.2827 27.1888H21.0595C19.3358 26.8292 18.474 25.5953 18.474 23.4873L20.8735 9.87187H20.6502C17.575 13.9267 15.7832 17.281 15.2748 19.9346C13.9727 23.0967 12.8815 24.6777 12.0011 24.6777Z" fill="#1B1B1E"/>
</svg>
