<svg width="122" height="143" viewBox="0 0 122 143" fill="none" xmlns="http://www.w3.org/2000/svg">
<rect y="0.138916" width="122" height="138.042" rx="10" fill="#46838D"/>
<path d="M100.108 135.896C93.2302 138.709 80.9091 142.017 60.9996 142.017C41.0902 142.017 28.769 138.709 21.891 135.896C17.3185 134.025 14.549 129.352 15.0882 124.441C15.9902 116.23 18.593 108.057 24.5414 104.355C35.5029 97.5332 46.3838 94.6267 46.3838 94.6267C46.7671 93.4336 47.198 89.4863 47.4236 85.4449C46.0353 84.0029 44.6595 82.4981 43.2085 81.0721C40.4461 78.3573 40.1353 74.4771 39.1492 69.472C37.3372 69.987 36.764 69.1244 36.283 68.3908C35.9551 67.8893 35.8261 67.2883 35.7034 66.7015C35.2618 64.5922 34.8211 62.4828 34.3804 60.3735C34.049 58.7891 33.7158 57.166 33.9406 55.5628C34.048 54.8049 34.3177 54.0105 34.9402 53.5645C35.5627 53.1194 36.6026 53.2268 36.9143 53.9263C36.9143 53.9263 35.9049 43.9985 35.9049 44.8342C35.062 43.8982 34.3947 41.8596 34.6742 40.284C34.9528 38.7094 35.4535 37.1769 35.7033 35.5977C35.9765 33.8637 35.9478 32.0741 36.4458 30.3902C37.1481 28.0167 38.8266 26.0712 40.5346 24.2807C41.7447 23.0124 42.996 21.7799 44.361 20.681C47.0948 18.4838 50.3533 16.8304 53.8392 16.4399C54.958 16.3154 56.0865 16.3207 57.2115 16.3261C58.4735 16.3324 59.7364 16.3386 60.9993 16.3449C62.2622 16.3386 63.5251 16.3324 64.7871 16.3261C65.9121 16.3207 67.0406 16.3154 68.1594 16.4399C71.6454 16.8304 74.904 18.4838 77.6376 20.681C79.0026 21.78 80.2539 23.0125 81.464 24.2807C83.1721 26.0712 84.8506 28.0167 85.5528 30.3902C86.0508 32.0741 86.0221 33.8637 86.2953 35.5977C86.5453 37.1769 87.0459 38.7094 87.3244 40.284C87.6039 41.8595 86.9366 43.8981 86.0937 44.8342C86.0937 43.9985 85.0843 53.9263 85.0843 53.9263C85.396 53.2268 86.436 53.1193 87.0584 53.5645C87.6809 54.0105 87.9506 54.8051 88.058 55.5628C88.2828 57.166 87.9497 58.7891 87.6182 60.3735C87.1775 62.4828 86.7368 64.5922 86.2952 66.7015C86.1725 67.2882 86.0435 67.8892 85.7157 68.3908C85.2347 69.1244 84.6614 69.987 82.8494 69.472C81.8632 74.4771 81.5524 78.3572 78.7901 81.0721C77.3391 82.498 75.9634 84.0028 74.575 85.4449C74.8007 89.4863 75.2316 93.4336 75.6149 94.6267C75.6149 94.6267 86.4957 97.5332 97.4572 104.355C103.405 108.057 106.008 116.23 106.91 124.441C107.45 129.352 104.681 134.026 100.108 135.896Z" fill="white"/>
</svg>
