<svg width="292" height="260" viewBox="0 0 292 260" fill="none" xmlns="http://www.w3.org/2000/svg">
<path d="M145.641 259.364C226.076 259.364 291.282 224.8 291.282 182.162C291.282 139.525 226.076 104.96 145.641 104.96C65.2057 104.96 0 139.525 0 182.162C0 224.8 65.2057 259.364 145.641 259.364Z" fill="#D8DBE2"/>
<path d="M232.659 194.88C247.283 194.88 259.138 188.596 259.138 180.844C259.138 173.092 247.283 166.808 232.659 166.808C218.035 166.808 206.18 173.092 206.18 180.844C206.18 188.596 218.035 194.88 232.659 194.88Z" fill="#9C9C9C"/>
<path d="M63.6382 190.793L182.079 253.579L236.364 224.803L117.898 162.004L63.6382 190.793Z" fill="#9C9C9C"/>
<path d="M42.5813 203.176L18.0693 190.182C17.3428 189.797 17.3428 189.173 18.0693 188.788L104.27 143.095C104.996 142.71 106.173 142.71 106.9 143.095L131.411 156.088C132.138 156.473 132.138 157.098 131.411 157.483L45.2116 203.176C44.4851 203.561 43.3072 203.561 42.5813 203.176Z" fill="#9C9C9C"/>
<path d="M120.07 4.99128L47.3143 43.5524C45.8576 44.3293 44.6719 46.2144 44.6719 47.7621V198.406C44.6719 199.954 45.8582 200.584 47.3143 199.807L120.07 161.246C121.526 160.469 122.712 158.584 122.712 157.036V6.39229C122.713 4.8446 121.526 4.21437 120.07 4.99128ZM118.904 143.156C118.904 144.48 117.891 145.325 116.636 145.987L50.484 181.052C49.2357 181.715 48.2158 181.179 48.2158 179.849V61.843C48.2158 60.5122 49.2351 58.901 50.484 58.2322L116.636 23.1737C117.891 22.505 118.905 23.0465 118.905 24.3711V143.156H118.904Z" fill="#373F51"/>
<path d="M46.9848 199.96C45.5178 200.58 43.3819 200.526 42.0194 199.81L38.9931 198.204C37.5261 197.428 36.3403 195.552 36.3403 193.994V43.3601C36.3403 42.7706 36.5104 42.1453 36.799 41.5436C36.8907 41.345 36.9958 41.1526 37.1136 40.9602C37.1203 40.9602 37.1203 40.954 37.1203 40.954L45.4455 45.3684H45.4522C45.2754 45.6573 45.1181 45.9579 44.9935 46.2586C44.7906 46.7639 44.6728 47.2809 44.6728 47.7622V198.409C44.6728 199.834 45.6812 200.484 46.9848 199.96Z" fill="#1B1B1E"/>
<path d="M84.3204 167.289C86.6275 166.066 88.4973 167.057 88.4973 169.503C88.4973 171.949 86.6275 174.922 84.3204 176.145C82.0133 177.369 80.1436 176.377 80.1436 173.931C80.1436 171.486 82.0133 168.512 84.3204 167.289Z" fill="#58A4B0"/>
<path d="M83.6893 27.5205C84.6691 27.0013 85.4631 27.4224 85.4631 28.4609C85.4631 29.4993 84.6691 30.762 83.6893 31.2813C82.7095 31.8005 81.9155 31.3794 81.9155 30.3409C81.9149 29.303 82.7095 28.0398 83.6893 27.5205Z" fill="black"/>
<path d="M76.843 37.4265L90.5375 30.1671C91.3545 29.7338 92.0167 30.0416 92.0167 30.8542C92.0167 31.6668 91.3545 32.6769 90.5375 33.1097L76.8424 40.369C76.0254 40.8024 75.3633 40.4945 75.3633 39.6819C75.3639 38.8693 76.0266 37.8593 76.843 37.4265Z" fill="black"/>
<path d="M118.904 143.032C118.904 144.357 117.891 145.201 116.635 145.864L50.4836 180.928C49.2352 181.59 48.2153 181.056 48.2153 179.725V61.7193C48.2153 60.388 49.2346 58.7767 50.4836 58.1086L116.636 23.05C117.891 22.3813 118.904 22.9228 118.904 24.2474V143.032H118.904Z" fill="#58A4B0" stroke="white" stroke-miterlimit="10"/>
<path d="M122.685 6.00684C122.495 4.74415 121.395 4.28681 120.072 4.99066L47.31 43.5523C46.5829 43.9371 45.9214 44.6047 45.4433 45.3688L37.1182 40.9544C37.6029 40.1903 38.2577 39.535 38.9916 39.1502L111.74 0.581846C113.194 -0.193949 115.565 -0.193949 117.033 0.581846L120.072 2.1814C121.407 2.89752 122.515 4.53946 122.685 6.00684Z" fill="#485167"/>
<path d="M229.097 62.3192C225.239 62.4854 223.916 63.1608 221.897 65.3449C219.925 67.477 210.409 83.6684 210.409 83.6684C210.409 83.6684 212.194 88.264 216.101 87.873L223.408 77.0565L229.097 62.3192Z" fill="#FFB8B8"/>
<path d="M229.611 62.3261C229.611 62.3261 226.84 61.9943 224.863 62.6507C222.887 63.3072 221.899 64.6206 220.538 66.5291C219.484 68.0054 215.795 74.1365 215.795 74.1365C215.795 74.1365 217.593 78.7255 222.703 78.7255L229.611 62.3261Z" fill="#D8DBE2"/>
<path d="M242.833 177.464V176.697C242.503 177.598 240.973 181.474 238.653 183.416C236.809 184.961 234.293 186.744 233.653 188.467C232.988 190.257 237.154 190.859 238.878 190.579C240.88 190.253 243.47 189.211 244.879 187.62C245.871 186.502 246.502 185.177 247.209 184.297C247.917 183.418 249.549 182.436 249.931 181.419C250.142 180.86 249.892 179.635 249.597 178.6C249.326 177.651 249.032 176.608 248.679 176.697C248.678 176.813 248.679 177.282 248.679 177.282C248.255 177.714 247.08 178.142 245.756 178.189C244.901 178.219 242.826 178.063 242.833 177.464Z" fill="#1B1B1E"/>
<path d="M236.983 184.775C237.555 184.306 238.13 183.848 238.653 183.411C240.273 182.053 241.508 179.752 242.218 178.181C242.623 177.284 242.832 176.327 242.832 175.356V172.296H248.679V177.276V177.277V177.409L248.649 177.423C248.368 178.539 245.684 181.506 244.16 183.44C243.138 184.738 241.197 186.387 238.876 186.672C236.678 186.942 235.554 186.306 236.983 184.775Z" fill="#FFB8B8"/>
<path d="M222.194 172.173V171.405C221.864 172.306 220.334 176.182 218.015 178.125C216.171 179.669 213.655 181.453 213.015 183.174C212.349 184.965 216.516 185.567 218.239 185.287C220.242 184.961 222.832 183.918 224.241 182.328C225.232 181.21 225.864 179.884 226.571 179.005C227.279 178.125 228.91 177.144 229.293 176.126C229.503 175.568 229.254 174.343 228.958 173.308C228.688 172.359 228.394 171.316 228.041 171.405C228.039 171.52 228.041 171.99 228.041 171.99C227.616 172.422 226.442 172.85 225.118 172.897C224.262 172.927 222.187 172.772 222.194 172.173Z" fill="#1B1B1E"/>
<path d="M216.346 179.483C216.918 179.014 217.494 178.556 218.016 178.119C219.636 176.762 220.872 174.46 221.581 172.889C221.987 171.992 222.195 171.035 222.195 170.064V167.005H228.042V171.985V171.985V172.118L228.012 172.131C227.731 173.247 225.048 176.214 223.523 178.149C222.501 179.446 220.56 181.096 218.24 181.38C216.041 181.65 214.918 181.014 216.346 179.483Z" fill="#FFB8B8"/>
<path d="M247.513 94.0398C252.046 103.129 247.35 135.147 247.35 135.147C247.486 136.623 249.323 139.525 250.008 146.016C250.816 153.687 248.739 172.947 248.739 172.947C248.739 172.947 246.032 174.572 242.83 173.163C242.83 173.163 237.258 144.156 236.21 136.53C235.296 129.874 233.54 115.239 233.54 115.239L230.72 136.493C230.72 136.493 232 140.222 232.3 143.062C232.773 147.548 228.039 168.435 228.039 168.435C228.039 168.435 226.022 169.114 222.192 168.596C222.192 168.596 220.517 140.879 220.076 135.475C219.335 126.4 219.793 98.0822 221.606 92.7102L247.513 94.0398Z" fill="#485167"/>
<path d="M233.541 115.238L232.069 106.796C232.069 106.796 225.843 105.612 223.02 103.175C223.02 103.175 225.982 106.558 230.382 107.666L232.035 114.166L230.909 135.076L233.541 115.238Z" fill="#373F51"/>
<path d="M239.517 62.4622C241.241 62.571 241.817 62.5325 243.067 62.6502C245.566 62.8861 246.168 66.2413 247.19 68.2235C248.297 70.3691 248.31 72.8565 247.465 75.1002L243.415 85.856C243.415 85.856 245.311 90.064 247.513 94.0395C237.351 99.2469 224.661 96.5096 221.605 92.7093C221.476 91.9034 222.261 85.6016 222.745 81.4851C220.955 77.3629 220.483 74.75 221.238 72.0249C222.639 66.9669 227.662 62.3133 229.1 62.3178L239.517 62.4622Z" fill="white"/>
<path d="M248.206 42.0463L246.103 41.8784C246.355 41.7457 246.576 41.555 246.728 41.3018C247.184 40.5421 246.882 39.56 246.053 39.1082L244.697 41.3692C242.455 37.8394 238.202 35.5527 233.451 35.7853L232.366 35.8383C225.602 36.169 220.41 41.4719 220.771 47.6821C221.143 54.0982 221.554 61.275 221.554 61.275L234.174 60.6582C241.332 60.3085 246.826 54.6972 246.445 48.125L246.351 46.4317C246.289 45.3486 246.052 44.3129 245.683 43.3369C245.868 43.4245 246.073 43.4836 246.294 43.5014C247.235 43.5756 248.091 42.9247 248.206 42.0463Z" fill="#1B1B1E"/>
<path d="M223.035 48.4349C222.949 49.7188 222.997 50.4216 223.139 52.1248C223.62 57.8984 225.744 59.2264 226.793 59.5883C227.841 59.9497 229.803 59.6028 231.707 59.2152L231.706 62.629C231.706 62.629 229.417 65.6458 229.676 67.2286C229.936 68.8114 233.624 69.0077 236.019 67.3323C238.414 65.6569 239.385 62.8069 239.385 62.8069L239.383 54.827C239.383 54.827 240.773 56.3541 242.819 54.9564C244.866 53.5588 244.76 50.3535 243.461 49.2643C242.161 48.175 239.474 48.6368 239.07 50.2492C239.07 50.2492 234.64 49.9084 234.077 43.2085C229.96 48.1377 223.297 44.5827 223.035 48.4349Z" fill="#FFB8B8"/>
<path d="M239.045 49.8024L239.211 52.663C238.04 52.7205 237.04 51.895 236.978 50.8197L236.793 47.6273L239.045 49.8024Z" fill="#1B1B1E"/>
<path d="M231.706 59.2148C233.717 58.8718 237.819 57.5695 238.38 56.0257C238.38 56.0257 238.219 56.9867 237.032 58.0263C235.844 59.0664 231.706 60.3715 231.706 60.3715V59.2148Z" fill="#F28F8F"/>
<path d="M236.918 95.049C240.256 94.3234 240.89 93.1689 240.008 90.1254C239.975 90.0099 239.94 89.9107 239.905 89.832C239.252 88.3892 236.643 89.247 236.643 89.247C236.643 89.247 237.71 88.0255 238.908 86.4689C240.106 84.9123 240.643 82.3373 240.802 80.5314C240.963 78.7255 241.283 75.1075 241.283 75.1075C241.283 75.1075 243.88 73.6809 242.868 71.0707L246.877 68.8091C246.877 68.8091 247.17 68.9965 247.631 69.291C248.268 71.1694 248.173 73.2202 247.464 75.1014L243.415 85.8571C243.415 85.8571 245.807 89.7249 247.512 94.0406C240.023 97.8783 231.166 97.3992 225.799 95.3613C230.038 95.9642 233.965 95.6909 236.918 95.049Z" fill="#E6E6E6"/>
<path d="M201.995 80.2461L222.518 85.2093L228.167 106.529L208.655 101.326L201.995 80.2461Z" fill="#58A4B0"/>
<path opacity="0.25" d="M201.995 80.2461L222.518 85.2093L228.167 106.529L208.655 101.326L201.995 80.2461Z" fill="#58A4B0"/>
<path opacity="0.2" d="M215.824 97.8551C215.954 99.0085 216.835 100.344 219.399 101.468C221.963 102.592 226.958 101.964 226.958 101.964L226.263 99.3409L215.824 97.8551Z" fill="black"/>
<g opacity="0.2">
<path d="M211.269 95.3439C211.079 95.8219 210.16 97.4382 207.49 97.6356L207.283 96.9786L211.269 95.3439Z" fill="black"/>
</g>
<g opacity="0.1">
<path d="M208.178 83.6327C208.178 83.6327 208.103 83.3109 208.009 82.9138C207.915 82.5167 209.12 82.5 210.699 82.8759L213.723 83.5959C215.303 83.9718 216.659 84.5987 216.752 84.9952L216.922 85.7141L208.178 83.6327Z" fill="black"/>
</g>
<path d="M206.603 80.9311C206.544 80.6829 207.031 80.6182 207.693 80.7855L208.89 81.0889C208.89 81.0889 208.533 79.5346 211.19 80.0778C213.847 80.621 214.428 82.3856 214.428 82.3856C214.428 82.3856 215 82.5351 215.706 82.7192C216.412 82.9032 217.052 83.2529 217.135 83.5L217.286 83.9473L206.715 81.3918C206.715 81.3918 206.663 81.1793 206.603 80.9311Z" fill="#1B1B1E"/>
<path d="M208.059 81.6979C209.028 81.9126 209.43 82.0303 209.576 82.6421C209.741 83.341 209.808 83.8541 209.808 83.8541L214.487 84.9896C214.487 84.9896 214.261 84.1045 214.189 83.7598C214.117 83.4151 214.276 83.2071 215.021 83.3878L215.084 83.114L207.752 81.4001L208.059 81.6979Z" fill="#1B1B1E"/>
<path d="M207.896 83.7002C207.896 83.7002 207.82 83.3784 207.726 82.9813C207.633 82.5842 208.837 82.5675 210.417 82.9434L213.441 83.6634C215.02 84.0393 216.376 84.6662 216.469 85.0633L216.639 85.7822L207.896 83.7002Z" fill="#1B1B1E"/>
<path d="M204.159 87.0907C204.159 87.0907 204.926 89.5012 205.102 90.0756C205.278 90.6501 207.577 91.683 209.086 92.0633C210.594 92.4437 212.244 92.8949 211.53 94.8313C210.872 96.6172 208.39 97.0249 207.125 96.9741C205.861 96.9239 204.131 95.8146 203.45 94.0265C202.58 91.746 203.049 89.3104 202.703 87.978C202.358 86.6467 203.403 86.2965 204.159 87.0907Z" fill="#FFB8B8"/>
<path d="M242.599 62.6118C245.26 62.7669 248.011 64.0898 248.429 67.0245C248.846 69.9593 251.434 85.4071 250.419 87.1461C248.07 91.1679 232.579 98.8154 231.04 99.4696C229.501 100.124 226.942 101.199 223.892 101.23C221.476 101.254 218.262 101.182 216.637 99.1762C215.195 97.3971 214.38 94.1127 217.638 94.6776C220.896 95.2426 225.105 94.9788 225.105 94.9788L224.725 93.546C224.725 93.546 225.586 93.4752 227.211 93.9186C228.837 94.362 230.314 93.0803 233.185 91.4523C236.886 89.3525 242.52 84.913 242.52 84.913L240.222 72.0145C240.224 72.0145 240.147 66.4384 242.599 62.6118Z" fill="#FFB8B8"/>
<path d="M242.116 62.6117C242.116 62.6117 243.54 62.3111 245.104 62.8577C246.668 63.4048 248.057 64.1326 248.706 67.0244C249.356 69.9162 250.64 80.4896 250.64 80.4896C250.64 80.4896 247.232 82.7517 241.682 81.677L239.688 72.083C239.688 72.083 238.135 65.3674 242.116 62.6117Z" fill="#D8DBE2"/>
<path d="M52.4611 113.687L117.4 79.2638L117.402 87.5248L52.4604 121.949L52.4611 113.687Z" fill="#485167"/>
<path d="M55.0605 115.065V117.818L114.805 86.1486V83.3945L55.0605 115.065Z" fill="#1B1B1E"/>
<path d="M52.4619 113.687L49.8638 112.31L114.804 77.8865L117.401 79.2641L52.4619 113.687Z" fill="#373F51"/>
<path d="M49.8638 112.31L52.4619 113.687L52.4612 121.949L49.8644 120.572L49.8638 112.31Z" fill="#1B1B1E"/>
<path d="M239.496 221.106L182.343 251.382V250.037L239.49 219.761L239.496 221.106Z" fill="#373F51"/>
<path d="M127.795 138.347L115.207 145.02L107.469 149.119C107.219 149.236 106.976 149.365 106.74 149.506C103.856 151.139 101.823 154.045 101.823 157.609L101.816 190.821C101.816 194.05 100.141 196.752 97.666 198.442C95.8819 199.669 93.6817 200.373 91.4056 200.373C89.6792 200.373 87.9078 199.969 86.2325 199.082C76.5891 193.968 70.6482 184.521 70.6482 174.299V139.848C70.6482 134.734 69.1648 129.814 66.4726 125.54C63.7803 121.26 59.8859 117.619 55.064 115.065L112.21 84.7716C117.038 87.3316 120.933 90.9835 123.625 95.2574C126.317 99.5374 127.801 104.452 127.801 109.566V124.573C127.801 128.865 127.795 138.347 127.795 138.347Z" fill="#F5F5F5"/>
<path d="M148.58 232.134C138.937 227.026 132.996 217.579 132.996 207.357L132.993 174.124C132.993 170.237 132.136 166.474 130.543 163.01C130.039 161.912 129.463 160.849 128.817 159.816C126.125 155.541 122.23 151.901 117.409 149.347C110.482 145.679 101.827 150.272 101.831 157.614L101.833 160.999L101.825 157.608L101.818 190.821L101.819 183.911V190.809C101.819 198.152 93.1655 202.746 86.2338 199.082C76.5905 193.968 70.6496 184.521 70.6496 174.299V139.848C70.6496 134.734 69.1662 129.814 66.4739 125.54C63.7817 121.26 59.8873 117.619 55.0659 115.065V116.439C63.9099 121.406 69.3709 130.301 69.3709 139.848V174.299C69.3709 184.908 75.5864 194.79 85.5942 200.097C89.2456 202.035 93.6071 202.035 97.2646 200.097C97.4881 199.98 97.7056 199.856 97.9231 199.722L97.9425 199.71C101.185 197.719 103.097 194.443 103.097 190.821L103.103 157.608C103.103 154.584 104.804 151.872 107.656 150.363C110.508 148.848 113.917 148.848 116.769 150.363C122.53 153.416 126.93 158.119 129.418 163.603C130.908 166.89 131.713 170.461 131.713 174.124L131.714 181.835L131.716 207.357C131.716 217.961 137.932 227.848 147.94 233.156L182.344 251.382V250.038L148.58 232.134Z" fill="#485167"/>
<path d="M239.489 219.762L182.342 250.037L148.578 232.134C138.934 227.026 132.993 217.579 132.993 207.357L132.99 174.124C132.99 170.237 132.133 166.474 130.541 163.01C130.036 161.912 129.46 160.849 128.815 159.816C126.122 155.541 122.228 151.901 117.406 149.347C114.113 147.598 110.429 147.721 107.469 149.118L115.207 145.02L130.774 136.767L164.098 119.106L164.181 119.059C167.205 117.456 171.094 117.233 174.553 119.065C179.375 121.619 183.269 125.259 185.962 129.54C188.654 133.819 190.137 138.74 190.137 143.848L190.14 177.075C190.14 187.297 196.081 196.744 205.725 201.857L239.489 219.762Z" fill="#FAFAFA"/>
<path d="M131.711 174.124C131.711 170.46 130.905 166.89 129.415 163.603C126.928 158.119 122.528 153.416 116.766 150.363C113.914 148.848 110.506 148.848 107.654 150.363C104.802 151.872 103.101 154.584 103.101 157.608L103.094 190.821C103.094 194.443 101.182 197.72 97.9401 199.71L97.9207 199.721C97.7032 199.856 97.4858 199.98 97.2622 200.097L131.712 181.835L131.711 174.124Z" fill="#D8DBE2"/>
<path opacity="0.79" d="M131.711 174.124C131.711 170.46 130.905 166.89 129.415 163.603C126.928 158.119 122.528 153.416 116.766 150.363C113.914 148.848 110.506 148.848 107.654 150.363C104.802 151.872 103.101 154.584 103.101 157.608L103.094 190.821C103.094 194.443 101.182 197.72 97.9401 199.71L97.9207 199.721C97.7032 199.856 97.4858 199.98 97.2622 200.097L131.712 181.835L131.711 174.124Z" fill="black"/>
<mask id="mask0_395_2902" style="mask-type:luminance" maskUnits="userSpaceOnUse" x="55" y="84" width="73" height="117">
<path d="M127.8 138.347L115.211 145.02L107.473 149.118C107.224 149.236 106.981 149.365 106.745 149.506C103.86 151.138 101.827 154.045 101.827 157.608L101.821 190.821C101.821 194.05 100.145 196.751 97.6704 198.442C95.8863 199.669 93.6861 200.373 91.41 200.373C89.6836 200.373 87.9122 199.968 86.2369 199.081C76.5935 193.968 70.6526 184.521 70.6526 174.299V139.848C70.6526 134.734 69.1692 129.814 66.477 125.539C63.7847 121.259 59.8903 117.619 55.0684 115.065L112.215 84.7713C117.043 87.3313 120.937 90.9832 123.629 95.2571C126.322 99.5371 127.805 104.452 127.805 109.566V124.573C127.806 128.864 127.8 138.347 127.8 138.347Z" fill="white"/>
</mask>
<g mask="url(#mask0_395_2902)">
<path d="M65.2159 115.23C66.4187 116.174 68.5387 116.376 70.0683 115.566L110.847 93.9495C112.376 93.1386 112.737 91.6221 111.54 90.6751C110.344 89.7281 108.051 89.7119 106.522 90.5223L65.7232 112.15C64.1936 112.961 64.0132 114.286 65.2159 115.23Z" fill="#58A4B0"/>
<path opacity="0.4" d="M98.0938 107.054C97.9371 107.054 97.7846 106.979 97.7008 106.846C97.575 106.646 97.6497 106.392 97.866 106.277L116.932 96.1702C117.15 96.0553 117.427 96.1233 117.551 96.3219C117.677 96.521 117.602 96.7753 117.386 96.8902L98.3198 106.997C98.2487 107.035 98.1703 107.054 98.0938 107.054Z" fill="black"/>
<path opacity="0.4" d="M99.563 109.308C99.4063 109.308 99.2538 109.233 99.17 109.1C99.0443 108.901 99.119 108.646 99.3352 108.531L118.401 98.4248C118.618 98.3099 118.896 98.3785 119.02 98.5765C119.146 98.7756 119.071 99.03 118.855 99.1448L99.789 109.251C99.7179 109.289 99.6396 109.308 99.563 109.308Z" fill="black"/>
<path opacity="0.4" d="M100.801 111.655C100.644 111.655 100.492 111.58 100.408 111.447C100.282 111.248 100.357 110.994 100.573 110.879L119.639 100.772C119.857 100.657 120.134 100.725 120.258 100.923C120.384 101.122 120.309 101.377 120.093 101.492L101.027 111.599C100.956 111.637 100.878 111.655 100.801 111.655Z" fill="black"/>
<path opacity="0.4" d="M101.794 114.096C101.637 114.096 101.485 114.022 101.401 113.888C101.275 113.689 101.35 113.435 101.566 113.32L120.632 103.214C120.849 103.1 121.126 103.167 121.251 103.365C121.377 103.564 121.302 103.819 121.086 103.934L102.02 114.04C101.949 114.078 101.871 114.096 101.794 114.096Z" fill="black"/>
<path opacity="0.4" d="M102.522 116.489C102.365 116.489 102.212 116.414 102.128 116.281C102.003 116.082 102.077 115.828 102.294 115.713L121.359 105.606C121.576 105.491 121.853 105.559 121.978 105.758C122.104 105.957 122.029 106.211 121.813 106.326L102.747 116.433C102.676 116.471 102.598 116.489 102.522 116.489Z" fill="black"/>
<path opacity="0.4" d="M103.01 119.061C102.854 119.061 102.701 118.986 102.617 118.853C102.492 118.653 102.566 118.399 102.782 118.284L121.848 108.177C122.066 108.063 122.343 108.131 122.467 108.329C122.593 108.528 122.518 108.782 122.302 108.897L103.236 119.004C103.165 119.042 103.087 119.061 103.01 119.061Z" fill="black"/>
<path opacity="0.4" d="M103.276 121.804C103.119 121.804 102.967 121.73 102.883 121.596C102.757 121.397 102.832 121.143 103.048 121.028L122.114 110.922C122.331 110.807 122.608 110.875 122.733 111.074C122.859 111.273 122.784 111.527 122.567 111.642L103.501 121.749C103.43 121.786 103.352 121.804 103.276 121.804Z" fill="black"/>
<path opacity="0.4" d="M76.0921 141.372C75.9821 141.372 75.874 141.319 75.8157 141.226C75.727 141.085 75.7792 140.906 75.9323 140.825L122.195 116.301C122.347 116.22 122.544 116.267 122.632 116.408C122.72 116.549 122.668 116.728 122.515 116.809L76.2524 141.333C76.2014 141.36 76.1461 141.372 76.0921 141.372Z" fill="black"/>
<path opacity="0.4" d="M76.0921 143.994C75.9821 143.994 75.874 143.941 75.8157 143.847C75.727 143.707 75.7792 143.527 75.9323 143.446L122.195 118.922C122.347 118.84 122.544 118.888 122.632 119.029C122.72 119.17 122.668 119.349 122.515 119.43L76.2524 143.954C76.2014 143.982 76.1461 143.994 76.0921 143.994Z" fill="black"/>
<path opacity="0.4" d="M76.0921 146.616C75.9821 146.616 75.874 146.563 75.8157 146.469C75.727 146.329 75.7792 146.149 75.9323 146.068L122.195 121.545C122.347 121.463 122.544 121.511 122.632 121.652C122.72 121.792 122.668 121.972 122.515 122.053L76.2524 146.576C76.2014 146.603 76.1461 146.616 76.0921 146.616Z" fill="black"/>
<path opacity="0.4" d="M76.0921 149.238C75.9821 149.238 75.874 149.185 75.8157 149.091C75.727 148.951 75.7792 148.771 75.9323 148.69L122.195 124.167C122.347 124.085 122.544 124.133 122.632 124.274C122.72 124.414 122.668 124.594 122.515 124.675L76.2524 149.198C76.2014 149.225 76.1461 149.238 76.0921 149.238Z" fill="black"/>
<path opacity="0.4" d="M76.0916 137.561C75.9816 137.561 75.8735 137.508 75.8152 137.414C75.7265 137.274 75.7787 137.094 75.9318 137.013L100.424 124.029C100.576 123.948 100.772 123.995 100.861 124.136C100.949 124.277 100.897 124.457 100.744 124.537L76.2519 137.521C76.2009 137.548 76.1456 137.561 76.0916 137.561Z" fill="black"/>
<path d="M75.4008 122.507C76.3715 124.285 77.1655 126.057 77.6691 127.821C78.2188 129.437 78.5389 131.431 78.7297 133.637C78.7649 134.042 79.0978 134.205 79.4799 134.002L80.8418 133.28C81.2239 133.078 81.5155 132.586 81.482 132.181C81.3126 130.133 80.942 128.134 80.3358 126.195C79.6779 124.263 78.9629 122.502 78.1441 121.053C77.9406 120.693 77.4504 120.574 77.0683 120.777L75.7294 121.487C75.3461 121.689 75.2028 122.144 75.4008 122.507Z" fill="#58A4B0"/>
<path d="M79.4415 117.316C80.6856 119.091 81.7821 121.221 82.7194 123.731C83.4744 125.747 83.9713 128.075 84.1821 130.751C84.2137 131.156 84.5423 131.319 84.9244 131.117L86.2857 130.395C86.6678 130.193 86.9624 129.7 86.9315 129.295C86.7462 126.911 86.2377 124.577 85.4426 122.288C84.5903 119.931 83.4975 117.815 82.1872 115.916C81.9509 115.574 81.4376 115.462 81.0519 115.659L79.6973 116.35C79.3103 116.546 79.2022 116.975 79.4415 117.316Z" fill="#58A4B0"/>
<path d="M90.1913 119.769L88.8531 120.479C88.471 120.681 88.2784 121.156 88.4078 121.543C89.025 123.394 89.4369 125.494 89.6233 127.866C89.6549 128.271 89.983 128.434 90.3657 128.232L91.727 127.51C92.109 127.308 92.4037 126.814 92.3727 126.41C92.2062 124.269 91.7798 122.168 91.1183 120.105C90.9932 119.716 90.5734 119.567 90.1913 119.769Z" fill="#58A4B0"/>
<path d="M95.6362 114.781C95.4728 114.405 95.0196 114.265 94.6363 114.466L93.2877 115.17C92.9038 115.37 92.7337 115.835 92.8977 116.211C93.1419 116.772 93.377 117.355 93.603 117.96C94.3581 119.976 94.855 122.304 95.0658 124.98C95.0973 125.385 95.426 125.549 95.8081 125.346L97.1694 124.625C97.5515 124.422 97.8461 123.928 97.8151 123.524C97.6298 121.14 97.122 118.806 96.3262 116.517C96.1112 115.923 95.881 115.345 95.6362 114.781Z" fill="#58A4B0"/>
<path opacity="0.4" d="M77.0321 132.523C76.9695 132.423 76.8304 132.39 76.7229 132.447L76.1531 132.749C76.0286 132.027 75.8816 131.313 75.703 130.61L76.4732 130.202C76.582 130.144 76.619 130.017 76.5565 129.918C76.4939 129.817 76.3536 129.783 76.2473 129.841L75.5876 130.191C75.3956 129.483 75.1812 128.783 74.9345 128.097L75.6671 127.709C75.7759 127.651 75.8129 127.524 75.7504 127.425C75.6872 127.324 75.5481 127.291 75.4412 127.348L74.7809 127.698C74.5282 127.029 74.2566 126.368 73.9517 125.721C73.9432 125.704 73.9341 125.686 73.9262 125.668L74.6533 125.283C74.762 125.226 74.7991 125.099 74.7365 124.999C74.6739 124.898 74.5348 124.865 74.4273 124.923L73.7415 125.286C73.425 124.633 73.0745 123.982 72.6906 123.337L73.4159 122.952C73.5246 122.894 73.5617 122.767 73.4991 122.668C73.436 122.568 73.2969 122.534 73.1899 122.592L72.4713 122.972C72.0868 122.349 71.6701 121.732 71.2248 121.12L72.0406 120.687C72.1494 120.63 72.1864 120.503 72.1239 120.404C72.0613 120.303 71.921 120.27 71.8147 120.327L70.9709 120.774C70.4904 120.133 69.9808 119.498 69.4347 118.872C69.3581 118.782 69.2141 118.768 69.1163 118.839C69.0192 118.911 69.0034 119.042 69.0811 119.131C69.6126 119.741 70.1089 120.359 70.5773 120.982L69.7997 121.395C69.691 121.452 69.6539 121.579 69.7165 121.679C69.7584 121.745 69.8344 121.783 69.9127 121.783C69.9516 121.783 69.9899 121.774 70.0257 121.755L70.8312 121.328C71.2777 121.94 71.695 122.558 72.0789 123.18L71.175 123.66C71.0663 123.717 71.0298 123.844 71.0918 123.943C71.1337 124.01 71.2096 124.048 71.288 124.048C71.3269 124.048 71.3651 124.039 71.401 124.02L72.2976 123.545C72.6821 124.191 73.0314 124.841 73.3473 125.495L72.4124 125.99C72.3037 126.048 72.2666 126.175 72.3292 126.274C72.3711 126.341 72.447 126.378 72.5254 126.378C72.5643 126.378 72.6025 126.37 72.6384 126.351L73.5319 125.877C73.5332 125.88 73.5344 125.882 73.5356 125.885C73.8478 126.547 74.126 127.224 74.3824 127.909L73.4262 128.416C73.3175 128.474 73.2805 128.601 73.343 128.7C73.3849 128.767 73.4609 128.805 73.5392 128.805C73.5781 128.805 73.617 128.796 73.6522 128.777L74.5355 128.309C74.7803 128.996 74.991 129.698 75.1806 130.407L74.2323 130.91C74.1236 130.967 74.0865 131.095 74.1491 131.194C74.191 131.261 74.267 131.298 74.3453 131.298C74.3842 131.298 74.4225 131.289 74.4583 131.27L75.2954 130.827C75.4715 131.532 75.6131 132.249 75.7346 132.972L74.7086 133.516C74.5998 133.573 74.5634 133.7 74.6254 133.8C74.6673 133.866 74.7432 133.904 74.8216 133.904C74.8604 133.904 74.8993 133.894 74.9345 133.876L75.8111 133.411C75.9435 134.289 76.0353 135.179 76.0869 136.081C76.093 136.192 76.1932 136.279 76.3129 136.279C76.3165 136.279 76.3202 136.279 76.325 136.278C76.4501 136.273 76.5461 136.174 76.5394 136.059C76.4842 135.089 76.3791 134.132 76.2315 133.189L76.9507 132.808C77.0576 132.75 77.0947 132.623 77.0321 132.523Z" fill="black"/>
<g opacity="0.15">
<path d="M79.3516 173.286C79.1633 171.719 79.0935 170.131 79.1457 168.558C79.3316 167.952 82.0907 159.258 87.1665 156.549C87.5274 156.353 87.8633 156.225 88.167 156.164C88.314 156.134 88.4525 156.119 88.5825 156.119C89.928 156.119 90.5312 157.838 91.1156 159.501C91.3586 160.193 91.6101 160.91 91.9168 161.5C92.2625 162.168 92.8517 163.056 93.9713 163.056C94.3983 163.056 94.8533 162.927 95.3623 162.662C97.8025 161.386 98.5041 157.929 99.247 154.268C99.5817 152.617 99.9286 150.91 100.446 149.42C101.185 147.284 102.145 145.961 103.467 145.258C103.892 145.033 104.271 144.919 104.596 144.919C106.011 144.919 106.546 147.232 107.064 149.469C107.347 150.695 107.64 151.962 108.092 152.897C108.607 153.975 109.286 154.499 110.163 154.499C110.611 154.499 111.09 154.361 111.626 154.077C114.621 152.49 115.527 149.799 116.404 147.197C117.148 144.988 117.851 142.901 119.826 141.846C120.351 141.564 120.845 141.422 121.295 141.422C121.518 141.422 121.736 141.457 121.942 141.527C122.036 142.24 122.037 142.767 122.037 142.772L122.069 148.041C122.123 149.047 122.196 149.84 122.297 150.52L79.3516 173.286Z" fill="#58A4B0"/>
<path d="M122.643 150.676C122.515 149.889 122.439 148.997 122.388 148.04L122.355 142.773C122.355 142.773 122.355 142.151 122.234 141.323C121.948 141.199 121.635 141.13 121.294 141.13C120.809 141.13 120.267 141.27 119.663 141.593C115.257 143.947 116.939 150.923 111.465 153.823C110.967 154.087 110.537 154.205 110.162 154.205C109.346 154.205 108.795 153.639 108.382 152.778C107.094 150.109 107.129 144.626 104.595 144.626C104.224 144.626 103.798 144.743 103.305 145.004C101.738 145.838 100.798 147.429 100.14 149.331C98.5092 154.029 98.6046 160.628 95.2028 162.407C94.7296 162.653 94.3232 162.763 93.9697 162.763C93.1606 162.763 92.6266 162.19 92.2038 161.373C91.1511 159.347 90.7812 155.826 88.5816 155.826C88.4297 155.826 88.2687 155.842 88.0987 155.878C87.7725 155.943 87.408 156.078 87.0052 156.295C81.5952 159.183 78.8265 168.513 78.8265 168.513C78.7651 170.305 78.8587 172.054 79.0901 173.763L79.717 173.431C79.6842 173.268 79.6538 173.126 79.6186 172.805C79.4716 171.411 79.4193 170.001 79.4637 168.603C79.72 167.78 82.4323 159.416 87.3296 156.801C87.6607 156.623 87.965 156.505 88.2402 156.451C88.3611 156.426 88.4759 156.413 88.5822 156.413C89.6944 156.413 90.2618 158.029 90.8103 159.591C91.057 160.292 91.3115 161.018 91.6268 161.625C91.8473 162.052 92.5191 163.35 93.9703 163.35C94.4545 163.35 94.9611 163.208 95.5199 162.917C98.0889 161.574 98.8038 158.052 99.5607 154.323C99.8942 152.68 100.239 150.981 100.75 149.509C101.464 147.447 102.378 146.176 103.625 145.513C104.001 145.314 104.327 145.213 104.595 145.213C105.751 145.213 106.282 147.507 106.75 149.531C107.037 150.771 107.334 152.053 107.798 153.014C108.363 154.194 109.159 154.793 110.163 154.793C110.668 154.793 111.198 154.642 111.785 154.331C114.889 152.687 115.856 149.816 116.709 147.284C117.433 145.131 118.118 143.098 119.986 142.1C120.46 141.846 120.901 141.716 121.294 141.716C121.415 141.716 121.532 141.728 121.646 141.753C121.715 142.348 121.716 142.769 121.716 142.776L121.749 148.068C121.797 148.976 121.862 149.718 121.951 150.364C121.991 150.645 122.033 150.857 122.074 150.976L122.643 150.676Z" fill="black"/>
</g>
<g opacity="0.4">
<path d="M78.831 165.855V168.513C78.7739 170.33 78.8553 172.053 79.0922 173.763L122.643 150.676C122.517 149.891 122.438 148.997 122.387 148.037L122.356 142.773C122.356 142.773 122.356 134.908 116.913 137.793C111.192 140.825 112.81 150.456 108.749 152.608C104.651 154.78 106.027 146.186 100.585 149.071C95.1424 151.956 97.8638 158.379 92.421 161.264C86.9782 164.149 89.6996 149.598 84.2568 152.483C78.814 155.368 78.8146 162.533 78.831 165.855Z" fill="#58A4B0"/>
</g>
<path opacity="0.4" d="M76.837 177.82C76.758 177.82 76.6821 177.782 76.6402 177.715C76.5782 177.615 76.6159 177.489 76.7246 177.431L123.047 153.079C123.156 153.022 123.295 153.056 123.356 153.156C123.418 153.256 123.381 153.383 123.272 153.44L76.9494 177.793C76.9135 177.811 76.8753 177.82 76.837 177.82Z" fill="black"/>
<path d="M84.2539 153.884C84.1288 153.884 84.0273 153.79 84.0273 153.676L84.0279 153.259C84.0279 153.145 84.13 153.051 84.2545 153.051C84.3791 153.051 84.4811 153.145 84.4811 153.259L84.4805 153.676C84.4805 153.79 84.3791 153.884 84.2539 153.884Z" fill="white"/>
<path d="M84.3839 169.88C84.2679 169.88 84.1689 169.799 84.1585 169.691C84.1318 169.426 84.1093 169.158 84.0911 168.889C84.0832 168.774 84.178 168.675 84.3031 168.668C84.4513 168.653 84.5358 168.748 84.5437 168.862C84.5619 169.127 84.5844 169.391 84.6099 169.653C84.622 169.768 84.5297 169.869 84.4052 169.879C84.3979 169.88 84.3906 169.88 84.3839 169.88ZM84.2776 168.285C84.1537 168.285 84.0528 168.193 84.051 168.079C84.0474 167.849 84.0443 167.581 84.0413 167.278C84.0407 167.163 84.1415 167.069 84.2661 167.068C84.4021 167.046 84.4932 167.16 84.4944 167.275C84.4969 167.576 84.4999 167.844 84.5036 168.074C84.5054 168.189 84.4058 168.283 84.28 168.285C84.2806 168.285 84.2788 168.285 84.2776 168.285ZM84.263 166.685C84.1385 166.685 84.0376 166.593 84.0364 166.478L84.0322 165.677C84.0316 165.562 84.1324 165.469 84.2582 165.468C84.3833 165.468 84.4847 165.561 84.4853 165.676L84.4896 166.475C84.4902 166.59 84.3894 166.683 84.2642 166.685C84.2642 166.685 84.2636 166.685 84.263 166.685ZM84.2545 165.084C84.1294 165.084 84.0285 164.991 84.0279 164.877L84.0261 164.077C84.0261 163.962 84.1276 163.869 84.2521 163.869C84.3772 163.869 84.4787 163.962 84.4793 164.076L84.4811 164.876C84.4811 164.991 84.3796 165.084 84.2545 165.084ZM84.2509 163.484C84.1257 163.484 84.0243 163.391 84.0243 163.276L84.0237 162.477C84.0237 162.362 84.1257 162.269 84.2503 162.269C84.3754 162.269 84.4768 162.362 84.4768 162.477L84.4774 163.276C84.4774 163.391 84.376 163.484 84.2509 163.484ZM84.249 161.884C84.1239 161.884 84.0225 161.791 84.0225 161.676V160.876C84.0225 160.762 84.1245 160.668 84.249 160.668C84.3742 160.668 84.4756 160.762 84.4756 160.876V161.676C84.4756 161.791 84.3742 161.884 84.249 161.884ZM84.249 160.284C84.1239 160.284 84.0225 160.191 84.0225 160.076V159.276C84.0225 159.161 84.1245 159.068 84.249 159.068C84.3742 159.068 84.4756 159.162 84.4756 159.276V160.076C84.4756 160.191 84.3742 160.284 84.249 160.284ZM84.249 158.684H84.2484C84.1233 158.683 84.0225 158.59 84.0225 158.475L84.0231 157.676C84.0231 157.561 84.1251 157.468 84.2496 157.468C84.3742 157.468 84.4762 157.561 84.4762 157.676L84.4756 158.477C84.475 158.591 84.3742 158.684 84.249 158.684ZM84.2503 157.084C84.1245 157.084 84.0237 156.991 84.0237 156.876L84.0243 156.076C84.0243 155.961 84.1257 155.868 84.2509 155.868C84.376 155.868 84.4774 155.962 84.4774 156.076L84.4768 156.877C84.4762 156.991 84.3754 157.084 84.2503 157.084ZM84.2515 155.485C84.1263 155.485 84.0249 155.391 84.0249 155.277L84.0261 154.479C84.0267 154.364 84.1282 154.27 84.2527 154.27C84.2527 154.27 84.2527 154.27 84.2533 154.27C84.3784 154.271 84.4793 154.362 84.4793 154.477L84.4781 155.277C84.4781 155.391 84.3766 155.485 84.2515 155.485Z" fill="white"/>
<path d="M84.5301 171.085C84.4184 171.085 84.3212 171.009 84.3054 170.904C84.2853 170.766 84.2659 170.627 84.2483 170.489C84.2331 170.375 84.3224 170.271 84.4469 170.259C84.572 170.246 84.6844 170.327 84.6978 170.441C84.7154 170.578 84.7348 170.714 84.7543 170.85C84.7707 170.963 84.6838 171.068 84.5593 171.083C84.5502 171.085 84.5398 171.085 84.5301 171.085Z" fill="white"/>
<path d="M116.919 138.418C116.794 138.418 116.693 138.324 116.693 138.21L116.693 137.793C116.694 137.678 116.796 137.586 116.92 137.586C117.046 137.586 117.147 137.68 117.147 137.794L117.146 138.21C117.146 138.324 117.045 138.418 116.919 138.418Z" fill="white"/>
<path d="M117.051 154.414C116.935 154.414 116.836 154.333 116.826 154.225C116.799 153.96 116.777 153.692 116.759 153.423C116.751 153.308 116.845 153.209 116.97 153.202C117.11 153.195 117.202 153.283 117.211 153.396C117.229 153.662 117.251 153.926 117.277 154.188C117.289 154.303 117.197 154.404 117.072 154.414C117.065 154.414 117.058 154.414 117.051 154.414ZM116.945 152.819C116.821 152.819 116.72 152.728 116.718 152.614C116.715 152.384 116.712 152.115 116.709 151.813C116.709 151.697 116.81 151.604 116.934 151.603H116.936C117.06 151.603 117.161 151.695 117.163 151.809C117.165 152.111 117.168 152.378 117.172 152.608C117.173 152.723 117.074 152.818 116.948 152.819C116.948 152.819 116.946 152.819 116.945 152.819ZM116.93 151.219C116.805 151.219 116.705 151.127 116.703 151.012L116.699 150.211C116.698 150.096 116.799 150.003 116.925 150.002H116.926C117.051 150.002 117.152 150.095 117.152 150.21L117.156 151.009C117.157 151.124 117.056 151.217 116.931 151.219H116.93ZM116.922 149.618C116.797 149.618 116.696 149.525 116.695 149.41L116.694 148.611C116.694 148.495 116.795 148.403 116.92 148.402H116.92C117.045 148.402 117.146 148.495 117.147 148.61L117.149 149.409C117.149 149.525 117.048 149.617 116.923 149.618H116.922ZM116.918 148.018C116.793 148.018 116.692 147.925 116.692 147.81L116.691 147.011C116.691 146.896 116.793 146.802 116.918 146.802C117.043 146.802 117.144 146.896 117.144 147.011L117.145 147.81C117.145 147.925 117.043 148.018 116.918 148.018ZM116.917 146.418C116.791 146.418 116.69 146.325 116.69 146.21V145.41C116.69 145.296 116.792 145.202 116.917 145.202C117.042 145.202 117.143 145.296 117.143 145.41V146.21C117.143 146.325 117.042 146.418 116.917 146.418ZM116.917 144.819C116.791 144.819 116.69 144.726 116.69 144.611V143.811C116.69 143.697 116.792 143.603 116.917 143.603C117.042 143.603 117.143 143.697 117.143 143.811V144.611C117.143 144.726 117.042 144.819 116.917 144.819ZM116.917 143.218C116.791 143.217 116.69 143.124 116.69 143.009L116.691 142.21C116.691 142.095 116.793 142.002 116.917 142.002C117.042 142.002 117.144 142.096 117.144 142.21L117.143 143.011C117.142 143.125 117.042 143.218 116.917 143.218ZM116.917 141.618H116.917C116.791 141.618 116.691 141.525 116.691 141.41L116.691 140.61C116.691 140.495 116.793 140.402 116.918 140.402C117.043 140.402 117.144 140.496 117.144 140.61L117.144 141.411C117.143 141.526 117.042 141.618 116.917 141.618ZM116.919 140.019C116.793 140.018 116.692 139.925 116.692 139.81L116.693 139.011C116.693 138.896 116.795 138.802 116.92 138.802C117.044 138.802 117.146 138.896 117.146 139.011L117.146 139.811C117.145 139.926 117.044 140.019 116.919 140.019Z" fill="white"/>
<path d="M117.196 155.619C117.085 155.619 116.987 155.543 116.972 155.439C116.951 155.301 116.932 155.162 116.914 155.024C116.899 154.91 116.987 154.806 117.111 154.793C117.244 154.776 117.349 154.86 117.363 154.974C117.382 155.111 117.401 155.247 117.421 155.384C117.437 155.498 117.351 155.603 117.226 155.618C117.216 155.619 117.206 155.619 117.196 155.619Z" fill="white"/>
<path d="M100.582 150.416C100.457 150.416 100.355 150.322 100.355 150.208V149.792C100.355 149.677 100.458 149.583 100.582 149.583C100.707 149.583 100.809 149.677 100.809 149.792V150.208C100.809 150.322 100.707 150.416 100.582 150.416Z" fill="white"/>
<path d="M100.713 161.337C100.597 161.337 100.498 161.256 100.488 161.148C100.461 160.888 100.439 160.627 100.421 160.364C100.413 160.249 100.508 160.151 100.633 160.143C100.779 160.134 100.866 160.223 100.874 160.337C100.892 160.596 100.914 160.853 100.939 161.109C100.951 161.224 100.859 161.325 100.735 161.335C100.727 161.336 100.72 161.337 100.713 161.337ZM100.606 159.778C100.482 159.778 100.381 159.687 100.379 159.572L100.369 158.792C100.368 158.677 100.468 158.583 100.594 158.582C100.595 158.582 100.595 158.582 100.596 158.582C100.721 158.582 100.821 158.673 100.823 158.788L100.832 159.568C100.834 159.683 100.733 159.777 100.608 159.778C100.608 159.778 100.606 159.778 100.606 159.778ZM100.589 158.219C100.465 158.219 100.363 158.126 100.362 158.012L100.358 157.231C100.357 157.116 100.458 157.023 100.583 157.022C100.584 157.022 100.584 157.022 100.584 157.022C100.71 157.022 100.81 157.115 100.811 157.229L100.815 158.01C100.816 158.125 100.716 158.218 100.59 158.219C100.59 158.219 100.589 158.219 100.589 158.219ZM100.582 156.658C100.457 156.658 100.356 156.565 100.355 156.45L100.354 155.67C100.354 155.555 100.455 155.462 100.58 155.461C100.705 155.461 100.806 155.555 100.807 155.669L100.809 156.449C100.809 156.565 100.707 156.657 100.582 156.658ZM100.58 155.098C100.454 155.098 100.353 155.004 100.353 154.89V154.109C100.353 153.994 100.455 153.901 100.58 153.901C100.704 153.901 100.806 153.995 100.806 154.109V154.89C100.806 155.004 100.704 155.098 100.58 155.098ZM100.58 153.537H100.579C100.454 153.536 100.353 153.443 100.353 153.328L100.354 152.548C100.354 152.434 100.455 152.34 100.58 152.34C100.705 152.34 100.807 152.434 100.807 152.548L100.806 153.329C100.806 153.444 100.704 153.537 100.58 153.537ZM100.581 151.976H100.58C100.455 151.976 100.354 151.883 100.354 151.768L100.355 150.988C100.355 150.873 100.457 150.78 100.581 150.78C100.706 150.78 100.808 150.874 100.808 150.988L100.807 151.769C100.807 151.883 100.705 151.976 100.581 151.976Z" fill="white"/>
<path d="M100.862 162.524C100.75 162.524 100.653 162.448 100.637 162.344C100.617 162.206 100.598 162.068 100.579 161.928C100.564 161.814 100.653 161.711 100.777 161.697C100.899 161.68 101.014 161.765 101.029 161.879C101.047 162.016 101.067 162.152 101.087 162.289C101.103 162.403 101.016 162.508 100.892 162.523C100.882 162.524 100.872 162.524 100.862 162.524Z" fill="white"/>
<path opacity="0.4" d="M84.2518 151.659C84.6843 151.43 85.0348 151.581 85.0348 151.999C85.0348 152.415 84.6843 152.939 84.2518 153.168C83.8193 153.397 83.4688 153.246 83.4688 152.828C83.4681 152.412 83.8193 151.888 84.2518 151.659Z" fill="black"/>
<path opacity="0.4" d="M100.583 148.189C101.016 147.96 101.366 148.112 101.366 148.529C101.366 148.946 101.016 149.469 100.583 149.699C100.151 149.928 99.8003 149.776 99.8003 149.359C99.8003 148.943 100.151 148.419 100.583 148.189Z" fill="black"/>
<path opacity="0.4" d="M116.913 137.039C117.346 136.81 117.696 136.961 117.696 137.378C117.696 137.794 117.346 138.318 116.913 138.547C116.481 138.777 116.13 138.625 116.13 138.208C116.13 137.792 116.481 137.268 116.913 137.039Z" fill="black"/>
<path opacity="0.4" d="M77.1382 156.501C77.2469 156.443 77.284 156.316 77.2214 156.217C77.1582 156.117 77.0191 156.083 76.9122 156.141L76.3199 156.455V154.307L77.1388 153.873C77.2475 153.816 77.2846 153.689 77.222 153.59C77.1588 153.489 77.0197 153.455 76.9128 153.513L76.3199 153.827V151.566C76.3199 151.451 76.2179 151.358 76.0933 151.358C75.9682 151.358 75.8668 151.451 75.8668 151.566V154.068L75.0461 154.503C74.9374 154.56 74.9003 154.687 74.9629 154.786C75.0048 154.853 75.0807 154.891 75.1591 154.891C75.198 154.891 75.2362 154.882 75.2721 154.863L75.8668 154.548V156.695L75.0455 157.13C74.9367 157.187 74.8997 157.315 74.9623 157.414C75.0042 157.481 75.0801 157.518 75.1585 157.518C75.1974 157.518 75.2362 157.509 75.2715 157.49L75.8668 157.175V159.322L75.0449 159.758C74.9361 159.815 74.8991 159.943 74.9617 160.042C75.0036 160.109 75.0795 160.146 75.1579 160.146C75.1967 160.146 75.2356 160.137 75.2709 160.118L75.8668 159.803V161.949L75.0443 162.385C74.9355 162.443 74.8991 162.57 74.9611 162.669C75.003 162.736 75.0789 162.774 75.1573 162.774C75.1961 162.774 75.235 162.765 75.2702 162.746L75.8668 162.429V164.577L75.0437 165.013C74.9349 165.07 74.8979 165.197 74.9604 165.297C75.0024 165.364 75.0783 165.401 75.1566 165.401C75.1955 165.401 75.2338 165.392 75.2696 165.373L75.8668 165.057V167.204L75.0431 167.641C74.9343 167.698 74.8973 167.825 74.9598 167.925C75.0018 167.992 75.0777 168.029 75.156 168.029C75.1949 168.029 75.2332 168.02 75.269 168.001L75.8668 167.684V169.831L75.0425 170.268C74.9337 170.326 74.8967 170.453 74.9592 170.552C75.0011 170.619 75.0771 170.656 75.1554 170.656C75.1943 170.656 75.2332 170.648 75.2684 170.629L75.8625 170.313C75.8485 171.027 75.8558 171.738 75.8892 172.446L75.0418 172.895C74.9331 172.953 74.8961 173.08 74.9586 173.179C75.0005 173.246 75.0765 173.283 75.1548 173.283C75.1937 173.283 75.232 173.274 75.2678 173.255L75.9172 172.911C75.9658 173.693 76.0387 174.469 76.1444 175.234C76.159 175.339 76.2567 175.416 76.3691 175.416C76.3782 175.416 76.388 175.415 76.3977 175.414C76.5216 175.399 76.6097 175.295 76.5939 175.181C76.4797 174.359 76.4013 173.523 76.3545 172.68L77.1345 172.267C77.2433 172.209 77.2803 172.082 77.2177 171.983C77.1546 171.882 77.0155 171.849 76.9085 171.906L76.3357 172.21C76.3072 171.5 76.2993 170.787 76.3187 170.071L77.1351 169.639C77.2439 169.581 77.2809 169.454 77.2183 169.355C77.1552 169.254 77.0161 169.221 76.9092 169.278L76.3205 169.591V167.444L77.1363 167.012C77.2451 166.954 77.2821 166.827 77.2196 166.728C77.1564 166.627 77.0179 166.593 76.9104 166.651L76.3211 166.964V164.817L77.1376 164.384C77.2463 164.327 77.2834 164.2 77.2208 164.1C77.1576 164 77.0185 163.967 76.9116 164.024L76.3217 164.337V162.19L77.1388 161.756C77.2475 161.699 77.2846 161.572 77.222 161.472C77.1588 161.371 77.0197 161.339 76.9128 161.396L76.3224 161.709V159.563L77.14 159.129C77.2487 159.072 77.2858 158.945 77.2232 158.846C77.16 158.745 77.0215 158.712 76.914 158.769L76.3224 159.083V156.935L77.1382 156.501Z" fill="black"/>
<path d="M133.896 169.382L90.3863 192.447C88.8567 193.257 86.6401 193.161 85.5443 192.126C84.4484 191.091 84.8967 189.513 86.4263 188.703L129.923 165.645C131.453 164.834 133.486 165.097 134.585 166.13C135.685 167.162 135.425 168.571 133.896 169.382Z" fill="#58A4B0"/>
<path opacity="0.4" d="M77.6428 180.602C77.5329 180.602 77.4248 180.549 77.3664 180.455C77.2778 180.315 77.33 180.135 77.4831 180.054L126.491 154.075C126.643 153.994 126.839 154.041 126.927 154.183C127.016 154.323 126.964 154.503 126.811 154.584L77.8032 180.562C77.7522 180.589 77.6975 180.602 77.6428 180.602Z" fill="black"/>
<path opacity="0.4" d="M78.641 183.035C78.531 183.035 78.4229 182.982 78.364 182.888C78.2753 182.748 78.3275 182.568 78.4806 182.487L127.496 156.504C127.648 156.422 127.844 156.47 127.932 156.611C128.021 156.751 127.969 156.931 127.816 157.012L78.8008 182.995C78.7503 183.022 78.6957 183.035 78.641 183.035Z" fill="black"/>
<path opacity="0.4" d="M79.8787 185.367C79.7687 185.367 79.6606 185.314 79.6023 185.22C79.5136 185.08 79.5658 184.9 79.7189 184.819L128.741 158.833C128.894 158.751 129.09 158.799 129.177 158.94C129.266 159.081 129.214 159.26 129.061 159.341L80.039 185.327C79.988 185.355 79.9327 185.367 79.8787 185.367Z" fill="black"/>
<path opacity="0.4" d="M81.3392 187.587C81.2293 187.587 81.1212 187.534 81.0622 187.441C80.9736 187.3 81.0258 187.121 81.1789 187.04L130.207 161.05C130.36 160.968 130.556 161.016 130.644 161.157C130.733 161.297 130.68 161.477 130.527 161.558L81.499 187.548C81.4486 187.574 81.3939 187.587 81.3392 187.587Z" fill="black"/>
</g>
<path d="M124.124 144.553L164.452 123.179C165.982 122.369 168.417 121.887 169.788 122.396C171.16 122.904 170.897 124.219 169.368 125.03L128.57 146.652C127.041 147.462 124.865 147.547 123.647 146.944C122.429 146.34 122.595 145.363 124.124 144.553Z" fill="#58A4B0"/>
<path opacity="0.4" d="M128.799 150.43C128.689 150.43 128.581 150.377 128.522 150.283C128.433 150.143 128.485 149.963 128.638 149.882L175.121 125.247C175.274 125.165 175.47 125.213 175.558 125.354C175.647 125.494 175.595 125.674 175.442 125.755L128.958 150.39C128.908 150.418 128.853 150.43 128.799 150.43Z" fill="black"/>
<path opacity="0.4" d="M130.725 152.338C130.615 152.338 130.507 152.285 130.449 152.192C130.36 152.051 130.413 151.871 130.566 151.791L177.12 127.118C177.273 127.037 177.47 127.084 177.557 127.225C177.646 127.366 177.594 127.545 177.44 127.626L130.886 152.299C130.835 152.325 130.78 152.338 130.725 152.338Z" fill="black"/>
<path opacity="0.4" d="M138.436 174.158C138.31 174.157 138.209 174.064 138.209 173.949L138.218 171.685C138.225 169.98 138.225 169.98 138.172 168.827L138.162 168.636C137.985 165.873 137.427 163.276 136.506 160.92C135.696 158.681 134.326 156.484 132.316 154.197C132.237 154.108 132.252 153.977 132.349 153.905C132.446 153.833 132.59 153.847 132.667 153.936C134.713 156.262 136.109 158.502 136.934 160.784C137.868 163.173 138.435 165.81 138.615 168.616L138.624 168.81C138.678 169.973 138.678 169.973 138.67 171.688L138.662 173.951C138.662 174.065 138.56 174.158 138.436 174.158Z" fill="black"/>
<path d="M137.966 156.345C137.759 156.012 137.536 155.684 137.298 155.361C137.05 155.025 137.146 154.598 137.528 154.395L155.29 144.981C155.672 144.778 156.191 144.881 156.422 145.227C156.635 145.548 156.838 145.885 157.036 146.239C157.237 146.599 157.081 147.061 156.699 147.263L139.035 156.625C138.652 156.828 138.185 156.698 137.966 156.345Z" fill="#58A4B0"/>
<path d="M139.697 160.102C139.83 160.477 139.952 160.847 140.063 161.214C140.181 161.604 140.574 161.76 140.957 161.557L183.098 139.224C183.48 139.021 183.704 138.538 183.588 138.147C183.472 137.76 183.352 137.388 183.228 137.031C183.094 136.645 182.664 136.499 182.282 136.702L140.133 159.04C139.75 159.242 139.56 159.716 139.697 160.102Z" fill="#58A4B0"/>
<path opacity="0.7" d="M139.697 160.102C139.83 160.477 139.952 160.847 140.063 161.214C140.181 161.604 140.574 161.76 140.957 161.557L183.098 139.224C183.48 139.021 183.704 138.538 183.588 138.147C183.472 137.76 183.352 137.388 183.228 137.031C183.094 136.645 182.664 136.499 182.282 136.702L140.133 159.04C139.75 159.242 139.56 159.716 139.697 160.102Z" fill="white"/>
<path d="M140.923 165.251C140.978 165.663 141.023 166.064 141.058 166.453C141.094 166.857 141.419 167.021 141.801 166.819L170.349 151.689C170.732 151.487 171.023 150.993 170.987 150.59C170.951 150.188 170.906 149.789 170.853 149.392C170.798 148.99 170.434 148.829 170.052 149.031L141.512 164.157C141.13 164.36 140.87 164.849 140.923 165.251Z" fill="#58A4B0"/>
<path opacity="0.15" d="M140.923 165.251C140.978 165.663 141.023 166.064 141.058 166.453C141.094 166.857 141.419 167.021 141.801 166.819L170.349 151.689C170.732 151.487 171.023 150.993 170.987 150.59C170.951 150.188 170.906 149.789 170.853 149.392C170.798 148.99 170.434 148.829 170.052 149.031L141.512 164.157C141.13 164.36 140.87 164.849 140.923 165.251Z" fill="black"/>
<path d="M141.155 170.595V171.774C141.155 172.179 141.465 172.343 141.847 172.141L154.069 165.663C154.451 165.461 154.762 164.968 154.762 164.562V163.383C154.762 162.978 154.452 162.814 154.069 163.016L141.847 169.494C141.465 169.697 141.155 170.19 141.155 170.595Z" fill="#58A4B0"/>
<path opacity="0.5" d="M141.155 170.595V171.774C141.155 172.179 141.465 172.343 141.847 172.141L154.069 165.663C154.451 165.461 154.762 164.968 154.762 164.562V163.383C154.762 162.978 154.452 162.814 154.069 163.016L141.847 169.494C141.465 169.697 141.155 170.19 141.155 170.595Z" fill="white"/>
<path opacity="0.4" d="M184.696 151.963C184.571 151.963 184.469 152.057 184.469 152.171V153.18L181.212 154.906V154.151C181.212 154.036 181.11 153.943 180.986 153.943C180.861 153.943 180.759 154.036 180.759 154.151V155.146L177.502 156.872V156.131C177.502 156.016 177.4 155.923 177.275 155.923C177.15 155.923 177.049 156.016 177.049 156.131V157.112L173.792 158.838V158.11C173.792 157.995 173.69 157.902 173.565 157.902C173.44 157.902 173.338 157.995 173.338 158.11V159.079L170.081 160.806V160.091C170.081 159.976 169.979 159.883 169.854 159.883C169.73 159.883 169.628 159.977 169.628 160.091V161.046L166.37 162.772V162.071C166.37 161.956 166.268 161.863 166.144 161.863C166.019 161.863 165.917 161.957 165.917 162.071V163.012L162.66 164.739V164.05C162.66 163.936 162.558 163.842 162.433 163.842C162.308 163.842 162.207 163.936 162.207 164.05V164.978L158.95 166.705V166.03C158.95 165.915 158.848 165.822 158.723 165.822C158.599 165.822 158.497 165.915 158.497 166.03V166.944L155.239 168.671V168.01C155.239 167.895 155.137 167.802 155.013 167.802C154.888 167.802 154.786 167.895 154.786 168.01V168.91L151.529 170.637V169.989C151.529 169.874 151.427 169.781 151.302 169.781C151.178 169.781 151.076 169.875 151.076 169.989V170.876L147.819 172.603V171.968C147.819 171.854 147.717 171.76 147.592 171.76C147.467 171.76 147.366 171.854 147.366 171.968V172.843L144.108 174.57V173.949C144.108 173.835 144.006 173.741 143.881 173.741C143.756 173.741 143.655 173.835 143.655 173.949V174.81L140.827 176.308C140.719 176.366 140.682 176.493 140.744 176.592C140.786 176.659 140.862 176.696 140.94 176.696C140.979 176.696 141.018 176.687 141.053 176.668L143.655 175.29V176.135C143.655 176.25 143.757 176.343 143.881 176.343C144.006 176.343 144.108 176.249 144.108 176.135V175.05L147.366 173.323V174.155C147.366 174.27 147.468 174.363 147.592 174.363C147.717 174.363 147.819 174.269 147.819 174.155V173.083L151.076 171.357V172.175C151.076 172.29 151.178 172.383 151.302 172.383C151.427 172.383 151.529 172.289 151.529 172.175V171.116L154.786 169.39V170.195C154.786 170.31 154.888 170.403 155.013 170.403C155.138 170.403 155.239 170.309 155.239 170.195V169.15L158.497 167.424V168.214C158.497 168.329 158.598 168.422 158.723 168.422C158.848 168.422 158.95 168.329 158.95 168.214V167.183L162.207 165.457V166.234C162.207 166.349 162.309 166.442 162.433 166.442C162.559 166.442 162.66 166.349 162.66 166.234V165.217L165.917 163.49V164.255C165.917 164.369 166.019 164.463 166.144 164.463C166.268 164.463 166.37 164.369 166.37 164.255V163.25L169.628 161.524V162.274C169.628 162.389 169.73 162.482 169.854 162.482C169.979 162.482 170.081 162.388 170.081 162.274V161.284L173.338 159.557V160.294C173.338 160.409 173.441 160.502 173.565 160.502C173.69 160.502 173.792 160.408 173.792 160.294V159.316L177.049 157.59V158.314C177.049 158.429 177.151 158.522 177.275 158.522C177.401 158.522 177.502 158.429 177.502 158.314V157.35L180.759 155.624V156.334C180.759 156.449 180.861 156.542 180.986 156.542C181.111 156.542 181.212 156.449 181.212 156.334V155.383L184.469 153.657V154.354C184.469 154.469 184.572 154.562 184.696 154.562C184.821 154.562 184.923 154.468 184.923 154.354V152.168C184.923 152.057 184.821 151.963 184.696 151.963Z" fill="black"/>
<path d="M148.976 179.398C148.228 179.545 147.428 179.833 146.603 180.279C142.095 182.709 138.443 188.792 138.443 193.865C138.443 194 138.443 194.129 138.449 194.258L146.597 190.835L148.976 179.398Z" fill="#58A4B0"/>
<path d="M148.975 179.398L146.597 190.835L154.673 186.532C154.731 186.068 154.763 185.604 154.763 185.147C154.763 180.971 152.326 178.752 148.975 179.398Z" fill="#58A4B0"/>
<path d="M153.65 190.389C154.168 189.115 154.526 187.806 154.673 186.532L146.597 190.835L153.65 190.389Z" fill="#58A4B0"/>
<path d="M138.45 194.258C138.635 199.055 142.217 201.057 146.603 198.732C149.615 197.135 152.244 193.894 153.651 190.389L146.597 190.835L138.45 194.258Z" fill="#58A4B0"/>
<path opacity="0.7" d="M148.982 179.398L146.603 190.835L154.68 186.532C154.737 186.068 154.769 185.604 154.769 185.147C154.769 180.971 152.333 178.752 148.982 179.398Z" fill="white"/>
<path opacity="0.15" d="M153.656 190.389C154.174 189.115 154.532 187.806 154.68 186.532L146.603 190.835L153.656 190.389Z" fill="black"/>
<path opacity="0.5" d="M138.454 194.258C138.639 199.055 142.22 201.057 146.607 198.732C149.619 197.135 152.247 193.894 153.654 190.389L146.601 190.835L138.454 194.258Z" fill="white"/>
<path d="M148.976 179.398C148.228 179.545 147.428 179.833 146.603 180.279C142.095 182.709 138.443 188.792 138.443 193.865C138.443 194 138.443 194.129 138.449 194.258L146.597 190.835L148.976 179.398Z" stroke="white" stroke-width="1.0527" stroke-miterlimit="10" stroke-linecap="round" stroke-linejoin="round"/>
<path d="M148.975 179.398L146.597 190.835L154.673 186.532C154.731 186.068 154.763 185.604 154.763 185.147C154.763 180.971 152.326 178.752 148.975 179.398Z" stroke="white" stroke-width="1.0527" stroke-miterlimit="10" stroke-linecap="round" stroke-linejoin="round"/>
<path d="M153.65 190.389C154.168 189.115 154.526 187.806 154.673 186.532L146.597 190.835L153.65 190.389Z" stroke="white" stroke-width="1.0527" stroke-miterlimit="10" stroke-linecap="round" stroke-linejoin="round"/>
<path d="M138.45 194.258C138.635 199.055 142.217 201.057 146.603 198.732C149.615 197.135 152.244 193.894 153.651 190.389L146.597 190.835L138.45 194.258Z" stroke="white" stroke-width="1.0527" stroke-miterlimit="10" stroke-linecap="round" stroke-linejoin="round"/>
<path d="M172.843 167.297C170.189 170.233 168.373 174.331 168.373 177.936C168.373 179.574 168.75 180.918 169.403 181.904L176.533 173.603L172.843 167.297Z" fill="#58A4B0"/>
<path d="M180.216 163.369C179.11 163.323 177.857 163.628 176.532 164.333C175.202 165.037 173.949 166.064 172.843 167.298L176.532 173.603L180.216 163.369Z" fill="#58A4B0"/>
<path d="M183.936 165.765C183.162 164.285 181.845 163.44 180.214 163.369L176.53 173.603L183.936 165.765Z" fill="#58A4B0"/>
<path d="M183.936 165.765L176.531 173.603L169.4 181.905C170.801 183.995 173.467 184.5 176.531 182.874C181.039 180.484 184.697 174.396 184.697 169.27C184.697 167.872 184.422 166.692 183.936 165.765Z" fill="#58A4B0"/>
<path opacity="0.7" d="M180.216 163.369C179.11 163.323 177.857 163.628 176.532 164.333C175.202 165.037 173.949 166.064 172.843 167.298L176.532 173.603L180.216 163.369Z" fill="white"/>
<path opacity="0.15" d="M183.939 165.765C183.165 164.285 181.848 163.44 180.217 163.369L176.534 173.603L183.939 165.765Z" fill="black"/>
<path opacity="0.5" d="M183.939 165.765L176.533 173.603L169.403 181.905C170.803 183.995 173.47 184.5 176.533 182.874C181.042 180.484 184.699 174.396 184.699 169.27C184.7 167.872 184.425 166.692 183.939 165.765Z" fill="white"/>
<path d="M172.843 167.297C170.189 170.233 168.373 174.331 168.373 177.936C168.373 179.574 168.75 180.918 169.403 181.904L176.533 173.603L172.843 167.297Z" stroke="white" stroke-width="1.0527" stroke-miterlimit="10" stroke-linecap="round" stroke-linejoin="round"/>
<path d="M180.216 163.369C179.11 163.323 177.857 163.628 176.532 164.333C175.202 165.037 173.949 166.064 172.843 167.298L176.532 173.603L180.216 163.369Z" stroke="white" stroke-width="1.0527" stroke-miterlimit="10" stroke-linecap="round" stroke-linejoin="round"/>
<path d="M183.936 165.765C183.162 164.285 181.845 163.44 180.214 163.369L176.53 173.603L183.936 165.765Z" stroke="white" stroke-width="1.0527" stroke-miterlimit="10" stroke-linecap="round" stroke-linejoin="round"/>
<path d="M183.936 165.765L176.531 173.603L169.4 181.905C170.801 183.995 173.467 184.5 176.531 182.874C181.039 180.484 184.697 174.396 184.697 169.27C184.697 167.872 184.422 166.692 183.936 165.765Z" stroke="white" stroke-width="1.0527" stroke-miterlimit="10" stroke-linecap="round" stroke-linejoin="round"/>
<path d="M158.176 174.082L159.512 173.374C159.894 173.171 160.205 173.335 160.205 173.741V174.919C160.205 175.325 159.895 175.817 159.513 176.02L158.176 176.728C157.794 176.931 157.484 176.767 157.484 176.362V175.183C157.483 174.778 157.794 174.285 158.176 174.082Z" fill="#58A4B0"/>
<path d="M158.176 179.372L159.512 178.663C159.894 178.461 160.205 178.625 160.205 179.03V180.209C160.205 180.614 159.895 181.107 159.513 181.31L158.176 182.018C157.794 182.221 157.484 182.057 157.484 181.651V180.473C157.483 180.067 157.794 179.574 158.176 179.372Z" fill="#58A4B0"/>
<path opacity="0.7" d="M158.176 179.372L159.512 178.663C159.894 178.461 160.205 178.625 160.205 179.03V180.209C160.205 180.614 159.895 181.107 159.513 181.31L158.176 182.018C157.794 182.221 157.484 182.057 157.484 181.651V180.473C157.483 180.067 157.794 179.574 158.176 179.372Z" fill="white"/>
<path d="M158.176 184.66L159.512 183.952C159.894 183.75 160.205 183.914 160.205 184.319V185.498C160.205 185.904 159.895 186.396 159.513 186.599L158.176 187.307C157.794 187.51 157.484 187.346 157.484 186.94V185.762C157.483 185.356 157.794 184.863 158.176 184.66Z" fill="#58A4B0"/>
<path opacity="0.15" d="M158.176 184.66L159.512 183.952C159.894 183.75 160.205 183.914 160.205 184.319V185.498C160.205 185.904 159.895 186.396 159.513 186.599L158.176 187.307C157.794 187.51 157.484 187.346 157.484 186.94V185.762C157.483 185.356 157.794 184.863 158.176 184.66Z" fill="black"/>
<path d="M158.176 189.949L159.512 189.241C159.894 189.039 160.205 189.203 160.205 189.608V190.786C160.205 191.192 159.895 191.684 159.513 191.887L158.176 192.596C157.794 192.798 157.484 192.634 157.484 192.229V191.05C157.483 190.645 157.794 190.152 158.176 189.949Z" fill="#58A4B0"/>
<path opacity="0.5" d="M158.176 189.949L159.512 189.241C159.894 189.039 160.205 189.203 160.205 189.608V190.786C160.205 191.192 159.895 191.684 159.513 191.887L158.176 192.596C157.794 192.798 157.484 192.634 157.484 192.229V191.05C157.483 190.645 157.794 190.152 158.176 189.949Z" fill="white"/>
<path opacity="0.4" d="M161.583 173.961C161.426 173.961 161.273 173.886 161.19 173.753C161.064 173.553 161.139 173.299 161.355 173.184L165.423 171.028C165.64 170.913 165.917 170.981 166.042 171.18C166.168 171.379 166.093 171.633 165.877 171.748L161.809 173.904C161.737 173.942 161.66 173.961 161.583 173.961Z" fill="black"/>
<path opacity="0.4" d="M161.519 179.303C161.362 179.303 161.21 179.228 161.126 179.095C161 178.896 161.075 178.642 161.291 178.527L165.359 176.371C165.577 176.256 165.854 176.324 165.978 176.523C166.104 176.722 166.029 176.976 165.813 177.091L161.745 179.247C161.674 179.285 161.596 179.303 161.519 179.303Z" fill="black"/>
<path opacity="0.4" d="M161.456 184.645C161.299 184.645 161.147 184.571 161.063 184.437C160.937 184.238 161.012 183.984 161.229 183.869L165.297 181.713C165.514 181.599 165.791 181.666 165.916 181.865C166.042 182.064 165.967 182.318 165.751 182.433L161.683 184.589C161.611 184.627 161.533 184.645 161.456 184.645Z" fill="black"/>
<path opacity="0.4" d="M161.393 189.986C161.236 189.986 161.084 189.912 160.999 189.778C160.874 189.579 160.949 189.325 161.165 189.209L165.233 187.054C165.452 186.941 165.727 187.008 165.853 187.207C165.978 187.406 165.903 187.66 165.687 187.776L161.619 189.931C161.547 189.968 161.469 189.986 161.393 189.986Z" fill="black"/>
<path opacity="0.4" d="M138.953 208.781C138.796 208.781 138.644 208.706 138.56 208.573C138.434 208.373 138.509 208.119 138.725 208.004L157.774 197.91C157.993 197.796 158.268 197.863 158.394 198.062C158.519 198.261 158.444 198.515 158.228 198.631L139.179 208.725C139.107 208.762 139.03 208.781 138.953 208.781Z" fill="black"/>
<path opacity="0.4" d="M139.567 211.37C139.41 211.37 139.257 211.295 139.173 211.162C139.048 210.963 139.123 210.708 139.339 210.593L158.387 200.499C158.607 200.384 158.882 200.453 159.006 200.651C159.132 200.85 159.057 201.104 158.841 201.22L139.793 211.314C139.72 211.351 139.643 211.37 139.567 211.37Z" fill="black"/>
<path opacity="0.4" d="M140.446 213.874C140.29 213.874 140.137 213.799 140.053 213.666C139.928 213.467 140.002 213.213 140.219 213.097L159.268 203.003C159.487 202.889 159.762 202.957 159.887 203.155C160.012 203.354 159.938 203.609 159.721 203.724L140.672 213.818C140.601 213.856 140.523 213.874 140.446 213.874Z" fill="black"/>
<path opacity="0.4" d="M168.855 192.938C168.698 192.938 168.546 192.863 168.462 192.729C168.336 192.53 168.411 192.276 168.627 192.161L187.676 182.066C187.895 181.953 188.17 182.02 188.295 182.219C188.421 182.418 188.346 182.672 188.13 182.787L169.081 192.881C169.009 192.919 168.932 192.938 168.855 192.938Z" fill="black"/>
<path opacity="0.4" d="M169.469 195.526C169.312 195.526 169.16 195.451 169.075 195.318C168.95 195.119 169.025 194.865 169.241 194.749L188.29 184.655C188.51 184.541 188.785 184.609 188.909 184.807C189.035 185.006 188.96 185.261 188.744 185.376L169.695 195.47C169.623 195.508 169.546 195.526 169.469 195.526Z" fill="black"/>
<path opacity="0.4" d="M170.346 198.031C170.189 198.031 170.037 197.956 169.952 197.823C169.827 197.624 169.902 197.369 170.118 197.254L189.167 187.16C189.387 187.045 189.662 187.114 189.786 187.312C189.912 187.511 189.837 187.765 189.621 187.881L170.572 197.975C170.5 198.012 170.422 198.031 170.346 198.031Z" fill="black"/>
<path d="M145.674 216.713L189.102 193.701C190.631 192.891 192.519 193.25 193.453 194.418C194.386 195.585 194.004 197.115 192.475 197.926L149.032 220.944C147.502 221.754 145.399 221.542 144.47 220.371C143.54 219.202 144.144 217.523 145.674 216.713Z" fill="#58A4B0"/>
<path opacity="0.4" d="M152.836 227.989C152.679 227.989 152.527 227.914 152.443 227.781C152.317 227.581 152.392 227.327 152.608 227.212L171.655 217.119C171.874 217.006 172.15 217.073 172.275 217.271C172.4 217.47 172.325 217.725 172.109 217.84L153.062 227.933C152.99 227.97 152.913 227.989 152.836 227.989Z" fill="black"/>
<path opacity="0.4" d="M150.453 226.445C150.296 226.445 150.144 226.371 150.059 226.237C149.934 226.038 150.009 225.784 150.225 225.668L169.272 215.576C169.491 215.463 169.766 215.53 169.891 215.729C170.017 215.928 169.942 216.182 169.726 216.297L150.679 226.39C150.607 226.427 150.53 226.445 150.453 226.445Z" fill="black"/>
<path opacity="0.4" d="M155.341 229.35C155.184 229.35 155.032 229.275 154.947 229.141C154.822 228.942 154.897 228.688 155.113 228.573L174.161 218.48C174.38 218.367 174.655 218.434 174.781 218.632C174.906 218.831 174.831 219.086 174.615 219.201L155.567 229.294C155.495 229.331 155.418 229.35 155.341 229.35Z" fill="black"/>
<path opacity="0.4" d="M180.034 213.579C179.877 213.579 179.725 213.504 179.64 213.371C179.515 213.172 179.59 212.918 179.806 212.802L198.854 202.71C199.073 202.596 199.348 202.663 199.474 202.862C199.599 203.061 199.524 203.315 199.308 203.431L180.26 213.523C180.188 213.561 180.11 213.579 180.034 213.579Z" fill="black"/>
<path opacity="0.4" d="M177.65 212.036C177.493 212.036 177.341 211.961 177.256 211.828C177.131 211.629 177.206 211.375 177.422 211.259L196.469 201.167C196.688 201.054 196.963 201.121 197.089 201.319C197.214 201.519 197.139 201.773 196.923 201.888L177.876 211.98C177.804 212.018 177.727 212.036 177.65 212.036Z" fill="black"/>
<path opacity="0.4" d="M182.536 214.94C182.379 214.94 182.227 214.865 182.142 214.732C182.017 214.533 182.092 214.279 182.308 214.163L201.356 204.071C201.575 203.957 201.85 204.025 201.976 204.223C202.101 204.422 202.026 204.676 201.81 204.792L182.762 214.884C182.69 214.922 182.613 214.94 182.536 214.94Z" fill="black"/>
<path d="M182.825 227.523C178.689 225.33 171.682 225.489 167.173 227.878C162.665 230.266 162.362 233.981 166.498 236.173C170.633 238.366 177.641 238.207 182.149 235.818C186.658 233.43 186.96 229.716 182.825 227.523ZM180.01 234.685C176.789 236.391 171.784 236.504 168.83 234.938C165.876 233.372 166.092 230.719 169.313 229.012C172.533 227.306 177.538 227.192 180.493 228.759C183.446 230.325 183.231 232.978 180.01 234.685Z" fill="#58A4B0"/>
<path d="M171.452 230.147C173.384 229.123 176.387 229.054 178.16 229.994C179.933 230.934 179.803 232.526 177.871 233.55C175.939 234.574 172.935 234.642 171.163 233.701C169.39 232.762 169.52 231.171 171.452 230.147Z" fill="#58A4B0"/>
<path opacity="0.5" d="M171.451 230.146C173.384 229.122 176.387 229.054 178.16 229.994C179.932 230.934 179.803 232.526 177.87 233.55C175.938 234.574 172.935 234.642 171.162 233.701C169.39 232.762 169.519 231.17 171.451 230.146Z" fill="black"/>
<path opacity="0.15" d="M182.824 227.523C178.689 225.33 171.681 225.489 167.173 227.878C162.664 230.266 162.362 233.981 166.497 236.173C170.633 238.366 177.64 238.207 182.149 235.818C186.658 233.43 186.96 229.716 182.824 227.523ZM180.009 234.685C176.789 236.391 171.783 236.504 168.83 234.938C165.876 233.372 166.091 230.719 169.312 229.012C172.532 227.306 177.538 227.192 180.492 228.759C183.446 230.325 183.23 232.978 180.009 234.685Z" fill="black"/>
<path d="M171.346 226.423L172.291 227.973C174.111 227.589 176.084 227.554 177.834 227.878L179.109 226.291C176.659 225.836 173.894 225.885 171.346 226.423Z" fill="#58A4B0"/>
<path opacity="0.7" d="M171.346 226.423L172.291 227.973C174.111 227.589 176.084 227.554 177.834 227.878L179.109 226.291C176.659 225.836 173.894 225.885 171.346 226.423Z" fill="white"/>
<path opacity="0.4" d="M175.227 225.655C175.218 225.655 175.209 225.654 175.2 225.654C174.95 225.641 174.76 225.444 174.775 225.214L174.897 223.304L183.272 218.866C183.491 218.753 183.766 218.82 183.891 219.019C184.017 219.218 183.942 219.472 183.726 219.588L175.773 223.801L175.679 225.263C175.665 225.484 175.465 225.655 175.227 225.655Z" fill="black"/>
<path d="M207.31 214.556C203.174 212.363 196.166 212.522 191.658 214.911C187.149 217.3 186.847 221.014 190.983 223.207C195.119 225.4 202.126 225.241 206.635 222.852C211.143 220.463 211.445 216.749 207.31 214.556ZM204.495 221.717C201.275 223.423 196.268 223.537 193.315 221.97C190.361 220.404 190.577 217.751 193.797 216.045C197.017 214.339 202.024 214.225 204.978 215.791C207.931 217.358 207.715 220.011 204.495 221.717Z" fill="#58A4B0"/>
<path d="M195.937 217.18C197.869 216.156 200.872 216.088 202.645 217.028C204.417 217.968 204.287 219.56 202.356 220.583C200.423 221.607 197.42 221.676 195.648 220.736C193.875 219.795 194.004 218.203 195.937 217.18Z" fill="#58A4B0"/>
<path opacity="0.5" d="M195.937 217.179C197.869 216.155 200.872 216.087 202.645 217.028C204.417 217.967 204.287 219.559 202.356 220.583C200.423 221.607 197.42 221.675 195.648 220.735C193.875 219.794 194.004 218.203 195.937 217.179Z" fill="black"/>
<path opacity="0.15" d="M207.31 214.556C203.174 212.363 196.166 212.522 191.658 214.911C187.149 217.299 186.847 221.014 190.983 223.207C195.119 225.4 202.126 225.241 206.635 222.852C211.143 220.463 211.445 216.749 207.31 214.556ZM204.495 221.717C201.275 223.423 196.268 223.537 193.315 221.97C190.361 220.404 190.577 217.751 193.797 216.044C197.017 214.338 202.024 214.225 204.978 215.791C207.931 217.358 207.715 220.011 204.495 221.717Z" fill="black"/>
<path d="M207.307 214.556C203.813 212.703 198.273 212.536 193.918 213.967L195.412 215.371C198.523 214.349 202.479 214.469 204.975 215.792C205.432 216.034 205.804 216.305 206.11 216.591L208.897 215.677C208.468 215.274 207.947 214.895 207.307 214.556Z" fill="#58A4B0"/>
<path opacity="0.7" d="M207.307 214.556C203.813 212.703 198.273 212.536 193.918 213.967L195.412 215.371C198.523 214.349 202.479 214.469 204.975 215.792C205.432 216.034 205.804 216.305 206.11 216.591L208.897 215.677C208.468 215.274 207.947 214.895 207.307 214.556Z" fill="white"/>
<path opacity="0.4" d="M199.786 212.646C199.777 212.646 199.768 212.646 199.759 212.645C199.509 212.632 199.318 212.435 199.333 212.205L199.457 210.295L207.831 205.857C208.05 205.745 208.325 205.811 208.451 206.01C208.576 206.209 208.501 206.463 208.285 206.579L200.333 210.791L200.238 212.255C200.223 212.475 200.024 212.646 199.786 212.646Z" fill="black"/>
<path opacity="0.4" d="M177.803 241.261C177.646 241.261 177.494 241.186 177.409 241.053C177.284 240.854 177.359 240.599 177.575 240.484L223.836 215.975C224.055 215.862 224.33 215.928 224.455 216.127C224.581 216.326 224.506 216.58 224.29 216.696L178.029 241.205C177.957 241.243 177.879 241.261 177.803 241.261Z" fill="black"/>
<path opacity="0.4" d="M180.305 242.581C180.149 242.581 179.996 242.506 179.912 242.373C179.787 242.174 179.861 241.92 180.078 241.804L226.338 217.295C226.558 217.182 226.832 217.249 226.958 217.447C227.083 217.646 227.008 217.901 226.792 218.016L180.531 242.525C180.46 242.563 180.383 242.581 180.305 242.581Z" fill="black"/>
<path opacity="0.4" d="M182.804 243.905C182.647 243.905 182.495 243.83 182.41 243.697C182.285 243.498 182.36 243.243 182.576 243.128L228.837 218.619C229.056 218.505 229.331 218.572 229.456 218.771C229.582 218.97 229.507 219.224 229.291 219.34L183.03 243.849C182.958 243.886 182.88 243.905 182.804 243.905Z" fill="black"/>
</svg>
