<svg width="24" height="25" viewBox="0 0 24 25" fill="none" xmlns="http://www.w3.org/2000/svg">
<path d="M8.50215 11.6389C9.05562 11.6389 9.5043 12.0876 9.5043 12.6411C9.5043 13.1946 9.05562 13.6432 8.50215 13.6432C7.94868 13.6432 7.5 13.1946 7.5 12.6411C7.5 12.0876 7.94868 11.6389 8.50215 11.6389ZM12 4.4931V10.6389L12.0005 11.1439L19.442 11.1429L17.7196 9.41917C17.4534 9.15286 17.4292 8.73619 17.6471 8.44262L17.7198 8.35851C17.9861 8.09229 18.4027 8.06816 18.6963 8.28606L18.7804 8.3587L21.777 11.3563C22.043 11.6224 22.0674 12.0386 21.85 12.3322L21.7775 12.4163L18.7809 15.4198C18.4884 15.713 18.0135 15.7135 17.7203 15.421C17.4537 15.155 17.429 14.7384 17.6465 14.4445L17.7191 14.3603L19.432 12.6429L12.0005 12.6439L12 19.3889C12 19.8553 11.5788 20.2086 11.1196 20.1275L2.61955 18.6262C2.26121 18.5629 2 18.2515 2 17.8876V5.88893C2 5.52163 2.26601 5.20837 2.62847 5.14885L11.1285 3.75301C11.5851 3.67803 12 4.03037 12 4.4931ZM10.5 5.37631L3.5 6.52582V17.2585L10.5 18.4949V5.37631ZM13 18.6402L13.7652 18.6404L13.867 18.6335C14.2335 18.5837 14.5158 18.2693 14.5152 17.8891L14.508 13.6389H13V18.6402ZM13.002 10.1389L13 8.86427V5.13893L13.7453 5.13893C14.1245 5.13893 14.4381 5.42045 14.4883 5.78605L14.4953 5.88769L14.502 10.1389H13.002Z" fill="#1B1B1E"/>
</svg>
