<svg width="18" height="19" viewBox="0 0 18 19" fill="none" xmlns="http://www.w3.org/2000/svg">
<path d="M3.5 18.1389C2.53333 18.1389 1.70833 17.7972 1.025 17.1139C0.341667 16.4306 0 15.6056 0 14.6389C0 13.6722 0.341667 12.8472 1.025 12.1639C1.70833 11.4806 2.53333 11.1389 3.5 11.1389H5V7.13889H3.5C2.53333 7.13889 1.70833 6.79722 1.025 6.11389C0.341667 5.43055 0 4.60555 0 3.63889C0 2.67222 0.341667 1.84722 1.025 1.16389C1.70833 0.480552 2.53333 0.138885 3.5 0.138885C4.46667 0.138885 5.29167 0.480552 5.975 1.16389C6.65833 1.84722 7 2.67222 7 3.63889V5.13889H11V3.63889C11 2.67222 11.3417 1.84722 12.025 1.16389C12.7083 0.480552 13.5333 0.138885 14.5 0.138885C15.4667 0.138885 16.2917 0.480552 16.975 1.16389C17.6583 1.84722 18 2.67222 18 3.63889C18 4.60555 17.6583 5.43055 16.975 6.11389C16.2917 6.79722 15.4667 7.13889 14.5 7.13889H13V11.1389H14.5C15.4667 11.1389 16.2917 11.4806 16.975 12.1639C17.6583 12.8472 18 13.6722 18 14.6389C18 15.6056 17.6583 16.4306 16.975 17.1139C16.2917 17.7972 15.4667 18.1389 14.5 18.1389C13.5333 18.1389 12.7083 17.7972 12.025 17.1139C11.3417 16.4306 11 15.6056 11 14.6389V13.1389H7V14.6389C7 15.6056 6.65833 16.4306 5.975 17.1139C5.29167 17.7972 4.46667 18.1389 3.5 18.1389ZM3.5 16.1389C3.91667 16.1389 4.27083 15.9931 4.5625 15.7014C4.85417 15.4097 5 15.0556 5 14.6389V13.1389H3.5C3.08333 13.1389 2.72917 13.2847 2.4375 13.5764C2.14583 13.8681 2 14.2222 2 14.6389C2 15.0556 2.14583 15.4097 2.4375 15.7014C2.72917 15.9931 3.08333 16.1389 3.5 16.1389ZM14.5 16.1389C14.9167 16.1389 15.2708 15.9931 15.5625 15.7014C15.8542 15.4097 16 15.0556 16 14.6389C16 14.2222 15.8542 13.8681 15.5625 13.5764C15.2708 13.2847 14.9167 13.1389 14.5 13.1389H13V14.6389C13 15.0556 13.1458 15.4097 13.4375 15.7014C13.7292 15.9931 14.0833 16.1389 14.5 16.1389ZM7 11.1389H11V7.13889H7V11.1389ZM3.5 5.13889H5V3.63889C5 3.22222 4.85417 2.86805 4.5625 2.57639C4.27083 2.28472 3.91667 2.13889 3.5 2.13889C3.08333 2.13889 2.72917 2.28472 2.4375 2.57639C2.14583 2.86805 2 3.22222 2 3.63889C2 4.05555 2.14583 4.40972 2.4375 4.70139C2.72917 4.99305 3.08333 5.13889 3.5 5.13889ZM13 5.13889H14.5C14.9167 5.13889 15.2708 4.99305 15.5625 4.70139C15.8542 4.40972 16 4.05555 16 3.63889C16 3.22222 15.8542 2.86805 15.5625 2.57639C15.2708 2.28472 14.9167 2.13889 14.5 2.13889C14.0833 2.13889 13.7292 2.28472 13.4375 2.57639C13.1458 2.86805 13 3.22222 13 3.63889V5.13889Z" fill="white" fill-opacity="0.5"/>
</svg>
